<svg xmlns="http://www.w3.org/2000/svg" viewBox="0 0 47.61 47.3"><defs><style>.cls-1{fill:none;stroke:#2983fb;stroke-miterlimit:10;stroke-width:2px;}</style></defs><title>contactus</title><g id="Ebene_2" data-name="Ebene 2"><g id="Ebene_1-2" data-name="Ebene 1"><path id="layer2" class="cls-1" d="M34.89,24.3h3.8A2.56,2.56,0,0,0,41,22V16.7a2.56,2.56,0,0,0-2.3-2.3h-3.8"/><path id="layer2-2" data-name="layer2" class="cls-1" d="M12.59,14.5H8.79a2.56,2.56,0,0,0-2.3,2.3v5.3a2.56,2.56,0,0,0,2.3,2.3h4.7"/><path id="layer1" class="cls-1" d="M29.49,28.9v3.8c0,1.5-.3,3.8,8,5.3a11.2,11.2,0,0,1,8.9,8.3H1.19A10.81,10.81,0,0,1,10,38c8.4-1.5,8.1-3.8,8.1-5.3V30.6a14.14,14.14,0,0,1-5.4-11.5V11.6c0-7.8,6-10.6,11.1-10.6h0C28.89,1,35,3.7,35,11.6V23.7c-.1,2.9-3.2,5.2-5.5,5.2"/><path id="layer2-3" data-name="layer2" class="cls-1" d="M29.49,28.9a2.4,2.4,0,0,0-2.3-2.3h-1.5a2.33,2.33,0,0,0-2.3,2.3h0a2.4,2.4,0,0,0,2.3,2.3h1.5a2.39,2.39,0,0,0,2.3-2.3Z"/><polyline id="layer1-2" data-name="layer1" class="cls-1" points="15.99 36.1 23.69 45.5 31.49 36.1"/><path id="layer1-3" data-name="layer1" class="cls-1" d="M12.59,13c9.2,0,9.2-6,15.3-6a7,7,0,0,1,6.9,5.3"/></g></g></svg>