<svg xmlns="http://www.w3.org/2000/svg" viewBox="0 0 48.5 29.9"><defs><style>.cls-1{fill:none;stroke:#2983fb;stroke-miterlimit:10;stroke-width:2px;}</style></defs><title>payments</title><g id="Ebene_2" data-name="Ebene 2"><g id="Ebene_1-2" data-name="Ebene 1"><g id="Ebene_1-3" data-name="Ebene 1"><path class="cls-1" d="M25.2,3.7c-1,.1-2.1.2-3.1.2C15.9,3.9,14.4,1,8.7,1S1,3,1,3V18.9a21.42,21.42,0,0,1,8.6-1.7c5.2,0,8.8,2.9,13.4,2.9a15.48,15.48,0,0,0,2.2-.1,13.35,13.35,0,0,0,4.6-1.1V2.8a37.49,37.49,0,0,1-4.6.9"/><path id="layer2" class="cls-1" d="M20.3,10.5a3.91,3.91,0,0,1-3.9,4.8,6,6,0,0,1-5.6-4.8,3.91,3.91,0,0,1,3.9-4.8A6,6,0,0,1,20.3,10.5Z"/><path id="layer2-2" data-name="layer2" class="cls-1" d="M15.4,18.5v8.9a1.54,1.54,0,0,0,1.5,1.5H46a1.54,1.54,0,0,0,1.5-1.5V14.5"/><line id="layer1" class="cls-1" x1="29.7" y1="22.7" x2="43.2" y2="22.7"/><path id="layer1-2" data-name="layer1" class="cls-1" d="M5.7,1.3c0,.2.1.5.1.8A4.8,4.8,0,0,1,1,6.9"/><path id="layer1-3" data-name="layer1" class="cls-1" d="M1,13.5a4.75,4.75,0,0,1,4.7,4.2"/><path class="cls-1" d="M25.2,3.7a4.79,4.79,0,0,0,4.5,3.9H46a1.54,1.54,0,0,1,1.5,1.5v5.4H29.7a4.76,4.76,0,0,0-4.6,4.8,2.77,2.77,0,0,0,.1.9"/></g></g></g></svg>