<svg id="Ebene_1" data-name="Ebene 1" xmlns="http://www.w3.org/2000/svg" viewBox="0 0 1920 1080"><defs><style>.cls-1{fill:#fff;}.cls-10,.cls-11,.cls-12,.cls-2,.cls-25,.cls-3,.cls-4,.cls-43,.cls-5,.cls-6,.cls-7,.cls-8,.cls-9{fill:none;}.cls-2,.cls-3,.cls-4{stroke:#d0d3d4;}.cls-2,.cls-3,.cls-4,.cls-43{stroke-linecap:round;}.cls-2,.cls-3,.cls-4,.cls-43,.cls-6,.cls-7{stroke-linejoin:round;}.cls-2,.cls-25,.cls-3,.cls-4,.cls-43,.cls-5,.cls-6,.cls-7,.cls-8{stroke-width:2px;}.cls-3{stroke-dasharray:2 7.98;}.cls-4{stroke-dasharray:2 8.01;}.cls-5,.cls-9{stroke:#002846;}.cls-10,.cls-11,.cls-12,.cls-25,.cls-5,.cls-8,.cls-9{stroke-miterlimit:10;}.cls-10,.cls-6{stroke:#1353b9;}.cls-11,.cls-7{stroke:#2983fb;}.cls-12,.cls-8{stroke:#ff7373;}.cls-10,.cls-11,.cls-12,.cls-9{stroke-width:10px;}.cls-13,.cls-17,.cls-20{font-size:20px;}.cls-13{fill:#002846;}.cls-13,.cls-15,.cls-17,.cls-20,.cls-38,.cls-55{font-family:DIN-Regular, DIN;}.cls-14{letter-spacing:-0.03em;}.cls-15,.cls-38,.cls-55{font-size:12.5px;}.cls-15,.cls-54{fill:#425563;}.cls-16{letter-spacing:-0.02em;}.cls-17{fill:#1353b9;}.cls-18{letter-spacing:-0.01em;}.cls-19{letter-spacing:-0.01em;}.cls-20{fill:#2983fb;}.cls-21{letter-spacing:-0.01em;}.cls-22{letter-spacing:-0.01em;}.cls-23{letter-spacing:-0.01em;}.cls-24{fill:#ff7373;}.cls-25,.cls-43{stroke:#a2aaad;}.cls-26,.cls-38,.cls-55{fill:#a2aaad;}.cls-27{letter-spacing:-0.03em;}.cls-28{letter-spacing:-0.03em;}.cls-29{letter-spacing:-0.01em;}.cls-30{letter-spacing:-0.01em;}.cls-31{letter-spacing:0em;}.cls-32{letter-spacing:-0.01em;}.cls-33{letter-spacing:-0.01em;}.cls-34{letter-spacing:-0.01em;}.cls-35{letter-spacing:-0.02em;}.cls-36{letter-spacing:-0.03em;}.cls-37{letter-spacing:-0.01em;}.cls-38{letter-spacing:-0.04em;}.cls-39{letter-spacing:-0.06em;}.cls-40{letter-spacing:-0.07em;}.cls-41{letter-spacing:-0.06em;}.cls-42{letter-spacing:-0.06em;}.cls-43{stroke-dasharray:2 8;}.cls-44{letter-spacing:-0.07em;}.cls-45{letter-spacing:-0.04em;}.cls-46{letter-spacing:-0.04em;}.cls-47{letter-spacing:-0.05em;}.cls-48{letter-spacing:-0.05em;}.cls-49{letter-spacing:-0.05em;}.cls-50{letter-spacing:-0.04em;}.cls-51{letter-spacing:-0.05em;}.cls-52{letter-spacing:-0.06em;}.cls-53{letter-spacing:-0.05em;}.cls-56{letter-spacing:0em;}</style></defs><title>190627_3DS_Grid_v02</title><rect class="cls-1" width="1920" height="1080"/><line class="cls-2" x1="321" y1="153" x2="321" y2="154"/><line class="cls-3" x1="321" y1="161.98" x2="321" y2="1036.01"/><line class="cls-2" x1="321" y1="1040" x2="321" y2="1041"/><line class="cls-2" x1="704" y1="153" x2="704" y2="154"/><line class="cls-3" x1="704" y1="161.98" x2="704" y2="1036.01"/><line class="cls-2" x1="704" y1="1040" x2="704" y2="1041"/><line class="cls-2" x1="1085" y1="153" x2="1085" y2="154"/><line class="cls-3" x1="1085" y1="161.98" x2="1085" y2="1036.01"/><line class="cls-2" x1="1085" y1="1040" x2="1085" y2="1041"/><line class="cls-2" x1="1469" y1="180" x2="1469" y2="181"/><line class="cls-4" x1="1469" y1="189.01" x2="1469" y2="1036"/><line class="cls-2" x1="1469" y1="1040" x2="1469" y2="1041"/><g id="User_Alt" data-name="User Alt"><circle class="cls-5" cx="320.83" cy="71" r="31"/><path class="cls-5" d="M330.26,57.58a9.26,9.26,0,0,0-9.43-9.49c-5.2,0-9.72,4.2-9.42,9.49.06,1.06,1,6.33,1,6.33.81,4.57,3.75,8.44,8.37,8.44s7.51-3.81,8.38-8.44C329.21,63.91,330.21,58.64,330.26,57.58Z"/><path class="cls-5" d="M297.92,91.89V91c0-4.21,3.12-7.24,7.26-8.28l15.65-2.94,15.71,2.93c4,1.26,7.2,4.07,7.2,8.28v.92"/></g><circle class="cls-6" cx="703.27" cy="45.69" r="7.04"/><circle class="cls-6" cx="680.14" cy="57.75" r="7.04"/><circle class="cls-6" cx="705.28" cy="77.87" r="7.04"/><circle class="cls-6" cx="727.41" cy="50.71" r="7.04"/><circle class="cls-6" cx="679.13" cy="93.96" r="7.04"/><circle class="cls-6" cx="727.41" cy="93.96" r="7.04"/><line class="cls-6" x1="681.14" y1="86.92" x2="699.25" y2="51.72"/><line class="cls-6" x1="707.29" y1="51.72" x2="725.39" y2="86.92"/><line class="cls-6" x1="686.17" y1="94.97" x2="720.37" y2="94.97"/><line class="cls-6" x1="684.16" y1="62.78" x2="698.24" y2="74.85"/><line class="cls-6" x1="723.38" y1="56.75" x2="712.32" y2="77.87"/><line class="cls-6" x1="703.27" y1="52.73" x2="704.27" y2="70.83"/><line class="cls-6" x1="684.16" y1="52.73" x2="696.23" y2="46.69"/><line class="cls-6" x1="698.24" y1="80.89" x2="685.16" y2="89.94"/><ellipse class="cls-7" cx="1066.23" cy="76.04" rx="11.9" ry="3.25"/><path class="cls-7" d="M1054.33,76v7.57c0,1.79,4.73,3.24,11.9,3.24s11.9-1.45,11.9-3.24V76"/><path class="cls-7" d="M1054.33,83.61v7.57c0,1.79,4.73,3.25,11.9,3.25s11.9-1.46,11.9-3.25V83.61"/><path class="cls-7" d="M1054.33,90.1v8.65c0,1.8,4.73,3.25,11.9,3.25s11.9-1.45,11.9-3.25V90.1"/><ellipse class="cls-7" cx="1105.18" cy="76.04" rx="11.9" ry="3.25"/><path class="cls-7" d="M1093.28,76v7.57c0,1.79,4.73,3.24,11.9,3.24s11.9-1.45,11.9-3.24V76"/><path class="cls-7" d="M1093.28,83.61v7.57c0,1.79,4.73,3.25,11.9,3.25s11.9-1.46,11.9-3.25V83.61"/><path class="cls-7" d="M1093.28,90.1v8.65c0,1.8,4.73,3.25,11.9,3.25s11.9-1.45,11.9-3.25V90.1"/><ellipse class="cls-7" cx="1085.7" cy="42.5" rx="11.9" ry="3.25"/><path class="cls-7" d="M1073.8,42.5v7.57c0,1.79,4.73,3.25,11.9,3.25s11.9-1.46,11.9-3.25V42.5"/><path class="cls-7" d="M1073.8,50.07v7.58c0,1.79,4.73,3.24,11.9,3.24s11.9-1.45,11.9-3.24V50.07"/><path class="cls-7" d="M1073.8,56.56v8.66c0,1.79,4.73,3.24,11.9,3.24s11.9-1.45,11.9-3.24V56.56"/><line class="cls-7" x1="1060.82" y1="70.63" x2="1060.82" y2="68.46"/><line class="cls-7" x1="1060.82" y1="66.3" x2="1060.82" y2="64.14"/><line class="cls-7" x1="1060.82" y1="61.97" x2="1060.82" y2="59.81"/><line class="cls-7" x1="1060.82" y1="57.65" x2="1060.82" y2="55.48"/><line class="cls-7" x1="1060.82" y1="53.32" x2="1060.82" y2="51.15"/><line class="cls-7" x1="1065.15" y1="53.32" x2="1065.15" y2="51.15"/><line class="cls-7" x1="1069.48" y1="53.32" x2="1069.48" y2="51.15"/><line class="cls-7" x1="1083.54" y1="87.94" x2="1083.54" y2="85.77"/><line class="cls-7" x1="1087.87" y1="87.94" x2="1087.87" y2="85.77"/><line class="cls-7" x1="1110.59" y1="70.63" x2="1110.59" y2="68.46"/><line class="cls-7" x1="1110.59" y1="66.3" x2="1110.59" y2="64.14"/><line class="cls-7" x1="1110.59" y1="61.97" x2="1110.59" y2="59.81"/><line class="cls-7" x1="1110.59" y1="57.65" x2="1110.59" y2="55.48"/><line class="cls-7" x1="1110.59" y1="53.32" x2="1110.59" y2="51.15"/><line class="cls-7" x1="1106.26" y1="53.32" x2="1106.26" y2="51.15"/><line class="cls-7" x1="1101.93" y1="53.32" x2="1101.93" y2="51.15"/><polyline id="Check" class="cls-8" points="1453.71 68.09 1468.51 82.9 1494.84 43.24"/><line class="cls-8" x1="1498.48" y1="102" x2="1486.63" y2="90.15"/><polyline class="cls-8" points="1486.63 101.09 1486.63 90.15 1497.57 90.15"/><line class="cls-8" x1="1437.8" y1="102" x2="1449.65" y2="90.15"/><polyline class="cls-8" points="1449.65 101.09 1449.65 90.15 1438.71 90.15"/><line class="cls-8" x1="1449.65" y1="52.93" x2="1437.8" y2="41.09"/><polyline class="cls-8" points="1438.71 52.93 1449.65 52.93 1449.65 42"/><path class="cls-8" d="M1457.68,43.24a30.19,30.19,0,0,1,20.92,0"/><path class="cls-8" d="M1439.78,81.61a30.18,30.18,0,0,1,.1-20.53"/><path class="cls-8" d="M1478.57,99.74a30.33,30.33,0,0,1-20.86,0"/><path class="cls-8" d="M1496.4,61.08a30.18,30.18,0,0,1,0,20.89"/><line class="cls-9" x1="321" y1="407" x2="321" y2="180"/><line class="cls-10" x1="703.5" y1="180" x2="703.5" y2="294"/><line class="cls-11" x1="1085.5" y1="199" x2="1085.5" y2="294"/><line class="cls-11" x1="1085.5" y1="858" x2="1085.5" y2="934"/><line class="cls-12" x1="1469" y1="741" x2="1469" y2="797"/><line class="cls-12" x1="1469" y1="351" x2="1469" y2="407"/><line class="cls-12" x1="1469" y1="445" x2="1469" y2="464"/><line class="cls-11" x1="1085" y1="1001" x2="1085" y2="1020"/><line class="cls-12" x1="1469" y1="546" x2="1469" y2="602"/><line class="cls-10" x1="703.5" y1="858" x2="704" y2="1010"/><line class="cls-9" x1="321.5" y1="455" x2="321.5" y2="1010"/><text class="cls-13" transform="translate(271.24 135.43)">Ca<tspan class="cls-14" x="23.26" y="0">r</tspan><tspan x="31" y="0">dholder</tspan></text><text class="cls-15" transform="translate(478.28 171.43)">1.1 Chec<tspan class="cls-16" x="47.27" y="0">k</tspan><tspan x="53.72" y="0">out</tspan></text><text class="cls-17" transform="translate(626.96 135.43)">Me<tspan class="cls-14" x="26.92" y="0">r</tspan><tspan x="34.66" y="0">chant Sy</tspan><tspan class="cls-18" x="109.78" y="0">s</tspan><tspan class="cls-19" x="119.5" y="0">t</tspan><tspan x="125.98" y="0">em</tspan></text><text class="cls-20" transform="translate(964.28 135.43)">Wi<tspan class="cls-14" x="22.14" y="0">r</tspan><tspan x="29.88" y="0">e</tspan><tspan class="cls-21" x="40.48" y="0">c</tspan><tspan x="50.04" y="0">a</tspan><tspan class="cls-14" x="60.56" y="0">r</tspan><tspan x="68.3" y="0">d </tspan><tspan class="cls-22" x="84.18" y="0">P</tspan><tspan x="96.58" y="0">ayment Ga</tspan><tspan class="cls-19" x="190.6" y="0">t</tspan><tspan class="cls-23" x="197.08" y="0">e</tspan><tspan x="207.58" y="0">way</tspan></text><path class="cls-24" d="M1386,135.43h-1.42l-3.16-11.4-3.17,11.4h-1.41l-3.65-14.24h1.62l2.78,11.48,3.14-11.48h1.36l3.14,11.48,2.78-11.48h1.62Z"/><path class="cls-24" d="M1391.71,122.79v-1.62h1.62v1.62Zm.08,12.64v-9.84h1.44v9.84Z"/><path class="cls-24" d="M1402.35,127.47a2.73,2.73,0,0,0-.76-.56,2.45,2.45,0,0,0-.94-.16,2.42,2.42,0,0,0-1,.2,2,2,0,0,0-.74.56,2.86,2.86,0,0,0-.47.84,3.19,3.19,0,0,0-.17,1v6h-1.44v-9.84h1.44v1.2a2.76,2.76,0,0,1,1.15-1,3.82,3.82,0,0,1,1.61-.35,3.89,3.89,0,0,1,1.27.2,2.91,2.91,0,0,1,1.09.72Z"/><path class="cls-24" d="M1405.49,130.89a3.8,3.8,0,0,0,.74,2.5,2.67,2.67,0,0,0,2.16.88,3.32,3.32,0,0,0,1.43-.27,4.05,4.05,0,0,0,1.15-.85l1,.86a6.46,6.46,0,0,1-.75.67,4,4,0,0,1-.79.48,4.83,4.83,0,0,1-.93.29,5.59,5.59,0,0,1-1.13.1,5,5,0,0,1-1.77-.3,3.46,3.46,0,0,1-1.35-.92,4.31,4.31,0,0,1-.87-1.57,7.46,7.46,0,0,1-.31-2.25,5.73,5.73,0,0,1,1.08-3.72,4,4,0,0,1,5.94,0,5.28,5.28,0,0,1,1.06,3.48v.66Zm5.2-1.08c0-.2,0-.37,0-.52s0-.28-.05-.4a2.21,2.21,0,0,0-.08-.35,2.78,2.78,0,0,0-.13-.37,2.25,2.25,0,0,0-.9-1.08,2.65,2.65,0,0,0-2.8,0,2.37,2.37,0,0,0-.9,1.08,4.72,4.72,0,0,0-.22.72,7.64,7.64,0,0,0-.08.92Z"/><path class="cls-24" d="M1420.76,135.23a4.38,4.38,0,0,1-1.75.32,4.67,4.67,0,0,1-1.73-.31,3.77,3.77,0,0,1-1.38-.94,4.45,4.45,0,0,1-.92-1.58,7.53,7.53,0,0,1,0-4.41,4.5,4.5,0,0,1,.92-1.57,3.93,3.93,0,0,1,1.38-.95,4.67,4.67,0,0,1,1.73-.32,4.38,4.38,0,0,1,1.75.32,4.6,4.6,0,0,1,1.49,1.14l-1,.92a3.54,3.54,0,0,0-1.06-.86,2.73,2.73,0,0,0-1.2-.24,3.06,3.06,0,0,0-1.3.28,2.7,2.7,0,0,0-1,.84,3.37,3.37,0,0,0-.49,1.09,6.71,6.71,0,0,0-.15,1.55,6.59,6.59,0,0,0,.15,1.55,3.28,3.28,0,0,0,.49,1.09,2.61,2.61,0,0,0,1,.84,2.92,2.92,0,0,0,1.3.28,2.6,2.6,0,0,0,1.2-.25,3.76,3.76,0,0,0,1.06-.87l1,.94A4.46,4.46,0,0,1,1420.76,135.23Z"/><path class="cls-24" d="M1430.33,135.43v-.94a3.39,3.39,0,0,1-1.23.83,4.82,4.82,0,0,1-1.61.23,5.57,5.57,0,0,1-1.67-.21,2.67,2.67,0,0,1-1.11-.69,2.36,2.36,0,0,1-.55-.89,3.4,3.4,0,0,1-.19-1.11,2.64,2.64,0,0,1,.87-2.07,3.73,3.73,0,0,1,2.53-.77h3v-.94a2.1,2.1,0,0,0-.58-1.62,2.79,2.79,0,0,0-1.94-.54,3.59,3.59,0,0,0-1.5.25,2.64,2.64,0,0,0-1,.87l-1-.9a3.37,3.37,0,0,1,1.47-1.16,5.83,5.83,0,0,1,2-.3,4.48,4.48,0,0,1,3,.83,3,3,0,0,1,1,2.45v6.68Zm0-4.54h-2.76c-1.46,0-2.2.58-2.2,1.74a1.48,1.48,0,0,0,.54,1.27,2.83,2.83,0,0,0,1.72.41,6.29,6.29,0,0,0,1.19-.1,1.8,1.8,0,0,0,1-.56,2.27,2.27,0,0,0,.5-1.7Z"/><path class="cls-24" d="M1440.77,127.47a2.73,2.73,0,0,0-.76-.56,2.45,2.45,0,0,0-.94-.16,2.42,2.42,0,0,0-1,.2,2,2,0,0,0-.74.56,2.86,2.86,0,0,0-.47.84,3.19,3.19,0,0,0-.17,1v6h-1.44v-9.84h1.44v1.2a2.76,2.76,0,0,1,1.15-1,3.82,3.82,0,0,1,1.61-.35,3.89,3.89,0,0,1,1.27.2,2.91,2.91,0,0,1,1.09.72Z"/><path class="cls-24" d="M1448.89,135.43v-1.18a3,3,0,0,1-1.29,1,4.31,4.31,0,0,1-1.51.26,4.08,4.08,0,0,1-1.38-.23,2.76,2.76,0,0,1-1-.63,3.27,3.27,0,0,1-.61-.86,5.44,5.44,0,0,1-.36-1,9.88,9.88,0,0,1-.18-1.13c0-.38,0-.77,0-1.16s0-.77,0-1.16a10.24,10.24,0,0,1,.18-1.13,5.44,5.44,0,0,1,.36-1,3.27,3.27,0,0,1,.61-.86,2.76,2.76,0,0,1,1-.63,4.08,4.08,0,0,1,1.38-.23,4.45,4.45,0,0,1,1.5.25,3,3,0,0,1,1.28,1v-5.54h1.46v14.24Zm0-4.92a10.65,10.65,0,0,0-.08-1.4,3.43,3.43,0,0,0-.34-1.2,2.09,2.09,0,0,0-.75-.84,2.32,2.32,0,0,0-1.29-.32,2.37,2.37,0,0,0-1.29.32,2.25,2.25,0,0,0-.75.84,3.92,3.92,0,0,0-.35,1.2,10.93,10.93,0,0,0,0,2.8,3.76,3.76,0,0,0,.35,1.2,2.18,2.18,0,0,0,.75.84,2.29,2.29,0,0,0,1.29.32,2.24,2.24,0,0,0,1.29-.32,2,2,0,0,0,.75-.84,3.31,3.31,0,0,0,.34-1.2A10.65,10.65,0,0,0,1448.87,130.51Z"/><path class="cls-24" d="M1466.29,131.55a4.27,4.27,0,0,1-.33,1.73,3.6,3.6,0,0,1-2.22,2,5.11,5.11,0,0,1-1.63.26,5.44,5.44,0,0,1-1.58-.22,3.47,3.47,0,0,1-1.3-.69,3.62,3.62,0,0,1-.91-1.18,4.23,4.23,0,0,1-.39-1.67h1.44a2.89,2.89,0,0,0,.28,1.13,2.37,2.37,0,0,0,.62.77,2.55,2.55,0,0,0,.85.44,3.29,3.29,0,0,0,1,.14,2.76,2.76,0,0,0,2-.72,2.61,2.61,0,0,0,.79-2,2.89,2.89,0,0,0-.67-2,2.77,2.77,0,0,0-2.13-.73h-.3v-1.28h.3a2.44,2.44,0,0,0,1.93-.69,2.69,2.69,0,0,0,.61-1.88,2.58,2.58,0,0,0-4.28-2,2.7,2.7,0,0,0-.76,1.74h-1.44a4.21,4.21,0,0,1,.39-1.54,3.69,3.69,0,0,1,.86-1.15,4,4,0,0,1,1.23-.72,4.7,4.7,0,0,1,1.52-.25,4.5,4.5,0,0,1,1.59.28,3.64,3.64,0,0,1,1.24.78,3.45,3.45,0,0,1,.8,1.22,4,4,0,0,1,.29,1.58,3.14,3.14,0,0,1-1.92,3.15A3.34,3.34,0,0,1,1466.29,131.55Z"/><path class="cls-24" d="M1479.47,128.15c0,.5,0,1,0,1.56a10.71,10.71,0,0,1-.13,1.61,6.35,6.35,0,0,1-.41,1.51,3.63,3.63,0,0,1-.85,1.28,4,4,0,0,1-1.56,1,5.74,5.74,0,0,1-2,.34h-4.88V121.19h4.88a6,6,0,0,1,2,.34,4.15,4.15,0,0,1,1.56,1,3.83,3.83,0,0,1,.85,1.23,5.76,5.76,0,0,1,.41,1.4,9.29,9.29,0,0,1,.13,1.5C1479.47,127.16,1479.47,127.66,1479.47,128.15Zm-1.52,0c0-.44,0-.88,0-1.31a8.32,8.32,0,0,0-.09-1.24,4.52,4.52,0,0,0-.28-1.11,2.79,2.79,0,0,0-.56-.9,3.17,3.17,0,0,0-1.26-.81,5,5,0,0,0-1.54-.23h-3.1v11.52h3.1a4.7,4.7,0,0,0,1.54-.23A3,3,0,0,0,1477,133a2.55,2.55,0,0,0,.56-.95,5.3,5.3,0,0,0,.28-1.22,9.77,9.77,0,0,0,.09-1.35C1478,129,1478,128.59,1478,128.15Z"/><path class="cls-24" d="M1491.63,131.51a3.84,3.84,0,0,1-.35,1.69,3.35,3.35,0,0,1-1,1.27,4.6,4.6,0,0,1-1.56.8,6.64,6.64,0,0,1-2,.28,7.5,7.5,0,0,1-2.74-.44,6.13,6.13,0,0,1-2.14-1.44l1-1a5,5,0,0,0,1.78,1.22,5.85,5.85,0,0,0,2.1.34,4,4,0,0,0,2.46-.69,2.31,2.31,0,0,0,.9-1.95,2.8,2.8,0,0,0-.17-1,1.83,1.83,0,0,0-.51-.76,2.11,2.11,0,0,0-.71-.43,6.48,6.48,0,0,0-1.15-.25l-1.66-.26a5.14,5.14,0,0,1-2.62-1.08,3.37,3.37,0,0,1-1.08-2.66,4.22,4.22,0,0,1,.32-1.65,3.65,3.65,0,0,1,.91-1.27,4.52,4.52,0,0,1,1.43-.81,5.92,5.92,0,0,1,1.9-.29,6.76,6.76,0,0,1,2.34.37,6,6,0,0,1,1.9,1.19l-1,1a4.83,4.83,0,0,0-1.42-.91,5.17,5.17,0,0,0-1.9-.31,3.15,3.15,0,0,0-2.22.72,2.49,2.49,0,0,0-.78,1.92,2.08,2.08,0,0,0,.64,1.64,3,3,0,0,0,.85.48,4.85,4.85,0,0,0,1.07.3l1.56.24c.34.06.63.11.89.17a4.73,4.73,0,0,1,.69.21,3.52,3.52,0,0,1,.55.27,2.73,2.73,0,0,1,.47.35A3.5,3.5,0,0,1,1491.63,131.51Z"/><path class="cls-24" d="M1508,135.43l-3.24-6.32h-3.42v6.32h-1.52V121.19h5.46a5.14,5.14,0,0,1,1.7.27,3.79,3.79,0,0,1,1.34.78,3.36,3.36,0,0,1,.87,1.25,4.2,4.2,0,0,1,.31,1.66,3.72,3.72,0,0,1-.86,2.55,3.85,3.85,0,0,1-2.24,1.27l3.38,6.46Zm0-10.26a2.4,2.4,0,0,0-.79-2,3.13,3.13,0,0,0-2.05-.65h-3.8v5.22h3.8a3.12,3.12,0,0,0,2.05-.64A2.35,2.35,0,0,0,1508,125.17Z"/><path class="cls-24" d="M1520.17,130.51a9.27,9.27,0,0,1-.23,2.15,3.57,3.57,0,0,1-1,1.77,3.69,3.69,0,0,1-1.22.82,4.42,4.42,0,0,1-3.2,0,3.91,3.91,0,0,1-1.22-.82,3.48,3.48,0,0,1-.61-.83,5.07,5.07,0,0,1-.36-.94,8.18,8.18,0,0,1-.18-1c0-.36,0-.73,0-1.12s0-.74,0-1.11a8.35,8.35,0,0,1,.18-1,5.36,5.36,0,0,1,.36-.94,3.69,3.69,0,0,1,.61-.83,4.09,4.09,0,0,1,1.22-.82,4.42,4.42,0,0,1,3.2,0,3.85,3.85,0,0,1,1.22.82,3.61,3.61,0,0,1,1,1.77A9.33,9.33,0,0,1,1520.17,130.51Zm-1.44,0c0-.28,0-.56,0-.84a4.48,4.48,0,0,0-.1-.82,3,3,0,0,0-.24-.75,2.17,2.17,0,0,0-.42-.63,2.59,2.59,0,0,0-3.58,0,2.2,2.2,0,0,0-.43.63,4.12,4.12,0,0,0-.24.75,5.58,5.58,0,0,0-.11.82c0,.28,0,.56,0,.84s0,.56,0,.84a5.4,5.4,0,0,0,.11.82,4.5,4.5,0,0,0,.24.76,1.82,1.82,0,0,0,.43.62,2.59,2.59,0,0,0,3.58,0,1.79,1.79,0,0,0,.42-.62,3.21,3.21,0,0,0,.24-.76,4.38,4.38,0,0,0,.1-.82C1518.73,131.07,1518.73,130.79,1518.73,130.51Z"/><path class="cls-24" d="M1529.47,135.43v-1.1a3.24,3.24,0,0,1-1.23.91,3.77,3.77,0,0,1-1.55.31,3.42,3.42,0,0,1-2.54-.92,3.19,3.19,0,0,1-.76-1.21,4.67,4.67,0,0,1-.24-1.55v-6.28h1.44v6.06a2.73,2.73,0,0,0,.64,2,2.35,2.35,0,0,0,1.76.65,2.42,2.42,0,0,0,1.79-.66,2.62,2.62,0,0,0,.67-2v-6.06h1.46v9.84Z"/><path class="cls-24" d="M1537.25,135.43a2.75,2.75,0,0,1-1.11-.21,2.25,2.25,0,0,1-.78-.57,2.65,2.65,0,0,1-.47-.84,3.4,3.4,0,0,1-.16-1v-6h-1.24v-1.1h1.24v-3.08h1.44v3.08h2.1v1.1h-2.1v6a1.6,1.6,0,0,0,.32,1.06,1.28,1.28,0,0,0,1,.38h.76v1.24Z"/><path class="cls-24" d="M1541.87,130.89a3.8,3.8,0,0,0,.74,2.5,2.67,2.67,0,0,0,2.16.88,3.32,3.32,0,0,0,1.43-.27,4.19,4.19,0,0,0,1.15-.85l1,.86a6.46,6.46,0,0,1-.75.67,4,4,0,0,1-.79.48,4.83,4.83,0,0,1-.93.29,5.59,5.59,0,0,1-1.13.1,5,5,0,0,1-1.77-.3,3.46,3.46,0,0,1-1.35-.92,4.31,4.31,0,0,1-.87-1.57,7.46,7.46,0,0,1-.31-2.25,5.73,5.73,0,0,1,1.08-3.72,4,4,0,0,1,5.94,0,5.28,5.28,0,0,1,1.06,3.48v.66Zm5.2-1.08c0-.2,0-.37,0-.52s0-.28,0-.4a2.21,2.21,0,0,0-.08-.35,2.78,2.78,0,0,0-.13-.37,2.25,2.25,0,0,0-.9-1.08,2.65,2.65,0,0,0-2.8,0,2.37,2.37,0,0,0-.9,1.08,4.72,4.72,0,0,0-.22.72,6,6,0,0,0-.08.92Z"/><path class="cls-24" d="M1557.07,127.47a2.88,2.88,0,0,0-.76-.56,2.45,2.45,0,0,0-.94-.16,2.42,2.42,0,0,0-1,.2,2,2,0,0,0-.74.56,2.65,2.65,0,0,0-.47.84,3.19,3.19,0,0,0-.17,1v6h-1.44v-9.84H1553v1.2a2.76,2.76,0,0,1,1.15-1,3.82,3.82,0,0,1,1.61-.35,3.89,3.89,0,0,1,1.27.2,2.91,2.91,0,0,1,1.09.72Z"/><path class="cls-24" d="M1396.23,161.31c-.32-.32-.59-.6-.82-.85a5.38,5.38,0,0,1-.62-.87,3,3,0,0,1-.35-1,8.93,8.93,0,0,1-.07-1V147.09a9.24,9.24,0,0,1,.07-1,3.17,3.17,0,0,1,.35-1,5.38,5.38,0,0,1,.62-.87c.23-.24.5-.53.82-.85l1,1-.61.62a3.14,3.14,0,0,0-.47.68,3.68,3.68,0,0,0-.32,1.62v10.2a3.68,3.68,0,0,0,.32,1.62,2.92,2.92,0,0,0,.47.68l.61.62Z"/><path class="cls-24" d="M1410.25,149.37a4.42,4.42,0,0,1-.32,1.74,3.61,3.61,0,0,1-.9,1.32,4,4,0,0,1-1.39.84,5.09,5.09,0,0,1-1.79.3h-3.78v5.86h-1.52V145.19h5.3a5.33,5.33,0,0,1,1.79.29,4,4,0,0,1,1.39.84,3.78,3.78,0,0,1,.9,1.32A4.37,4.37,0,0,1,1410.25,149.37Zm-1.52,0a2.62,2.62,0,0,0-.84-2.12,3.32,3.32,0,0,0-2.18-.7h-3.64v5.66h3.64a3.22,3.22,0,0,0,2.18-.71A2.62,2.62,0,0,0,1408.73,149.37Z"/><path class="cls-24" d="M1419.11,159.43v-1.1a3.24,3.24,0,0,1-1.23.91,3.77,3.77,0,0,1-1.55.31,3.42,3.42,0,0,1-2.54-.92,3.19,3.19,0,0,1-.76-1.21,4.67,4.67,0,0,1-.24-1.55v-6.28h1.44v6.06a2.73,2.73,0,0,0,.64,2,2.35,2.35,0,0,0,1.76.65,2.42,2.42,0,0,0,1.79-.66,2.62,2.62,0,0,0,.67-2v-6.06h1.46v9.84Z"/><path class="cls-24" d="M1432,154.51a11.13,11.13,0,0,1,0,1.16,6.83,6.83,0,0,1-.18,1.13,4.33,4.33,0,0,1-.36,1,2.87,2.87,0,0,1-.61.86,2.6,2.6,0,0,1-1,.63,4,4,0,0,1-1.38.23,4.3,4.3,0,0,1-1.5-.26,3,3,0,0,1-1.28-1v1.18h-1.44V145.19h1.44v5.54a3.09,3.09,0,0,1,1.28-1,4.54,4.54,0,0,1,1.5-.25,4,4,0,0,1,1.38.23,2.6,2.6,0,0,1,1,.63,2.87,2.87,0,0,1,.61.86,4.33,4.33,0,0,1,.36,1,7,7,0,0,1,.18,1.13A11.37,11.37,0,0,1,1432,154.51Zm-1.44,0a10.65,10.65,0,0,0-.08-1.4,3.43,3.43,0,0,0-.34-1.2,2.09,2.09,0,0,0-.75-.84,2.32,2.32,0,0,0-1.29-.32,2.37,2.37,0,0,0-1.29.32,2.25,2.25,0,0,0-.75.84,3.92,3.92,0,0,0-.35,1.2,10.93,10.93,0,0,0,0,2.8,3.76,3.76,0,0,0,.35,1.2,2.18,2.18,0,0,0,.75.84,2.29,2.29,0,0,0,1.29.32,2.24,2.24,0,0,0,1.29-.32,2,2,0,0,0,.75-.84,3.31,3.31,0,0,0,.34-1.2A10.65,10.65,0,0,0,1430.51,154.51Z"/><path class="cls-24" d="M1437.49,159.43a2.3,2.3,0,0,1-1.9-.75,2.89,2.89,0,0,1-.6-1.87V145.19h1.44v11.56a1.79,1.79,0,0,0,.28,1.08,1.27,1.27,0,0,0,1,.36h.78v1.24Z"/><path class="cls-24" d="M1440.89,146.79v-1.62h1.62v1.62Zm.08,12.64v-9.84h1.44v9.84Z"/><path class="cls-24" d="M1451.6,159.23a4.38,4.38,0,0,1-1.75.32,4.67,4.67,0,0,1-1.73-.31,3.77,3.77,0,0,1-1.38-.94,4.45,4.45,0,0,1-.92-1.58,7.53,7.53,0,0,1,0-4.41,4.5,4.5,0,0,1,.92-1.57,3.93,3.93,0,0,1,1.38-1,4.67,4.67,0,0,1,1.73-.32,4.38,4.38,0,0,1,1.75.32,4.6,4.6,0,0,1,1.49,1.14l-1,.92a3.54,3.54,0,0,0-1.06-.86,2.73,2.73,0,0,0-1.2-.24,3.06,3.06,0,0,0-1.3.28,2.7,2.7,0,0,0-1,.84,3.37,3.37,0,0,0-.49,1.09,6.71,6.71,0,0,0-.15,1.55,6.59,6.59,0,0,0,.15,1.55,3.28,3.28,0,0,0,.49,1.09,2.61,2.61,0,0,0,1,.84,2.92,2.92,0,0,0,1.3.28,2.6,2.6,0,0,0,1.2-.25,3.76,3.76,0,0,0,1.06-.87l1,.94A4.46,4.46,0,0,1,1451.6,159.23Z"/><path class="cls-24" d="M1461.07,159.43V145.19h8.84v1.36h-7.32v5h6.24v1.36h-6.24v5.14h7.32v1.36Z"/><path class="cls-24" d="M1479.11,159.43v-6.06a2.65,2.65,0,0,0-.65-2,2.73,2.73,0,0,0-3.55,0,2.65,2.65,0,0,0-.66,2v6.06h-1.44v-9.84h1.44v1.08a3.43,3.43,0,0,1,1.22-.9,3.88,3.88,0,0,1,1.54-.3,3.41,3.41,0,0,1,2.52.92,3.67,3.67,0,0,1,1,2.74v6.3Z"/><path class="cls-24" d="M1489.93,159.43v-1.18a3,3,0,0,1-1.29,1,4.31,4.31,0,0,1-1.51.26,4.08,4.08,0,0,1-1.38-.23,2.76,2.76,0,0,1-1-.63,3.27,3.27,0,0,1-.61-.86,5.44,5.44,0,0,1-.36-1,9.88,9.88,0,0,1-.18-1.13c0-.38,0-.77,0-1.16s0-.77,0-1.16a10.24,10.24,0,0,1,.18-1.13,5.44,5.44,0,0,1,.36-1,3.27,3.27,0,0,1,.61-.86,2.76,2.76,0,0,1,1-.63,4.08,4.08,0,0,1,1.38-.23,4.45,4.45,0,0,1,1.5.25,3,3,0,0,1,1.28,1v-5.54h1.46v14.24Zm0-4.92a10.65,10.65,0,0,0-.08-1.4,3.43,3.43,0,0,0-.34-1.2,2.09,2.09,0,0,0-.75-.84,2.32,2.32,0,0,0-1.29-.32,2.37,2.37,0,0,0-1.29.32,2.25,2.25,0,0,0-.75.84,3.92,3.92,0,0,0-.35,1.2,10.93,10.93,0,0,0,0,2.8,3.76,3.76,0,0,0,.35,1.2,2.18,2.18,0,0,0,.75.84,2.29,2.29,0,0,0,1.29.32,2.24,2.24,0,0,0,1.29-.32,2,2,0,0,0,.75-.84,3.31,3.31,0,0,0,.34-1.2A10.65,10.65,0,0,0,1489.91,154.51Z"/><path class="cls-24" d="M1502.77,154.51a11.13,11.13,0,0,1,0,1.16,6.83,6.83,0,0,1-.18,1.13,4.33,4.33,0,0,1-.36,1,2.87,2.87,0,0,1-.61.86,2.6,2.6,0,0,1-1,.63,4,4,0,0,1-1.38.23,4.3,4.3,0,0,1-1.5-.26,3,3,0,0,1-1.28-1v5.56H1495V149.59h1.44v1.16a3,3,0,0,1,1.28-1,4.54,4.54,0,0,1,1.5-.25,4,4,0,0,1,1.38.23,2.6,2.6,0,0,1,1,.63,2.87,2.87,0,0,1,.61.86,4.33,4.33,0,0,1,.36,1,7,7,0,0,1,.18,1.13A11.37,11.37,0,0,1,1502.77,154.51Zm-1.44,0a10.65,10.65,0,0,0-.08-1.4,3.43,3.43,0,0,0-.34-1.2,2.09,2.09,0,0,0-.75-.84,2.32,2.32,0,0,0-1.29-.32,2.37,2.37,0,0,0-1.29.32,2.25,2.25,0,0,0-.75.84,3.92,3.92,0,0,0-.35,1.2,10.93,10.93,0,0,0,0,2.8,3.76,3.76,0,0,0,.35,1.2,2.18,2.18,0,0,0,.75.84,2.29,2.29,0,0,0,1.29.32,2.24,2.24,0,0,0,1.29-.32,2,2,0,0,0,.75-.84,3.31,3.31,0,0,0,.34-1.2A10.65,10.65,0,0,0,1501.33,154.51Z"/><path class="cls-24" d="M1513.37,154.51a9.27,9.27,0,0,1-.23,2.15,3.57,3.57,0,0,1-1,1.77,3.69,3.69,0,0,1-1.22.82,4.42,4.42,0,0,1-3.2,0,3.91,3.91,0,0,1-1.22-.82,3.48,3.48,0,0,1-.61-.83,5.07,5.07,0,0,1-.36-.94,8.18,8.18,0,0,1-.18-1c0-.36-.05-.73-.05-1.12s0-.74.05-1.11a8.35,8.35,0,0,1,.18-1,5.36,5.36,0,0,1,.36-.94,3.69,3.69,0,0,1,.61-.83,4.09,4.09,0,0,1,1.22-.82,4.42,4.42,0,0,1,3.2,0,3.85,3.85,0,0,1,1.22.82,3.61,3.61,0,0,1,1,1.77A9.33,9.33,0,0,1,1513.37,154.51Zm-1.44,0c0-.28,0-.56,0-.84a4.48,4.48,0,0,0-.1-.82,3,3,0,0,0-.24-.75,2.17,2.17,0,0,0-.42-.63,2.59,2.59,0,0,0-3.58,0,2.2,2.2,0,0,0-.43.63,4.12,4.12,0,0,0-.24.75,5.58,5.58,0,0,0-.11.82c0,.28,0,.56,0,.84s0,.56,0,.84a5.4,5.4,0,0,0,.11.82,4.5,4.5,0,0,0,.24.76,1.82,1.82,0,0,0,.43.62,2.59,2.59,0,0,0,3.58,0,1.79,1.79,0,0,0,.42-.62,3.21,3.21,0,0,0,.24-.76,4.38,4.38,0,0,0,.1-.82C1511.93,155.07,1511.93,154.79,1511.93,154.51Z"/><path class="cls-24" d="M1516.37,146.79v-1.62H1518v1.62Zm.08,12.64v-9.84h1.44v9.84Z"/><path class="cls-24" d="M1527.81,159.43v-6.06a2.65,2.65,0,0,0-.65-2,2.73,2.73,0,0,0-3.55,0,2.65,2.65,0,0,0-.66,2v6.06h-1.44v-9.84H1523v1.08a3.43,3.43,0,0,1,1.22-.9,3.88,3.88,0,0,1,1.54-.3,3.41,3.41,0,0,1,2.52.92,3.67,3.67,0,0,1,1,2.74v6.3Z"/><path class="cls-24" d="M1535.51,159.43a2.75,2.75,0,0,1-1.11-.21,2.25,2.25,0,0,1-.78-.57,2.65,2.65,0,0,1-.47-.84,3.4,3.4,0,0,1-.16-1v-6h-1.24v-1.1H1533v-3.08h1.44v3.08h2.1v1.1h-2.1v6a1.6,1.6,0,0,0,.32,1.06,1.29,1.29,0,0,0,1,.38h.76v1.24Z"/><path class="cls-24" d="M1541.63,158.57a2.62,2.62,0,0,1-.34,1,4.38,4.38,0,0,1-.62.87c-.22.25-.5.53-.82.85l-1-1,.62-.62a2.44,2.44,0,0,0,.48-.68,2.06,2.06,0,0,0,.22-.7,6,6,0,0,0,.06-.88v-10.2a6,6,0,0,0-.06-.88,2.06,2.06,0,0,0-.22-.7,2.6,2.6,0,0,0-.48-.68l-.62-.62,1-1c.32.32.6.61.82.85a4.38,4.38,0,0,1,.62.87,2.73,2.73,0,0,1,.34,1,9.2,9.2,0,0,1,.06,1v10.44A8.94,8.94,0,0,1,1541.63,158.57Z"/><line class="cls-25" x1="344" y1="180" x2="669.88" y2="180"/><polygon class="cls-26" points="684 180 664.1 188.13 668.82 180 664.1 171.87 684 180"/><text class="cls-15" transform="translate(367.93 849.43)">2.9 Redi<tspan class="cls-27" x="44.34" y="0">r</tspan><tspan x="49.17" y="0">ect th</tspan><tspan class="cls-28" x="80.36" y="0">r</tspan><tspan x="85.2" y="0">ough </tspan><tspan class="cls-29" x="115.77" y="0">c</tspan><tspan x="121.75" y="0">a</tspan><tspan class="cls-28" x="128.32" y="0">r</tspan><tspan x="133.16" y="0">dholder b</tspan><tspan class="cls-28" x="185.96" y="0">r</tspan><tspan class="cls-30" x="190.8" y="0">o</tspan><tspan class="cls-31" x="197.36" y="0">wser </tspan><tspan class="cls-32" x="227.61" y="0">t</tspan><tspan x="231.66" y="0">o </tspan><tspan class="cls-32" x="241.4" y="0">t</tspan><tspan x="245.45" y="0">ermURL</tspan></text><line class="cls-25" x1="344" y1="858" x2="669.88" y2="858"/><polygon class="cls-26" points="684 858 664.1 866.13 668.82 858 664.1 849.87 684 858"/><text class="cls-15" transform="translate(820.89 849.43)">3.1 Check-pa<tspan class="cls-33" x="72.69" y="0">y</tspan><tspan x="78.15" y="0">er-</tspan><tspan class="cls-28" x="95.36" y="0">r</tspan><tspan x="100.2" y="0">esponse</tspan></text><line class="cls-25" x1="724" y1="858" x2="1049.88" y2="858"/><polygon class="cls-26" points="1064 858 1044.1 866.13 1048.82 858 1044.1 849.87 1064 858"/><text class="cls-15" transform="translate(825.66 342.43)">2.1 POST HTTPS <tspan class="cls-28" x="93.59" y="0">r</tspan><tspan x="98.42" y="0">edi</tspan><tspan class="cls-28" x="115.02" y="0">r</tspan><tspan x="119.86" y="0">ect</tspan></text><line class="cls-25" x1="344" y1="351" x2="1439.88" y2="351"/><polygon class="cls-26" points="1454 351 1434.1 359.13 1438.82 351 1434.1 342.87 1454 351"/><text class="cls-15" transform="translate(818.23 538.43)">2.5 3DS method <tspan class="cls-34" x="90.27" y="0">c</tspan><tspan x="96.21" y="0">omp</tspan><tspan class="cls-35" x="120.64" y="0">l</tspan><tspan x="124.04" y="0">etion</tspan></text><line class="cls-25" x1="344" y1="547" x2="1439.88" y2="547"/><polygon class="cls-26" points="1454 547 1434.1 555.13 1438.82 547 1434.1 538.87 1454 547"/><text class="cls-15" transform="translate(742.69 732.43)">2.8 Chal<tspan class="cls-36" x="44.81" y="0">l</tspan><tspan x="48.21" y="0">enge </tspan><tspan class="cls-28" x="78.39" y="0">r</tspan><tspan x="83.22" y="0">esponse </tspan><tspan class="cls-32" x="132.45" y="0">t</tspan><tspan x="136.5" y="0">o URL of Wi</tspan><tspan class="cls-28" x="200.75" y="0">r</tspan><tspan x="205.58" y="0">e</tspan><tspan class="cls-37" x="212.21" y="0">c</tspan><tspan class="cls-31" x="218.18" y="0">a</tspan><tspan class="cls-28" x="224.76" y="0">r</tspan><tspan x="229.6" y="0">d 3DS Rou</tspan><tspan class="cls-32" x="286.77" y="0">t</tspan><tspan x="290.82" y="0">er</tspan></text><line class="cls-25" x1="344" y1="741" x2="1439.88" y2="741"/><polygon class="cls-26" points="1454 741 1434.1 749.13 1438.82 741 1434.1 732.87 1454 741"/><text class="cls-38" transform="translate(746.86 398.43)">2.3 Return HTML with scheme <tspan class="cls-39" x="156.16" y="0">l</tspan><tspan x="159.12" y="0">ogo and p</tspan><tspan class="cls-40" x="208.11" y="0">r</tspan><tspan x="212.45" y="0">o</tspan><tspan class="cls-41" x="218.57" y="0">c</tspan><tspan x="224.01" y="0">e</tspan><tspan class="cls-42" x="230.13" y="0">s</tspan><tspan x="235.63" y="0">sing sc</tspan><tspan class="cls-40" x="270.75" y="0">r</tspan><tspan x="275.08" y="0">een</tspan></text><line class="cls-43" x1="1454" y1="407" x2="358.12" y2="407"/><polygon class="cls-26" points="344 407 363.9 398.87 359.18 407 363.9 415.13 344 407"/><text class="cls-38" transform="translate(703.33 593.43)">2.7 Display Chal<tspan class="cls-44" x="80.39" y="0">l</tspan><tspan x="83.29" y="0">enge Wind</tspan><tspan class="cls-45" x="136.64" y="0">o</tspan><tspan class="cls-46" x="142.7" y="0">ws (lightb</tspan><tspan class="cls-39" x="191.43" y="0">o</tspan><tspan x="197.31" y="0">x/page/if</tspan><tspan class="cls-47" x="241.55" y="0">r</tspan><tspan x="246.18" y="0">ame) POST </tspan><tspan class="cls-40" x="305.52" y="0">r</tspan><tspan x="309.86" y="0">edi</tspan><tspan class="cls-40" x="324.96" y="0">r</tspan><tspan x="329.3" y="0">ect </tspan><tspan class="cls-48" x="347.31" y="0">t</tspan><tspan x="350.86" y="0">o </tspan><tspan class="cls-47" x="359.59" y="0">A</tspan><tspan x="366.61" y="0">CS</tspan></text><line class="cls-43" x1="1454" y1="602" x2="358.12" y2="602"/><polygon class="cls-26" points="344 602 363.9 593.87 359.18 602 363.9 610.13 344 602"/><text class="cls-38" transform="translate(823.59 787.43)">2.9 Authenti<tspan class="cls-49" x="60.34" y="0">c</tspan><tspan x="65.81" y="0">ation </tspan><tspan class="cls-40" x="93.46" y="0">r</tspan><tspan x="97.8" y="0">esponse</tspan></text><line class="cls-43" x1="1454" y1="796" x2="358.12" y2="796"/><polygon class="cls-26" points="344 796 363.9 787.87 359.18 796 363.9 804.13 344 796"/><text class="cls-38" transform="translate(728.4 446.43)">2.4 Redi<tspan class="cls-40" x="40.34" y="0">r</tspan><tspan class="cls-50" x="44.67" y="0">ect </tspan><tspan class="cls-51" x="62.69" y="0">c</tspan><tspan x="68.16" y="0">a</tspan><tspan class="cls-40" x="74.24" y="0">r</tspan><tspan x="78.57" y="0">dholder </tspan><tspan class="cls-48" x="120.56" y="0">t</tspan><tspan x="124.11" y="0">o 3DSMethodUrl </tspan><tspan class="cls-52" x="210.7" y="0">f</tspan><tspan x="213.88" y="0">or d</tspan><tspan class="cls-53" x="233.7" y="0">e</tspan><tspan class="cls-46" x="239.7" y="0">vi</tspan><tspan class="cls-41" x="247.45" y="0">c</tspan><tspan x="252.88" y="0">e fingerprinting</tspan></text><line class="cls-43" x1="1454" y1="455" x2="358.12" y2="455"/><polygon class="cls-26" points="344 455 363.9 446.87 359.18 455 363.9 463.13 344 455"/><text class="cls-15" transform="translate(833.73 190.43)">1.2 Check-en<tspan class="cls-28" x="72.95" y="0">r</tspan><tspan x="77.79" y="0">ollment</tspan></text><path class="cls-54" d="M1216.9,243.43v-7.9l-1.66,1.46v-1l1.66-1.44h.9v8.9Z"/><path class="cls-54" d="M1221.3,243.43v-1.17h1.17v1.17Z"/><path class="cls-54" d="M1229.33,241a2.68,2.68,0,0,1-.21,1.09,2.34,2.34,0,0,1-1.39,1.27,3.4,3.4,0,0,1-1,.16,3.53,3.53,0,0,1-1-.14,2.26,2.26,0,0,1-.81-.43,2.36,2.36,0,0,1-.57-.74,2.7,2.7,0,0,1-.24-1h.9a1.9,1.9,0,0,0,.18.71,1.5,1.5,0,0,0,.38.48,1.77,1.77,0,0,0,.53.27,2.16,2.16,0,0,0,.62.09,1.74,1.74,0,0,0,1.22-.45,1.65,1.65,0,0,0,.5-1.28,1.78,1.78,0,0,0-.42-1.26,1.72,1.72,0,0,0-1.33-.46h-.19v-.8h.19a1.52,1.52,0,0,0,1.2-.43,1.69,1.69,0,0,0,.38-1.18,1.5,1.5,0,0,0-1.55-1.62,1.56,1.56,0,0,0-1.12.4,1.65,1.65,0,0,0-.48,1.09h-.9a2.61,2.61,0,0,1,.25-1,2.24,2.24,0,0,1,.53-.72,2.2,2.2,0,0,1,.77-.45,2.91,2.91,0,0,1,1-.16,2.73,2.73,0,0,1,1,.18,2.26,2.26,0,0,1,.77.49,2.14,2.14,0,0,1,.5.76,2.63,2.63,0,0,1,.18,1,2,2,0,0,1-1.2,2A2.1,2.1,0,0,1,1229.33,241Z"/><path class="cls-54" d="M1240,242a3,3,0,0,1-.67.83,3.32,3.32,0,0,1-.92.52,3.4,3.4,0,0,1-1.11.18,3.24,3.24,0,0,1-1.25-.24,3.11,3.11,0,0,1-1-.69,2.37,2.37,0,0,1-.48-.65,2.88,2.88,0,0,1-.25-.75,5.33,5.33,0,0,1-.1-1c0-.36,0-.77,0-1.25s0-.89,0-1.24a5.23,5.23,0,0,1,.1-1,3,3,0,0,1,.25-.76,2.53,2.53,0,0,1,.48-.65,3.11,3.11,0,0,1,1-.69,3.51,3.51,0,0,1,2.36-.05,2.88,2.88,0,0,1,.92.52,2.75,2.75,0,0,1,.67.83,3.53,3.53,0,0,1,.38,1.12h-1a2.39,2.39,0,0,0-.73-1.32,2,2,0,0,0-1.38-.48,2.22,2.22,0,0,0-.85.16,1.94,1.94,0,0,0-.69.46,1.82,1.82,0,0,0-.34.46,2.15,2.15,0,0,0-.19.59,5.68,5.68,0,0,0-.08.82c0,.32,0,.72,0,1.18s0,.86,0,1.18a6,6,0,0,0,.08.83,2.27,2.27,0,0,0,.19.59,1.78,1.78,0,0,0,.34.45,1.82,1.82,0,0,0,.69.46,2.22,2.22,0,0,0,.85.17,2.07,2.07,0,0,0,1.39-.49,2.32,2.32,0,0,0,.74-1.31h.95A3.61,3.61,0,0,1,1240,242Z"/><path class="cls-54" d="M1246.24,243.43v-3.8a1.71,1.71,0,0,0-.4-1.22,1.72,1.72,0,0,0-2.22,0,1.62,1.62,0,0,0-.42,1.21v3.8h-.9v-8.9h.9V238a2.19,2.19,0,0,1,1.72-.75,2.14,2.14,0,0,1,1.64.61,2.35,2.35,0,0,1,.58,1.66v4Z"/><path class="cls-54" d="M1249.89,240.59a2.32,2.32,0,0,0,.46,1.56,1.66,1.66,0,0,0,1.35.56,2.08,2.08,0,0,0,.89-.17,2.55,2.55,0,0,0,.72-.53l.61.53a4.38,4.38,0,0,1-.46.42,2.55,2.55,0,0,1-.5.3,2.46,2.46,0,0,1-.58.18,3.11,3.11,0,0,1-.71.07,3.21,3.21,0,0,1-1.1-.19,2.26,2.26,0,0,1-.85-.58,2.63,2.63,0,0,1-.54-1,4.47,4.47,0,0,1-.19-1.4,3.59,3.59,0,0,1,.67-2.33,2.26,2.26,0,0,1,1.85-.82,2.29,2.29,0,0,1,1.87.8,3.31,3.31,0,0,1,.66,2.17v.41Zm3.25-.67c0-.13,0-.23,0-.33l0-.25a1.6,1.6,0,0,0,0-.21c0-.08,0-.15-.08-.24a1.46,1.46,0,0,0-.56-.67,1.66,1.66,0,0,0-1.75,0,1.48,1.48,0,0,0-.57.67,2.66,2.66,0,0,0-.13.45,3.78,3.78,0,0,0,0,.58Z"/><path class="cls-54" d="M1259.43,243.31a2.75,2.75,0,0,1-1.09.2,2.88,2.88,0,0,1-1.08-.2,2.42,2.42,0,0,1-.87-.58,3,3,0,0,1-.57-1,4.17,4.17,0,0,1-.21-1.38,4.09,4.09,0,0,1,.21-1.38,2.85,2.85,0,0,1,.57-1,2.44,2.44,0,0,1,.87-.59,2.7,2.7,0,0,1,1.08-.2,2.59,2.59,0,0,1,1.09.2,3,3,0,0,1,.93.71l-.61.57a2.43,2.43,0,0,0-.66-.53,1.73,1.73,0,0,0-.75-.15,1.78,1.78,0,0,0-.81.17,1.58,1.58,0,0,0-.62.53,1.91,1.91,0,0,0-.3.68,3.7,3.7,0,0,0-.1,1,3.8,3.8,0,0,0,.1,1,2,2,0,0,0,.3.68,1.55,1.55,0,0,0,.62.52,1.79,1.79,0,0,0,.81.18,1.73,1.73,0,0,0,.75-.16,2.3,2.3,0,0,0,.66-.54l.61.58A3,3,0,0,1,1259.43,243.31Z"/><path class="cls-54" d="M1266.13,243.43l-2-3.15-1.2,1.38v1.77h-.9v-8.9h.9v5.95l2.78-3.2h1.13l-2.09,2.35,2.45,3.8Z"/><path class="cls-54" d="M1273.61,243.43a1.6,1.6,0,0,1-.69-.13,1.42,1.42,0,0,1-.78-.88,1.91,1.91,0,0,1-.1-.64V238h-.78v-.69h.78v-1.93h.9v1.93h1.31V238h-1.31v3.75a1,1,0,0,0,.2.66.77.77,0,0,0,.63.24h.48v.77Z"/><path class="cls-54" d="M1280,243.43v-3.8a1.66,1.66,0,0,0-.4-1.22,1.46,1.46,0,0,0-1.1-.4,1.48,1.48,0,0,0-1.11.41,1.62,1.62,0,0,0-.42,1.21v3.8h-.9v-8.9h.9V238a2.18,2.18,0,0,1,1.72-.75,2.12,2.12,0,0,1,1.63.61,2.3,2.3,0,0,1,.58,1.66v4Z"/><path class="cls-54" d="M1283.62,240.59a2.33,2.33,0,0,0,.47,1.56,1.64,1.64,0,0,0,1.35.56,2.14,2.14,0,0,0,.89-.17,2.55,2.55,0,0,0,.72-.53l.61.53a4.44,4.44,0,0,1-.47.42,2.48,2.48,0,0,1-.49.3,2.62,2.62,0,0,1-.58.18,3.11,3.11,0,0,1-.71.07,3.23,3.23,0,0,1-1.11-.19,2.31,2.31,0,0,1-.84-.58,2.63,2.63,0,0,1-.54-1,4.45,4.45,0,0,1-.2-1.4,3.59,3.59,0,0,1,.68-2.33,2.53,2.53,0,0,1,3.71,0,3.31,3.31,0,0,1,.66,2.17v.41Zm3.25-.67a3.08,3.08,0,0,0,0-.33l0-.25c0-.07,0-.14,0-.21s0-.15-.08-.24a1.48,1.48,0,0,0-.57-.67,1.53,1.53,0,0,0-.87-.25,1.56,1.56,0,0,0-.88.25,1.52,1.52,0,0,0-.56.67,2.8,2.8,0,0,0-.14.45,5.71,5.71,0,0,0-.05.58Z"/><path class="cls-54" d="M1297.24,241.63a1.6,1.6,0,0,1-.19.8,1.75,1.75,0,0,1-.51.58,2.14,2.14,0,0,1-.79.37,3.92,3.92,0,0,1-1,.13,4.54,4.54,0,0,1-1.4-.2,3.11,3.11,0,0,1-1.13-.69l.6-.6a2,2,0,0,0,.85.55,3.32,3.32,0,0,0,1.06.16,2.27,2.27,0,0,0,1.2-.27.9.9,0,0,0,.44-.82.81.81,0,0,0-.24-.62,1.37,1.37,0,0,0-.78-.28l-1-.08a2.31,2.31,0,0,1-1.36-.48,1.45,1.45,0,0,1-.47-1.17,1.62,1.62,0,0,1,.63-1.32,2.21,2.21,0,0,1,.72-.36,3.28,3.28,0,0,1,.91-.12,4.41,4.41,0,0,1,1.23.16,2.6,2.6,0,0,1,1,.5l-.59.59a2.06,2.06,0,0,0-.74-.37,3.24,3.24,0,0,0-.89-.12,1.67,1.67,0,0,0-1,.27.9.9,0,0,0-.35.74.79.79,0,0,0,.25.63,1.35,1.35,0,0,0,.83.27l1,.09a3.24,3.24,0,0,1,.74.14,1.4,1.4,0,0,1,.58.3,1.45,1.45,0,0,1,.37.5A1.93,1.93,0,0,1,1297.24,241.63Z"/><path class="cls-54" d="M1302.89,243.43v-.69a2.24,2.24,0,0,1-.77.57,2.4,2.4,0,0,1-1,.2,2.17,2.17,0,0,1-1.59-.58,2,2,0,0,1-.47-.75,3,3,0,0,1-.15-1v-3.93h.9v3.79a1.67,1.67,0,0,0,.4,1.23,1.46,1.46,0,0,0,1.1.41,1.52,1.52,0,0,0,1.12-.42,1.66,1.66,0,0,0,.41-1.22v-3.79h.92v6.15Z"/><path class="cls-54" d="M1310.91,240.36q0,.36,0,.72a5.52,5.52,0,0,1-.11.71,3.23,3.23,0,0,1-.23.64,1.83,1.83,0,0,1-.38.54,1.65,1.65,0,0,1-.64.39,2.31,2.31,0,0,1-.86.15,2.62,2.62,0,0,1-.94-.17,1.91,1.91,0,0,1-.8-.63v3.47h-.9v-8.9h.9V238a1.89,1.89,0,0,1,.8-.65,2.85,2.85,0,0,1,.94-.15,2.32,2.32,0,0,1,.86.14,1.92,1.92,0,0,1,.64.39,1.83,1.83,0,0,1,.38.54,3.33,3.33,0,0,1,.23.65,5.12,5.12,0,0,1,.11.7C1310.9,239.87,1310.91,240.12,1310.91,240.36Zm-.9,0a8.49,8.49,0,0,0,0-.88,2.18,2.18,0,0,0-.21-.75,1.56,1.56,0,0,0-2.08-.52,1.31,1.31,0,0,0-.47.52,2.44,2.44,0,0,0-.22.75,6.4,6.4,0,0,0-.06.88,6.15,6.15,0,0,0,.06.87,2.28,2.28,0,0,0,.22.75,1.33,1.33,0,0,0,.47.53,1.72,1.72,0,0,0,1.61,0,1.41,1.41,0,0,0,.47-.53,2.06,2.06,0,0,0,.21-.75A8.14,8.14,0,0,0,1310,240.36Z"/><path class="cls-54" d="M1317.72,240.36q0,.36,0,.72a5.52,5.52,0,0,1-.11.71,3.22,3.22,0,0,1-.22.64,2.07,2.07,0,0,1-.39.54,1.61,1.61,0,0,1-.63.39,2.41,2.41,0,0,1-.87.15,2.52,2.52,0,0,1-.93-.17,1.85,1.85,0,0,1-.8-.63v3.47h-.9v-8.9h.9V238a1.83,1.83,0,0,1,.8-.65,2.75,2.75,0,0,1,.93-.15,2.41,2.41,0,0,1,.87.14,1.87,1.87,0,0,1,.63.39,2.07,2.07,0,0,1,.39.54,3.31,3.31,0,0,1,.22.65,5.12,5.12,0,0,1,.11.7C1317.71,239.87,1317.72,240.12,1317.72,240.36Zm-.9,0a6.4,6.4,0,0,0,0-.88,2.18,2.18,0,0,0-.21-.75,1.31,1.31,0,0,0-.47-.52,1.44,1.44,0,0,0-2.08.52,2.44,2.44,0,0,0-.22.75,8.49,8.49,0,0,0,0,.88,8.14,8.14,0,0,0,0,.87,2.28,2.28,0,0,0,.22.75,1.41,1.41,0,0,0,.47.53,1.72,1.72,0,0,0,1.61,0,1.33,1.33,0,0,0,.47-.53,2.06,2.06,0,0,0,.21-.75A6.17,6.17,0,0,0,1316.82,240.36Z"/><path class="cls-54" d="M1324.35,240.36a6.4,6.4,0,0,1-.14,1.34,2.35,2.35,0,0,1-.61,1.11,2.41,2.41,0,0,1-1.76.7,2.46,2.46,0,0,1-1.77-.7,2.39,2.39,0,0,1-.38-.52,3.23,3.23,0,0,1-.22-.59,3.29,3.29,0,0,1-.11-.64,6.14,6.14,0,0,1,0-1.4,3.39,3.39,0,0,1,.11-.65,2.89,2.89,0,0,1,.22-.58,2.17,2.17,0,0,1,.38-.52,2.43,2.43,0,0,1,.77-.52,2.59,2.59,0,0,1,1-.18,2.66,2.66,0,0,1,1,.18,2.51,2.51,0,0,1,.76.52,2.27,2.27,0,0,1,.61,1.1A6.43,6.43,0,0,1,1324.35,240.36Zm-.9,0c0-.18,0-.35,0-.53a3,3,0,0,0-.07-.51,1.84,1.84,0,0,0-.15-.47,1.16,1.16,0,0,0-.26-.39,1.62,1.62,0,0,0-2.24,0,1.16,1.16,0,0,0-.26.39,2.36,2.36,0,0,0-.16.47,3,3,0,0,0-.06.51c0,.18,0,.35,0,.53s0,.35,0,.52a2.74,2.74,0,0,0,.06.51,2.46,2.46,0,0,0,.16.48,1.16,1.16,0,0,0,.26.39,1.62,1.62,0,0,0,2.24,0,1.16,1.16,0,0,0,.26-.39,1.92,1.92,0,0,0,.15-.48,2.73,2.73,0,0,0,.07-.51C1323.45,240.71,1323.45,240.53,1323.45,240.36Z"/><path class="cls-54" d="M1329.71,238.46a1.5,1.5,0,0,0-.47-.35,1.42,1.42,0,0,0-.59-.1,1.48,1.48,0,0,0-.61.12,1.26,1.26,0,0,0-.47.35,1.8,1.8,0,0,0-.29.53,1.93,1.93,0,0,0-.11.65v3.77h-.9v-6.15h.9V238a1.64,1.64,0,0,1,.72-.6,2.33,2.33,0,0,1,1-.22,2.43,2.43,0,0,1,.79.12,1.79,1.79,0,0,1,.68.45Z"/><path class="cls-54" d="M1333.26,243.43a1.6,1.6,0,0,1-.69-.13,1.42,1.42,0,0,1-.78-.88,1.91,1.91,0,0,1-.1-.64V238h-.78v-.69h.78v-1.93h.9v1.93h1.31V238h-1.31v3.75a1,1,0,0,0,.2.66.77.77,0,0,0,.63.24h.48v.77Z"/><path class="cls-54" d="M1336.15,240.59a2.32,2.32,0,0,0,.46,1.56,1.66,1.66,0,0,0,1.35.56,2.08,2.08,0,0,0,.89-.17,2.55,2.55,0,0,0,.72-.53l.62.53a5.71,5.71,0,0,1-.47.42,2.55,2.55,0,0,1-.5.3,2.46,2.46,0,0,1-.58.18,3.08,3.08,0,0,1-.7.07,3.23,3.23,0,0,1-1.11-.19,2.15,2.15,0,0,1-.84-.58,2.51,2.51,0,0,1-.55-1,4.47,4.47,0,0,1-.19-1.4,3.59,3.59,0,0,1,.67-2.33,2.26,2.26,0,0,1,1.85-.82,2.29,2.29,0,0,1,1.87.8,3.31,3.31,0,0,1,.66,2.17v.41Zm3.25-.67c0-.13,0-.23,0-.33a1.9,1.9,0,0,0,0-.25,1.6,1.6,0,0,0,0-.21c0-.08,0-.15-.08-.24a1.46,1.46,0,0,0-.56-.67,1.66,1.66,0,0,0-1.75,0,1.4,1.4,0,0,0-.56.67,2.06,2.06,0,0,0-.14.45,3.78,3.78,0,0,0,0,.58Z"/><path class="cls-54" d="M1345.89,243.43v-.74a1.79,1.79,0,0,1-.81.65,2.62,2.62,0,0,1-.94.17,2.41,2.41,0,0,1-.87-.15,1.61,1.61,0,0,1-.63-.39,2.07,2.07,0,0,1-.39-.54,3.22,3.22,0,0,1-.22-.64,5.52,5.52,0,0,1-.11-.71q0-.36,0-.72c0-.24,0-.49,0-.73a5.12,5.12,0,0,1,.11-.7,3.31,3.31,0,0,1,.22-.65,2.07,2.07,0,0,1,.39-.54,1.87,1.87,0,0,1,.63-.39,2.41,2.41,0,0,1,.87-.14,2.75,2.75,0,0,1,.93.15,1.93,1.93,0,0,1,.8.63v-3.46h.92v8.9Zm0-3.07a6.4,6.4,0,0,0,0-.88,2.18,2.18,0,0,0-.21-.75,1.31,1.31,0,0,0-.47-.52,1.44,1.44,0,0,0-2.08.52,2.44,2.44,0,0,0-.22.75,6.4,6.4,0,0,0,0,.88,6.17,6.17,0,0,0,0,.87,2.28,2.28,0,0,0,.22.75,1.41,1.41,0,0,0,.47.53,1.72,1.72,0,0,0,1.61,0,1.33,1.33,0,0,0,.47-.53,2.06,2.06,0,0,0,.21-.75A6.17,6.17,0,0,0,1345.87,240.36Z"/><path class="cls-54" d="M1356.76,241a2.68,2.68,0,0,1-.21,1.09,2.2,2.2,0,0,1-.55.78,2.31,2.31,0,0,1-.83.49,3.4,3.4,0,0,1-1,.16,3.53,3.53,0,0,1-1-.14,2.11,2.11,0,0,1-.81-.43,2.35,2.35,0,0,1-.81-1.78h.9a1.73,1.73,0,0,0,.17.71,1.53,1.53,0,0,0,.39.48,1.66,1.66,0,0,0,.53.27,2.06,2.06,0,0,0,.62.09,1.75,1.75,0,0,0,1.22-.45,1.64,1.64,0,0,0,.49-1.28,1.78,1.78,0,0,0-.42-1.26,1.7,1.7,0,0,0-1.33-.46h-.19v-.8h.19a1.54,1.54,0,0,0,1.21-.43,1.74,1.74,0,0,0,.38-1.18,1.53,1.53,0,0,0-.45-1.2,1.56,1.56,0,0,0-1.1-.42,1.59,1.59,0,0,0-1.13.4,1.69,1.69,0,0,0-.47,1.09h-.9a2.39,2.39,0,0,1,.78-1.68,2.2,2.2,0,0,1,.77-.45,2.91,2.91,0,0,1,1-.16,2.64,2.64,0,0,1,1,.18,2.21,2.21,0,0,1,.78.49,2.14,2.14,0,0,1,.5.76,2.63,2.63,0,0,1,.18,1,2,2,0,0,1-1.2,2A2.09,2.09,0,0,1,1356.76,241Z"/><path class="cls-54" d="M1365,238.88c0,.31,0,.64,0,1a6.63,6.63,0,0,1-.08,1,3.82,3.82,0,0,1-.26.95,2.33,2.33,0,0,1-.53.8,2.67,2.67,0,0,1-1,.61,3.74,3.74,0,0,1-1.28.21h-3v-8.9h3a3.74,3.74,0,0,1,1.28.21,2.7,2.7,0,0,1,1,.62,2.31,2.31,0,0,1,.53.77,3.24,3.24,0,0,1,.26.87,5.77,5.77,0,0,1,.08.94C1365,238.26,1365,238.57,1365,238.88Zm-1,0c0-.27,0-.55,0-.82a6.23,6.23,0,0,0,0-.77,3.78,3.78,0,0,0-.18-.7,1.71,1.71,0,0,0-.35-.56,1.86,1.86,0,0,0-.79-.5,2.93,2.93,0,0,0-1-.15h-1.94v7.2h1.94a3.22,3.22,0,0,0,1-.14,2,2,0,0,0,.79-.51,1.57,1.57,0,0,0,.35-.59,4.44,4.44,0,0,0,.18-.76,7.92,7.92,0,0,0,0-.85C1364.05,239.44,1364.05,239.16,1364.05,238.88Z"/><path class="cls-54" d="M1372.6,241a2.42,2.42,0,0,1-.22,1.06,2.11,2.11,0,0,1-.63.79,2.87,2.87,0,0,1-1,.5,4.17,4.17,0,0,1-1.26.18,4.64,4.64,0,0,1-1.71-.28,3.86,3.86,0,0,1-1.34-.9l.65-.65a3.14,3.14,0,0,0,1.12.76,3.49,3.49,0,0,0,1.31.22,2.54,2.54,0,0,0,1.54-.43,1.47,1.47,0,0,0,.56-1.22,1.83,1.83,0,0,0-.11-.64,1.23,1.23,0,0,0-.32-.48,1.34,1.34,0,0,0-.44-.26,3.79,3.79,0,0,0-.72-.16l-1-.16a3.35,3.35,0,0,1-1.64-.68,2.13,2.13,0,0,1-.67-1.66,2.63,2.63,0,0,1,.2-1,2.17,2.17,0,0,1,.57-.8,2.65,2.65,0,0,1,.89-.5,3.67,3.67,0,0,1,1.19-.18,4,4,0,0,1,1.46.23,3.72,3.72,0,0,1,1.19.74l-.61.61a2.83,2.83,0,0,0-.89-.56,3.14,3.14,0,0,0-1.19-.2,2,2,0,0,0-1.39.45,1.57,1.57,0,0,0-.48,1.2,1.3,1.3,0,0,0,.4,1,2.38,2.38,0,0,0,.53.3,3.46,3.46,0,0,0,.67.18l1,.15.56.11a3.17,3.17,0,0,1,.43.13,2.15,2.15,0,0,1,.34.17,1.66,1.66,0,0,1,.3.22A2.18,2.18,0,0,1,1372.6,241Z"/><path class="cls-54" d="M1232.31,258.43h-.8l-2.25-6.15h1l1.67,4.94,1.69-4.94h1Z"/><path class="cls-54" d="M1236.28,255.59a2.32,2.32,0,0,0,.46,1.56,1.65,1.65,0,0,0,1.35.56,2.11,2.11,0,0,0,.89-.17,2.55,2.55,0,0,0,.72-.53l.61.53a4.44,4.44,0,0,1-.47.42,2.22,2.22,0,0,1-.49.3,2.62,2.62,0,0,1-.58.18,3.11,3.11,0,0,1-.71.07,3.17,3.17,0,0,1-1.1-.19,2.26,2.26,0,0,1-.85-.58,2.63,2.63,0,0,1-.54-1,4.47,4.47,0,0,1-.19-1.4,3.59,3.59,0,0,1,.67-2.33,2.53,2.53,0,0,1,3.71,0,3.31,3.31,0,0,1,.66,2.17v.41Zm3.25-.67c0-.13,0-.23,0-.33l0-.25a1.6,1.6,0,0,0,0-.21c0-.08-.05-.15-.08-.24a1.52,1.52,0,0,0-.56-.67,1.58,1.58,0,0,0-.88-.25,1.51,1.51,0,0,0-.87.25,1.48,1.48,0,0,0-.57.67,4.39,4.39,0,0,0-.14.45,4,4,0,0,0,0,.58Z"/><path class="cls-54" d="M1245.78,253.46a1.52,1.52,0,0,0-.48-.35,1.42,1.42,0,0,0-.59-.1,1.51,1.51,0,0,0-.61.12,1.23,1.23,0,0,0-.46.35,1.62,1.62,0,0,0-.3.53,1.93,1.93,0,0,0-.1.65v3.77h-.9v-6.15h.9V253a1.54,1.54,0,0,1,.72-.6,2.25,2.25,0,0,1,1-.22,2.53,2.53,0,0,1,.8.12,2,2,0,0,1,.68.45Z"/><path class="cls-54" d="M1251.91,256.63a1.71,1.71,0,0,1-.18.8,1.75,1.75,0,0,1-.51.58,2.14,2.14,0,0,1-.79.37,4,4,0,0,1-1,.13,4.64,4.64,0,0,1-1.4-.2,3.07,3.07,0,0,1-1.12-.69l.6-.6a2,2,0,0,0,.85.55,3.27,3.27,0,0,0,1.06.16,2.27,2.27,0,0,0,1.2-.27.9.9,0,0,0,.44-.82.79.79,0,0,0-.25-.62,1.35,1.35,0,0,0-.78-.28l-1-.08a2.35,2.35,0,0,1-1.37-.48,1.48,1.48,0,0,1-.47-1.17,1.67,1.67,0,0,1,.17-.76,1.59,1.59,0,0,1,.47-.56,2.21,2.21,0,0,1,.72-.36,3.28,3.28,0,0,1,.91-.12,4.41,4.41,0,0,1,1.23.16,2.68,2.68,0,0,1,1,.5l-.59.59a2.15,2.15,0,0,0-.74-.37,3.26,3.26,0,0,0-.9-.12,1.63,1.63,0,0,0-1,.27.87.87,0,0,0-.35.74.82.82,0,0,0,.24.63,1.37,1.37,0,0,0,.83.27l1,.09a3.35,3.35,0,0,1,.74.14,1.42,1.42,0,0,1,.57.3,1.34,1.34,0,0,1,.37.5A1.75,1.75,0,0,1,1251.91,256.63Z"/><path class="cls-54" d="M1253.63,250.53v-1h1v1Zm0,7.9v-6.15h.9v6.15Z"/><path class="cls-54" d="M1261.54,255.36a5.79,5.79,0,0,1-.15,1.34,2.25,2.25,0,0,1-.6,1.11,2.46,2.46,0,0,1-1.77.7,2.41,2.41,0,0,1-1.76-.7,2.1,2.1,0,0,1-.38-.52,3.23,3.23,0,0,1-.22-.59,3.29,3.29,0,0,1-.12-.64c0-.23,0-.46,0-.7s0-.47,0-.7a3.4,3.4,0,0,1,.12-.65,2.89,2.89,0,0,1,.22-.58,1.93,1.93,0,0,1,.38-.52,2.51,2.51,0,0,1,.76-.52,2.66,2.66,0,0,1,1-.18,2.59,2.59,0,0,1,1,.18,2.43,2.43,0,0,1,.77.52,2.18,2.18,0,0,1,.6,1.1A5.82,5.82,0,0,1,1261.54,255.36Zm-.9,0c0-.18,0-.35,0-.53a3,3,0,0,0-.07-.51,1.84,1.84,0,0,0-.15-.47,1.16,1.16,0,0,0-.26-.39A1.54,1.54,0,0,0,1259,253a1.51,1.51,0,0,0-1.11.45,1.19,1.19,0,0,0-.27.39,3.23,3.23,0,0,0-.15.47,4.46,4.46,0,0,0-.07.51c0,.18,0,.35,0,.53s0,.35,0,.52a3.92,3.92,0,0,0,.07.51,3.37,3.37,0,0,0,.15.48,1.19,1.19,0,0,0,.27.39,1.51,1.51,0,0,0,1.11.45,1.54,1.54,0,0,0,1.13-.45,1.16,1.16,0,0,0,.26-.39,1.92,1.92,0,0,0,.15-.48,2.73,2.73,0,0,0,.07-.51C1260.63,255.71,1260.64,255.53,1260.64,255.36Z"/><path class="cls-54" d="M1267.4,258.43v-3.79a1.67,1.67,0,0,0-.41-1.23,1.72,1.72,0,0,0-2.22,0,1.66,1.66,0,0,0-.41,1.22v3.79h-.9v-6.15h.9V253a2.15,2.15,0,0,1,.77-.57,2.49,2.49,0,0,1,1-.18,2.13,2.13,0,0,1,1.57.57,2.28,2.28,0,0,1,.64,1.71v3.94Z"/><path class="cls-54" d="M1279.45,258.43h-.84l-1.61-4.77-1.6,4.77h-.84l-2-6.15h1l1.41,4.94,1.61-4.94h.78l1.62,4.94,1.4-4.94h1Z"/><path class="cls-54" d="M1282.6,250.53v-1h1v1Zm.05,7.9v-6.15h.9v6.15Z"/><path class="cls-54" d="M1287.54,258.43a1.68,1.68,0,0,1-.7-.13,1.35,1.35,0,0,1-.48-.36,1.58,1.58,0,0,1-.3-.52,2.2,2.2,0,0,1-.1-.64V253h-.77v-.69h.77v-1.93h.9v1.93h1.31V253h-1.31v3.75a1,1,0,0,0,.2.66.8.8,0,0,0,.64.24h.47v.77Z"/><path class="cls-54" d="M1293.9,258.43v-3.8a1.66,1.66,0,0,0-.4-1.22,1.47,1.47,0,0,0-1.1-.4,1.5,1.5,0,0,0-1.12.41,1.62,1.62,0,0,0-.42,1.21v3.8h-.9v-8.9h.9V253a2.2,2.2,0,0,1,1.73-.75,2.13,2.13,0,0,1,1.63.61,2.3,2.3,0,0,1,.58,1.66v4Z"/><path class="cls-54" d="M1304.72,256a2.68,2.68,0,0,1-.2,1.09,2.34,2.34,0,0,1-1.39,1.27,3.4,3.4,0,0,1-1,.16,3.53,3.53,0,0,1-1-.14,2.18,2.18,0,0,1-.81-.43,2.36,2.36,0,0,1-.57-.74,2.7,2.7,0,0,1-.24-1h.9a1.9,1.9,0,0,0,.17.71,1.53,1.53,0,0,0,.39.48,1.77,1.77,0,0,0,.53.27,2.11,2.11,0,0,0,.62.09,1.75,1.75,0,0,0,1.22-.45,1.64,1.64,0,0,0,.49-1.28,1.82,1.82,0,0,0-.41-1.26,1.73,1.73,0,0,0-1.34-.46h-.18v-.8h.18a1.53,1.53,0,0,0,1.21-.43,1.69,1.69,0,0,0,.38-1.18,1.53,1.53,0,0,0-.45-1.2,1.71,1.71,0,0,0-2.22,0,1.65,1.65,0,0,0-.48,1.09h-.9a2.61,2.61,0,0,1,.25-1,2.24,2.24,0,0,1,.53-.72,2.2,2.2,0,0,1,.77-.45,2.91,2.91,0,0,1,.95-.16,2.73,2.73,0,0,1,1,.18,2.26,2.26,0,0,1,.77.49,2.14,2.14,0,0,1,.5.76,2.63,2.63,0,0,1,.18,1,2,2,0,0,1-1.2,2A2.09,2.09,0,0,1,1304.72,256Z"/><path class="cls-54" d="M1313,253.88v1a8.26,8.26,0,0,1-.09,1,4.28,4.28,0,0,1-.25.95,2.48,2.48,0,0,1-.53.8,2.8,2.8,0,0,1-1,.61,3.68,3.68,0,0,1-1.27.21h-3v-8.9h3a3.68,3.68,0,0,1,1.27.21,2.83,2.83,0,0,1,1,.62,2.47,2.47,0,0,1,.53.77,3.63,3.63,0,0,1,.25.87,7.13,7.13,0,0,1,.09.94Zm-1,0v-.82c0-.27,0-.53-.06-.77a2.67,2.67,0,0,0-.18-.7,1.71,1.71,0,0,0-.35-.56,1.83,1.83,0,0,0-.78-.5,3,3,0,0,0-1-.15h-1.93v7.2h1.93a3.34,3.34,0,0,0,1-.14,2,2,0,0,0,.78-.51,1.57,1.57,0,0,0,.35-.59,3.13,3.13,0,0,0,.18-.76c0-.28,0-.56.06-.85Z"/><path class="cls-54" d="M1320.56,256a2.42,2.42,0,0,1-.22,1.06,2.08,2.08,0,0,1-.62.79,2.92,2.92,0,0,1-1,.5,4.15,4.15,0,0,1-1.25.18,4.66,4.66,0,0,1-1.72-.28,3.74,3.74,0,0,1-1.33-.9l.65-.65a3,3,0,0,0,1.11.76,3.49,3.49,0,0,0,1.31.22,2.54,2.54,0,0,0,1.54-.43,1.47,1.47,0,0,0,.56-1.22,1.62,1.62,0,0,0-.11-.64,1.21,1.21,0,0,0-.31-.48,1.38,1.38,0,0,0-.45-.26,3.61,3.61,0,0,0-.72-.16l-1-.16a3.31,3.31,0,0,1-1.64-.68,2.1,2.1,0,0,1-.68-1.66,2.63,2.63,0,0,1,.2-1,2.43,2.43,0,0,1,.57-.8,2.8,2.8,0,0,1,.9-.5,3.61,3.61,0,0,1,1.18-.18,4.05,4.05,0,0,1,1.47.23,3.79,3.79,0,0,1,1.18.74l-.61.61a2.72,2.72,0,0,0-.89-.56,3.09,3.09,0,0,0-1.18-.2,2,2,0,0,0-1.39.45,1.54,1.54,0,0,0-.49,1.2,1.3,1.3,0,0,0,.4,1,2.38,2.38,0,0,0,.53.3,3.67,3.67,0,0,0,.67.18l1,.15.55.11a3.17,3.17,0,0,1,.43.13,2.85,2.85,0,0,1,.35.17,2,2,0,0,1,.29.22A2.18,2.18,0,0,1,1320.56,256Z"/><path class="cls-54" d="M1331,256a2.42,2.42,0,0,1-.22,1.06,2.08,2.08,0,0,1-.62.79,3,3,0,0,1-1,.5,4.17,4.17,0,0,1-1.26.18,4.57,4.57,0,0,1-1.71-.28,3.69,3.69,0,0,1-1.34-.9l.65-.65a3.2,3.2,0,0,0,1.11.76,3.53,3.53,0,0,0,1.31.22,2.52,2.52,0,0,0,1.54-.43,1.44,1.44,0,0,0,.56-1.22,1.83,1.83,0,0,0-.1-.64,1.23,1.23,0,0,0-.32-.48,1.34,1.34,0,0,0-.44-.26,4,4,0,0,0-.72-.16l-1-.16a3.31,3.31,0,0,1-1.64-.68,2.1,2.1,0,0,1-.67-1.66,2.46,2.46,0,0,1,.2-1,2.27,2.27,0,0,1,.56-.8,2.8,2.8,0,0,1,.9-.5,3.63,3.63,0,0,1,1.19-.18,4,4,0,0,1,1.46.23,3.83,3.83,0,0,1,1.19.74l-.62.61a2.79,2.79,0,0,0-.88-.56,3.18,3.18,0,0,0-1.19-.2,2,2,0,0,0-1.39.45,1.57,1.57,0,0,0-.49,1.2,1.33,1.33,0,0,0,.4,1,2.63,2.63,0,0,0,.53.3,3.9,3.9,0,0,0,.67.18l1,.15.56.11a3.68,3.68,0,0,1,.43.13,2.69,2.69,0,0,1,.34.17,2,2,0,0,1,.29.22A2.18,2.18,0,0,1,1331,256Z"/><path class="cls-54" d="M1333.41,255.59a2.38,2.38,0,0,0,.46,1.56,1.66,1.66,0,0,0,1.35.56,2.16,2.16,0,0,0,.9-.17,2.7,2.7,0,0,0,.72-.53l.61.53a5.71,5.71,0,0,1-.47.42,2.48,2.48,0,0,1-.49.3,2.55,2.55,0,0,1-.59.18,3,3,0,0,1-.7.07,3.23,3.23,0,0,1-1.11-.19,2.15,2.15,0,0,1-.84-.58,2.5,2.5,0,0,1-.54-1,4.45,4.45,0,0,1-.2-1.4,3.59,3.59,0,0,1,.68-2.33,2.53,2.53,0,0,1,3.71,0,3.31,3.31,0,0,1,.66,2.17v.41Zm3.25-.67c0-.13,0-.23,0-.33l0-.25a1.66,1.66,0,0,0-.06-.21,1.35,1.35,0,0,0-.08-.24,1.4,1.4,0,0,0-.56-.67,1.66,1.66,0,0,0-1.75,0,1.4,1.4,0,0,0-.56.67,2.8,2.8,0,0,0-.14.45,5.71,5.71,0,0,0,0,.58Z"/><path class="cls-54" d="M1342.91,253.46a1.5,1.5,0,0,0-.47-.35,1.42,1.42,0,0,0-.59-.1,1.48,1.48,0,0,0-.61.12,1.26,1.26,0,0,0-.47.35,1.8,1.8,0,0,0-.29.53,1.93,1.93,0,0,0-.11.65v3.77h-.9v-6.15h.9V253a1.64,1.64,0,0,1,.72-.6,2.29,2.29,0,0,1,1-.22,2.47,2.47,0,0,1,.79.12,1.79,1.79,0,0,1,.68.45Z"/><path class="cls-54" d="M1346.8,258.43h-.8l-2.25-6.15h1l1.68,4.94,1.69-4.94h1Z"/><path class="cls-54" d="M1350.76,255.59a2.38,2.38,0,0,0,.46,1.56,1.66,1.66,0,0,0,1.35.56,2.16,2.16,0,0,0,.9-.17,2.7,2.7,0,0,0,.72-.53l.61.53a5.71,5.71,0,0,1-.47.42,2.48,2.48,0,0,1-.49.3,2.55,2.55,0,0,1-.59.18,3,3,0,0,1-.7.07,3.23,3.23,0,0,1-1.11-.19,2.15,2.15,0,0,1-.84-.58,2.64,2.64,0,0,1-.55-1,4.79,4.79,0,0,1-.19-1.4,3.59,3.59,0,0,1,.68-2.33,2.53,2.53,0,0,1,3.71,0,3.31,3.31,0,0,1,.66,2.17v.41Zm3.25-.67c0-.13,0-.23,0-.33l0-.25a1.66,1.66,0,0,0-.06-.21,1.35,1.35,0,0,0-.08-.24,1.4,1.4,0,0,0-.56-.67,1.66,1.66,0,0,0-1.75,0,1.4,1.4,0,0,0-.56.67,2.8,2.8,0,0,0-.14.45,5.71,5.71,0,0,0,0,.58Z"/><path class="cls-54" d="M1360.26,253.46a1.5,1.5,0,0,0-.47-.35,1.42,1.42,0,0,0-.59-.1,1.48,1.48,0,0,0-.61.12,1.26,1.26,0,0,0-.47.35,1.8,1.8,0,0,0-.29.53,1.93,1.93,0,0,0-.11.65v3.77h-.9v-6.15h.9V253a1.64,1.64,0,0,1,.72-.6,2.29,2.29,0,0,1,1-.22,2.47,2.47,0,0,1,.79.12,1.79,1.79,0,0,1,.68.45Z"/><line class="cls-25" x1="724" y1="199" x2="1049.88" y2="199"/><polygon class="cls-26" points="1064 199 1044.1 207.13 1048.82 199 1044.1 190.87 1064 199"/><text class="cls-15" transform="translate(812.53 1001.43)">4.1 Authorization or pu<tspan class="cls-28" x="125.65" y="0">r</tspan><tspan x="130.49" y="0">chase</tspan></text><line class="cls-25" x1="724" y1="1010" x2="1049.88" y2="1010"/><polygon class="cls-26" points="1064 1010 1044.1 1018.13 1048.82 1010 1044.1 1001.87 1064 1010"/><text class="cls-15" transform="translate(806.7 282.43)">1.4 Check-en<tspan class="cls-28" x="72.95" y="0">r</tspan><tspan x="77.79" y="0">ollment </tspan><tspan class="cls-28" x="123.74" y="0">r</tspan><tspan x="128.57" y="0">esponse</tspan></text><line class="cls-25" x1="1064" y1="291" x2="738.12" y2="291"/><polygon class="cls-26" points="724 291 743.9 282.87 739.18 291 743.9 299.13 724 291"/><text class="cls-55" transform="translate(793.86 924.43)">3.3 Check-pa<tspan class="cls-33" x="72.69" y="0">y</tspan><tspan x="78.15" y="0">er-</tspan><tspan class="cls-28" x="95.36" y="0">r</tspan><tspan x="100.2" y="0">esponse </tspan><tspan class="cls-28" x="149.42" y="0">r</tspan><tspan x="154.26" y="0">esponse</tspan></text><line class="cls-43" x1="1064" y1="933" x2="738.12" y2="933"/><polygon class="cls-26" points="724 933 743.9 924.87 739.18 933 743.9 941.13 724 933"/><polyline class="cls-25" points="1111 226 1193 226 1193 266 1125.12 266"/><polygon class="cls-26" points="1111 266 1130.9 257.87 1126.18 266 1130.9 274.13 1111 266"/><text class="cls-15" transform="translate(1216.24 898.43)">3.2 De<tspan class="cls-34" x="34.57" y="0">c</tspan><tspan x="40.51" y="0">ode </tspan><tspan class="cls-53" x="63.69" y="0">P</tspan><tspan x="70.94" y="0">ARes</tspan></text><polyline class="cls-25" points="1111 876 1193 876 1193 916 1125.12 916"/><polygon class="cls-26" points="1111 916 1130.9 907.87 1126.18 916 1130.9 924.13 1111 916"/><text class="cls-15" transform="translate(1589.94 383.43)">2.2 De<tspan class="cls-34" x="34.57" y="0">c</tspan><tspan x="40.51" y="0">ode </tspan><tspan class="cls-53" x="63.69" y="0">P</tspan><tspan x="70.94" y="0">AReq</tspan></text><polyline class="cls-25" points="1486 359 1568 359 1568 399 1500.12 399"/><polygon class="cls-26" points="1486 399 1505.9 390.87 1501.18 399 1505.9 407.13 1486 399"/><text class="cls-15" transform="translate(1609.58 570.43)">2.6 Initia<tspan class="cls-32" x="47.14" y="0">t</tspan><tspan x="51.19" y="0">e </tspan><tspan x="-22.22" y="15">authenti</tspan><tspan class="cls-37" x="23.52" y="15">c</tspan><tspan class="cls-31" x="29.49" y="15">ation f</tspan><tspan class="cls-16" x="64.07" y="15">l</tspan><tspan class="cls-30" x="67.53" y="15">o</tspan><tspan class="cls-31" x="74.09" y="15">w</tspan></text><polyline class="cls-25" points="1486 554 1568 554 1568 594 1500.12 594"/><polygon class="cls-26" points="1486 594 1505.9 585.87 1501.18 594 1505.9 602.13 1486 594"/><path class="cls-54" d="M446.33,501.43v-.8l3.51-4.46a2.84,2.84,0,0,0,.37-.64,1.84,1.84,0,0,0-.28-1.84,1.48,1.48,0,0,0-1.14-.43,2.35,2.35,0,0,0-.6.08,1.36,1.36,0,0,0-.49.29,1.57,1.57,0,0,0-.34.51,2,2,0,0,0-.12.73h-.9a2.78,2.78,0,0,1,.17-1,2.1,2.1,0,0,1,.5-.76,2.34,2.34,0,0,1,.76-.5,2.76,2.76,0,0,1,1-.18,2.69,2.69,0,0,1,1,.17,2.1,2.1,0,0,1,.77.48,1.94,1.94,0,0,1,.5.75,2.66,2.66,0,0,1,.18,1,2.24,2.24,0,0,1-.18.93,4,4,0,0,1-.54.87l-3.11,4h3.83v.8Z"/><path class="cls-54" d="M453.1,501.43v-1.17h1.17v1.17Z"/><path class="cls-54" d="M461.15,498.49a6.55,6.55,0,0,1-.12,1.28,2.13,2.13,0,0,1-.59,1.09,2.24,2.24,0,0,1-.75.48,2.64,2.64,0,0,1-1,.18,2.8,2.8,0,0,1-1-.18,1.91,1.91,0,0,1-1.18-1.15,2.79,2.79,0,0,1-.19-.86h.9a1.75,1.75,0,0,0,.44,1,1.46,1.46,0,0,0,1.07.36,1.49,1.49,0,0,0,1.1-.41,1.48,1.48,0,0,0,.28-.39,2.15,2.15,0,0,0,.14-.45,3.86,3.86,0,0,0,.06-.49c0-.17,0-.33,0-.49a5.29,5.29,0,0,0-.06-.8A1.87,1.87,0,0,0,460,497a1.18,1.18,0,0,0-.45-.49,1.36,1.36,0,0,0-.78-.19,1.75,1.75,0,0,0-1,.24,1.25,1.25,0,0,0-.52.64h-.81v-4.68H461v.8h-3.69v2.82a1.88,1.88,0,0,1,.67-.45,2.46,2.46,0,0,1,.94-.17,2.42,2.42,0,0,1,.88.15,1.74,1.74,0,0,1,.65.42,2.2,2.2,0,0,1,.39.53,2.1,2.1,0,0,1,.22.59,3.43,3.43,0,0,1,.11.64C461.14,498.07,461.15,498.28,461.15,498.49Z"/><path class="cls-54" d="M466.3,501.43v-8.9h.95v8.9Z"/><path class="cls-54" d="M474.1,499.63a1.71,1.71,0,0,1-.18.8,1.75,1.75,0,0,1-.51.58,2.22,2.22,0,0,1-.79.37,4.06,4.06,0,0,1-1,.13,4.59,4.59,0,0,1-1.4-.2,3.19,3.19,0,0,1-1.13-.69l.6-.6a2.11,2.11,0,0,0,.85.55,3.34,3.34,0,0,0,1.07.16,2.27,2.27,0,0,0,1.2-.27.89.89,0,0,0,.43-.82A.81.81,0,0,0,473,499a1.35,1.35,0,0,0-.78-.28l-1-.08a2.35,2.35,0,0,1-1.37-.48,1.48,1.48,0,0,1-.47-1.17,1.67,1.67,0,0,1,.17-.76,1.59,1.59,0,0,1,.47-.56,2.21,2.21,0,0,1,.72-.36,3.21,3.21,0,0,1,.9-.12,4.41,4.41,0,0,1,1.23.16,2.6,2.6,0,0,1,1,.5l-.58.59a2.19,2.19,0,0,0-.75-.37,3.19,3.19,0,0,0-.89-.12,1.69,1.69,0,0,0-1,.27.9.9,0,0,0-.35.74.83.83,0,0,0,.25.63,1.37,1.37,0,0,0,.83.27l1,.09a3.26,3.26,0,0,1,.73.14,1.4,1.4,0,0,1,.58.3,1.34,1.34,0,0,1,.37.5A1.75,1.75,0,0,1,474.1,499.63Z"/><path class="cls-54" d="M480.1,499.63a1.71,1.71,0,0,1-.18.8,1.75,1.75,0,0,1-.51.58,2.22,2.22,0,0,1-.79.37,4.06,4.06,0,0,1-1,.13,4.59,4.59,0,0,1-1.4-.2,3.19,3.19,0,0,1-1.13-.69l.6-.6a2.11,2.11,0,0,0,.85.55,3.34,3.34,0,0,0,1.07.16,2.27,2.27,0,0,0,1.2-.27.89.89,0,0,0,.43-.82A.81.81,0,0,0,479,499a1.35,1.35,0,0,0-.78-.28l-1-.08a2.35,2.35,0,0,1-1.37-.48,1.48,1.48,0,0,1-.47-1.17,1.67,1.67,0,0,1,.17-.76,1.59,1.59,0,0,1,.47-.56,2.21,2.21,0,0,1,.72-.36,3.21,3.21,0,0,1,.9-.12,4.41,4.41,0,0,1,1.23.16,2.6,2.6,0,0,1,1,.5l-.58.59a2.19,2.19,0,0,0-.75-.37,3.19,3.19,0,0,0-.89-.12,1.69,1.69,0,0,0-1,.27.9.9,0,0,0-.35.74.83.83,0,0,0,.25.63,1.37,1.37,0,0,0,.83.27l1,.09a3.26,3.26,0,0,1,.73.14,1.4,1.4,0,0,1,.58.3,1.34,1.34,0,0,1,.37.5A1.75,1.75,0,0,1,480.1,499.63Z"/><path class="cls-54" d="M485.75,501.43v-.69a2.15,2.15,0,0,1-.77.57,2.4,2.4,0,0,1-1,.2,2.19,2.19,0,0,1-1.59-.58,2.11,2.11,0,0,1-.47-.75,3,3,0,0,1-.15-1v-3.93h.9v3.79a1.67,1.67,0,0,0,.4,1.23,1.48,1.48,0,0,0,1.1.41,1.51,1.51,0,0,0,1.12-.42,1.63,1.63,0,0,0,.42-1.22v-3.79h.91v6.15Z"/><path class="cls-54" d="M489.45,498.59a2.32,2.32,0,0,0,.46,1.56,1.66,1.66,0,0,0,1.35.56,2.16,2.16,0,0,0,.9-.17,2.67,2.67,0,0,0,.71-.53l.62.53a5.71,5.71,0,0,1-.47.42,2.55,2.55,0,0,1-.5.3,2.32,2.32,0,0,1-.58.18,3,3,0,0,1-.7.07,3.23,3.23,0,0,1-1.11-.19,2.15,2.15,0,0,1-.84-.58,2.51,2.51,0,0,1-.55-1,4.47,4.47,0,0,1-.19-1.4,3.59,3.59,0,0,1,.67-2.33,2.54,2.54,0,0,1,3.72,0,3.31,3.31,0,0,1,.66,2.17v.41Zm3.25-.67c0-.13,0-.23,0-.33a1,1,0,0,0,0-.25,1.6,1.6,0,0,0-.05-.21c0-.08,0-.15-.08-.24a1.4,1.4,0,0,0-.56-.67,1.66,1.66,0,0,0-1.75,0,1.4,1.4,0,0,0-.56.67,2.06,2.06,0,0,0-.14.45,3.78,3.78,0,0,0-.05.58Z"/><path class="cls-54" d="M499,496.46a1.52,1.52,0,0,0-.48-.35,1.37,1.37,0,0,0-.58-.1,1.56,1.56,0,0,0-.62.12,1.31,1.31,0,0,0-.46.35,1.8,1.8,0,0,0-.29.53,1.93,1.93,0,0,0-.11.65v3.77h-.9v-6.15h.9V496a1.64,1.64,0,0,1,.72-.6,2.29,2.29,0,0,1,1-.22,2.47,2.47,0,0,1,.79.12,1.79,1.79,0,0,1,.68.45Z"/><path class="cls-54" d="M509.24,501.43l-.72-2h-3.88l-.72,2h-1l3.28-8.9h.8l3.26,8.9Zm-2.64-7.54-1.68,4.7h3.33Z"/><path class="cls-54" d="M517,500a3,3,0,0,1-.67.83,3.1,3.1,0,0,1-2,.7,3.16,3.16,0,0,1-2.28-.93,2.37,2.37,0,0,1-.48-.65,2.88,2.88,0,0,1-.25-.75,5.38,5.38,0,0,1-.09-.95c0-.36,0-.77,0-1.25s0-.89,0-1.24a5.29,5.29,0,0,1,.09-.95,3,3,0,0,1,.25-.76,2.53,2.53,0,0,1,.48-.65,3.22,3.22,0,0,1,1-.69,3.43,3.43,0,0,1,1.25-.23,3.31,3.31,0,0,1,1.11.18,2.88,2.88,0,0,1,.92.52,2.75,2.75,0,0,1,.67.83,3.53,3.53,0,0,1,.38,1.12h-1a2.39,2.39,0,0,0-.73-1.32,2,2,0,0,0-1.38-.48,2.22,2.22,0,0,0-.85.16,1.94,1.94,0,0,0-.69.46,1.82,1.82,0,0,0-.34.46,2.56,2.56,0,0,0-.19.59,7.59,7.59,0,0,0-.08.82c0,.32,0,.72,0,1.18s0,.86,0,1.18a8.08,8.08,0,0,0,.08.83,2.73,2.73,0,0,0,.19.59,1.78,1.78,0,0,0,.34.45,1.82,1.82,0,0,0,.69.46,2.22,2.22,0,0,0,.85.17,2.11,2.11,0,0,0,1.4-.49,2.3,2.3,0,0,0,.73-1.31h.95A3.61,3.61,0,0,1,517,500Z"/><path class="cls-54" d="M524.89,499a2.57,2.57,0,0,1-.22,1.06,2.21,2.21,0,0,1-.63.79,2.87,2.87,0,0,1-1,.5,4.17,4.17,0,0,1-1.26.18,4.57,4.57,0,0,1-1.71-.28,3.77,3.77,0,0,1-1.34-.9l.65-.65a3.2,3.2,0,0,0,1.11.76,3.58,3.58,0,0,0,1.32.22,2.48,2.48,0,0,0,1.53-.43,1.45,1.45,0,0,0,.57-1.22,1.83,1.83,0,0,0-.11-.64,1.23,1.23,0,0,0-.32-.48,1.34,1.34,0,0,0-.44-.26,4,4,0,0,0-.72-.16l-1-.16a3.35,3.35,0,0,1-1.64-.68A2.1,2.1,0,0,1,519,495a2.63,2.63,0,0,1,.2-1,2.17,2.17,0,0,1,.57-.8,2.65,2.65,0,0,1,.89-.5,3.67,3.67,0,0,1,1.19-.18,4,4,0,0,1,1.46.23,3.72,3.72,0,0,1,1.19.74l-.61.61a2.83,2.83,0,0,0-.89-.56,3.14,3.14,0,0,0-1.19-.2,2,2,0,0,0-1.39.45,1.57,1.57,0,0,0-.48,1.2,1.3,1.3,0,0,0,.4,1,2.38,2.38,0,0,0,.53.3,3.46,3.46,0,0,0,.67.18l1,.15.56.11a3.68,3.68,0,0,1,.43.13l.34.17a2.1,2.1,0,0,1,.3.22A2.18,2.18,0,0,1,524.89,499Z"/><path class="cls-54" d="M530.39,498.59a2.32,2.32,0,0,0,.46,1.56,1.66,1.66,0,0,0,1.35.56,2.11,2.11,0,0,0,.89-.17,2.55,2.55,0,0,0,.72-.53l.61.53a4.38,4.38,0,0,1-.46.42,2.55,2.55,0,0,1-.5.3,2.46,2.46,0,0,1-.58.18,3.11,3.11,0,0,1-.71.07,3.21,3.21,0,0,1-1.1-.19,2.26,2.26,0,0,1-.85-.58,2.63,2.63,0,0,1-.54-1,4.47,4.47,0,0,1-.19-1.4,3.59,3.59,0,0,1,.67-2.33,2.53,2.53,0,0,1,3.71,0,3.26,3.26,0,0,1,.67,2.17v.41Zm3.25-.67c0-.13,0-.23,0-.33l0-.25a1.6,1.6,0,0,0-.05-.21c0-.08,0-.15-.08-.24a1.52,1.52,0,0,0-.56-.67A1.56,1.56,0,0,0,532,496a1.53,1.53,0,0,0-.87.25,1.48,1.48,0,0,0-.57.67,2.66,2.66,0,0,0-.13.45,2.82,2.82,0,0,0-.05.58Z"/><path class="cls-54" d="M539.6,501.43,538.12,499l-1.5,2.39h-1.08l2.08-3.14-2-3h1.09l1.41,2.28,1.39-2.28h1.09l-2,3,2.09,3.14Z"/><path class="cls-54" d="M542.54,498.59a2.32,2.32,0,0,0,.46,1.56,1.66,1.66,0,0,0,1.35.56,2.08,2.08,0,0,0,.89-.17A2.55,2.55,0,0,0,546,500l.61.53a4.38,4.38,0,0,1-.46.42,2.55,2.55,0,0,1-.5.3,2.46,2.46,0,0,1-.58.18,3.11,3.11,0,0,1-.71.07,3.21,3.21,0,0,1-1.1-.19,2.26,2.26,0,0,1-.85-.58,2.63,2.63,0,0,1-.54-1,4.47,4.47,0,0,1-.19-1.4,3.59,3.59,0,0,1,.67-2.33,2.53,2.53,0,0,1,3.71,0,3.26,3.26,0,0,1,.67,2.17v.41Zm3.25-.67c0-.13,0-.23,0-.33l0-.25a1.6,1.6,0,0,0-.05-.21c0-.08,0-.15-.08-.24a1.52,1.52,0,0,0-.56-.67,1.56,1.56,0,0,0-.88-.25,1.53,1.53,0,0,0-.87.25,1.48,1.48,0,0,0-.57.67,2.66,2.66,0,0,0-.13.45,2.82,2.82,0,0,0-.05.58Z"/><path class="cls-54" d="M552.08,501.31a2.75,2.75,0,0,1-1.09.2,2.85,2.85,0,0,1-1.08-.2,2.42,2.42,0,0,1-.87-.58,3,3,0,0,1-.57-1,4.17,4.17,0,0,1-.21-1.38,4.09,4.09,0,0,1,.21-1.38,2.85,2.85,0,0,1,.57-1,2.44,2.44,0,0,1,.87-.59,2.67,2.67,0,0,1,1.08-.2,2.59,2.59,0,0,1,1.09.2,3,3,0,0,1,.93.71l-.61.57a2.43,2.43,0,0,0-.66-.53A1.73,1.73,0,0,0,551,496a1.85,1.85,0,0,0-.82.17,1.62,1.62,0,0,0-.61.53,1.91,1.91,0,0,0-.3.68,3.7,3.7,0,0,0-.1,1,3.8,3.8,0,0,0,.1,1,2,2,0,0,0,.3.68,1.59,1.59,0,0,0,.61.52,1.86,1.86,0,0,0,.82.18,1.73,1.73,0,0,0,.75-.16,2.3,2.3,0,0,0,.66-.54l.61.58A3,3,0,0,1,552.08,501.31Z"/><path class="cls-54" d="M558.61,501.43v-.69a2.15,2.15,0,0,1-.77.57,2.37,2.37,0,0,1-1,.2,2.15,2.15,0,0,1-1.58-.58,2,2,0,0,1-.48-.75,3,3,0,0,1-.15-1v-3.93h.9v3.79a1.67,1.67,0,0,0,.4,1.23,1.48,1.48,0,0,0,1.1.41,1.51,1.51,0,0,0,1.12-.42,1.63,1.63,0,0,0,.42-1.22v-3.79h.91v6.15Z"/><path class="cls-54" d="M563.47,501.43a1.67,1.67,0,0,1-.69-.13,1.39,1.39,0,0,1-.49-.36,1.55,1.55,0,0,1-.29-.52,1.91,1.91,0,0,1-.1-.64V496h-.78v-.69h.78v-1.93h.9v1.93h1.31V496H562.8v3.75a1,1,0,0,0,.2.66.77.77,0,0,0,.64.24h.47v.77Z"/><path class="cls-54" d="M566.36,498.59a2.38,2.38,0,0,0,.46,1.56,1.66,1.66,0,0,0,1.35.56,2.16,2.16,0,0,0,.9-.17,2.7,2.7,0,0,0,.72-.53l.61.53a5.71,5.71,0,0,1-.47.42,2.48,2.48,0,0,1-.49.3,2.55,2.55,0,0,1-.59.18,3,3,0,0,1-.7.07,3.23,3.23,0,0,1-1.11-.19,2.15,2.15,0,0,1-.84-.58,2.5,2.5,0,0,1-.54-1,4.45,4.45,0,0,1-.2-1.4,3.59,3.59,0,0,1,.68-2.33,2.53,2.53,0,0,1,3.71,0,3.31,3.31,0,0,1,.66,2.17v.41Zm3.25-.67c0-.13,0-.23,0-.33l0-.25a1.66,1.66,0,0,0-.06-.21,1.35,1.35,0,0,0-.08-.24,1.4,1.4,0,0,0-.56-.67,1.66,1.66,0,0,0-1.75,0,1.46,1.46,0,0,0-.56.67,2.8,2.8,0,0,0-.14.45,5.71,5.71,0,0,0,0,.58Z"/><path class="cls-54" d="M576.86,499.63a1.71,1.71,0,0,1-.18.8,1.75,1.75,0,0,1-.51.58,2.22,2.22,0,0,1-.79.37,4,4,0,0,1-1,.13,4.64,4.64,0,0,1-1.4-.2,3.07,3.07,0,0,1-1.12-.69l.6-.6a2,2,0,0,0,.85.55,3.27,3.27,0,0,0,1.06.16,2.27,2.27,0,0,0,1.2-.27.9.9,0,0,0,.44-.82.79.79,0,0,0-.25-.62,1.35,1.35,0,0,0-.78-.28l-1-.08a2.35,2.35,0,0,1-1.37-.48,1.48,1.48,0,0,1-.47-1.17,1.67,1.67,0,0,1,.17-.76,1.59,1.59,0,0,1,.47-.56,2.21,2.21,0,0,1,.72-.36,3.26,3.26,0,0,1,.9-.12,4.31,4.31,0,0,1,1.23.16,2.72,2.72,0,0,1,1,.5l-.59.59a2.19,2.19,0,0,0-.75-.37,3.14,3.14,0,0,0-.89-.12,1.63,1.63,0,0,0-1,.27.87.87,0,0,0-.35.74.82.82,0,0,0,.24.63,1.37,1.37,0,0,0,.83.27l1,.09a3.35,3.35,0,0,1,.74.14,1.42,1.42,0,0,1,.57.3,1.34,1.34,0,0,1,.37.5A1.75,1.75,0,0,1,576.86,499.63Z"/><path class="cls-54" d="M445,516.43a1.68,1.68,0,0,1-.7-.13,1.44,1.44,0,0,1-.48-.36,1.58,1.58,0,0,1-.3-.52,2.2,2.2,0,0,1-.1-.64V511h-.77v-.69h.77v-1.93h.9v1.93h1.32V511h-1.32v3.75a1,1,0,0,0,.2.66.8.8,0,0,0,.64.24h.48v.77Z"/><path class="cls-54" d="M451.4,516.43v-3.8a1.66,1.66,0,0,0-.4-1.22,1.47,1.47,0,0,0-1.1-.4,1.5,1.5,0,0,0-1.12.41,1.62,1.62,0,0,0-.42,1.21v3.8h-.9v-8.9h.9V511a2.2,2.2,0,0,1,1.73-.75,2.13,2.13,0,0,1,1.63.61,2.3,2.3,0,0,1,.58,1.66v3.95Z"/><path class="cls-54" d="M455.05,513.59a2.32,2.32,0,0,0,.46,1.56,1.66,1.66,0,0,0,1.35.56,2.16,2.16,0,0,0,.9-.17,2.87,2.87,0,0,0,.72-.53l.61.53a5.71,5.71,0,0,1-.47.42,2.8,2.8,0,0,1-.49.3,2.55,2.55,0,0,1-.59.18,3,3,0,0,1-.7.07,3.23,3.23,0,0,1-1.11-.19,2.15,2.15,0,0,1-.84-.58,2.51,2.51,0,0,1-.55-1,4.47,4.47,0,0,1-.19-1.4,3.59,3.59,0,0,1,.68-2.33,2.53,2.53,0,0,1,3.71,0,3.31,3.31,0,0,1,.66,2.17v.41Zm3.25-.67c0-.13,0-.23,0-.33a1.87,1.87,0,0,0,0-.25,1.6,1.6,0,0,0-.05-.21,1.35,1.35,0,0,0-.08-.24,1.4,1.4,0,0,0-.56-.67,1.66,1.66,0,0,0-1.75,0,1.4,1.4,0,0,0-.56.67,2.8,2.8,0,0,0-.14.45,5.71,5.71,0,0,0-.05.58Z"/><path class="cls-54" d="M464.18,508.53v-1h1v1Zm.05,7.9v-6.15h.9v6.15Z"/><path class="cls-54" d="M471.33,516.43v-3.79a1.67,1.67,0,0,0-.41-1.23,1.72,1.72,0,0,0-2.22,0,1.66,1.66,0,0,0-.41,1.22v3.79h-.9v-6.15h.9V511a2.12,2.12,0,0,1,.76-.57,2.49,2.49,0,0,1,1-.18,2.16,2.16,0,0,1,1.58.57,2.32,2.32,0,0,1,.64,1.71v3.94Z"/><path class="cls-54" d="M475.51,511v5.42h-.9V511h-.78v-.69h.78v-1.16a1.91,1.91,0,0,1,.1-.64A1.44,1.44,0,0,1,475,508a1.46,1.46,0,0,1,.49-.35,1.6,1.6,0,0,1,.69-.13h.65v.77h-.49a.77.77,0,0,0-.63.24,1,1,0,0,0-.2.66v1.14h1.32V511Z"/><path class="cls-54" d="M482.8,513.36a6.4,6.4,0,0,1-.14,1.34,2.35,2.35,0,0,1-.61,1.11,2.67,2.67,0,0,1-.76.51,2.62,2.62,0,0,1-1,.19,2.58,2.58,0,0,1-1-.19,2.72,2.72,0,0,1-.77-.51,2.39,2.39,0,0,1-.38-.52,3.23,3.23,0,0,1-.22-.59,3.29,3.29,0,0,1-.11-.64c0-.23,0-.46,0-.7s0-.47,0-.7a3.39,3.39,0,0,1,.11-.65,2.89,2.89,0,0,1,.22-.58,2.17,2.17,0,0,1,.38-.52,2.55,2.55,0,0,1,.77-.52,2.59,2.59,0,0,1,1-.18,2.62,2.62,0,0,1,1,.18,2.51,2.51,0,0,1,.76.52,2.27,2.27,0,0,1,.61,1.1A6.43,6.43,0,0,1,482.8,513.36Zm-.9,0c0-.18,0-.35,0-.53a4.43,4.43,0,0,0-.06-.51,3.23,3.23,0,0,0-.15-.47,1.36,1.36,0,0,0-.27-.39,1.61,1.61,0,0,0-2.23,0,1.05,1.05,0,0,0-.27.39,1.84,1.84,0,0,0-.15.47,3,3,0,0,0-.07.51c0,.18,0,.35,0,.53s0,.35,0,.52a2.73,2.73,0,0,0,.07.51,1.92,1.92,0,0,0,.15.48,1.05,1.05,0,0,0,.27.39,1.61,1.61,0,0,0,2.23,0,1.36,1.36,0,0,0,.27-.39,3.37,3.37,0,0,0,.15-.48,4,4,0,0,0,.06-.51C481.9,513.71,481.9,513.53,481.9,513.36Z"/><path class="cls-54" d="M488.16,511.46a1.39,1.39,0,0,0-.47-.35,1.42,1.42,0,0,0-.59-.1,1.51,1.51,0,0,0-.61.12,1.26,1.26,0,0,0-.47.35,1.8,1.8,0,0,0-.29.53,1.93,1.93,0,0,0-.1.65v3.77h-.9v-6.15h.9V511a1.56,1.56,0,0,1,.71-.6,2.33,2.33,0,0,1,1-.22,2.43,2.43,0,0,1,.79.12,1.91,1.91,0,0,1,.69.45Z"/><path class="cls-54" d="M497.89,516.43v-3.79a1.67,1.67,0,0,0-.41-1.23,1.49,1.49,0,0,0-1.1-.4,1.54,1.54,0,0,0-1.11.4,1.44,1.44,0,0,0-.43,1.13v3.89h-.9v-3.79a1.67,1.67,0,0,0-.41-1.23,1.5,1.5,0,0,0-1.11-.4,1.48,1.48,0,0,0-1.11.41,1.63,1.63,0,0,0-.42,1.22v3.79H490v-6.15h.9V511a2.07,2.07,0,0,1,.77-.57,2.5,2.5,0,0,1,1-.18,2.33,2.33,0,0,1,1.11.25,1.9,1.9,0,0,1,.77.77,2.36,2.36,0,0,1,2-1,2.57,2.57,0,0,1,.9.15,2.2,2.2,0,0,1,.69.42,2.28,2.28,0,0,1,.66,1.71v3.94Z"/><path class="cls-54" d="M504.46,516.43v-.59a2,2,0,0,1-.77.52,2.81,2.81,0,0,1-1,.15,3.74,3.74,0,0,1-1.05-.13,1.67,1.67,0,0,1-.69-.44,1.46,1.46,0,0,1-.34-.55,2,2,0,0,1-.12-.7,1.64,1.64,0,0,1,.54-1.29,2.31,2.31,0,0,1,1.58-.48h1.85v-.59a1.31,1.31,0,0,0-.36-1,1.73,1.73,0,0,0-1.21-.34,2.18,2.18,0,0,0-.94.16,1.47,1.47,0,0,0-.61.54l-.62-.56a2.21,2.21,0,0,1,.92-.73,3.82,3.82,0,0,1,1.26-.18,2.81,2.81,0,0,1,1.86.52,1.9,1.9,0,0,1,.6,1.53v4.17Zm0-2.84h-1.72c-.92,0-1.38.37-1.38,1.09a.94.94,0,0,0,.34.8,1.78,1.78,0,0,0,1.07.25,4.38,4.38,0,0,0,.75-.06,1.18,1.18,0,0,0,.63-.35,1.43,1.43,0,0,0,.31-1.06Z"/><path class="cls-54" d="M509.27,516.43a1.67,1.67,0,0,1-.69-.13,1.48,1.48,0,0,1-.49-.36,1.55,1.55,0,0,1-.29-.52,1.91,1.91,0,0,1-.1-.64V511h-.78v-.69h.78v-1.93h.9v1.93h1.31V511H508.6v3.75a1,1,0,0,0,.2.66.79.79,0,0,0,.64.24h.47v.77Z"/><path class="cls-54" d="M511.65,508.53v-1h1v1Zm.05,7.9v-6.15h.9v6.15Z"/><path class="cls-54" d="M519.56,513.36a6.4,6.4,0,0,1-.14,1.34,2.35,2.35,0,0,1-.61,1.11,2.54,2.54,0,0,1-.76.51,2.62,2.62,0,0,1-1,.19,2.58,2.58,0,0,1-1-.19,2.54,2.54,0,0,1-.76-.51,1.88,1.88,0,0,1-.38-.52,2.67,2.67,0,0,1-.23-.59,4.27,4.27,0,0,1-.11-.64c0-.23,0-.46,0-.7s0-.47,0-.7a4.41,4.41,0,0,1,.11-.65,2.42,2.42,0,0,1,.23-.58,1.74,1.74,0,0,1,.38-.52,2.39,2.39,0,0,1,.76-.52,2.59,2.59,0,0,1,1-.18,2.62,2.62,0,0,1,1,.18,2.39,2.39,0,0,1,.76.52,2.27,2.27,0,0,1,.61,1.1A6.43,6.43,0,0,1,519.56,513.36Zm-.9,0c0-.18,0-.35,0-.53a4.43,4.43,0,0,0-.06-.51,3.23,3.23,0,0,0-.15-.47,1.36,1.36,0,0,0-.27-.39,1.61,1.61,0,0,0-2.23,0,1.05,1.05,0,0,0-.27.39,3.23,3.23,0,0,0-.15.47,3,3,0,0,0-.07.51c0,.18,0,.35,0,.53s0,.35,0,.52a2.73,2.73,0,0,0,.07.51,3.37,3.37,0,0,0,.15.48,1.05,1.05,0,0,0,.27.39,1.61,1.61,0,0,0,2.23,0,1.36,1.36,0,0,0,.27-.39,3.37,3.37,0,0,0,.15-.48,4,4,0,0,0,.06-.51C518.66,513.71,518.66,513.53,518.66,513.36Z"/><path class="cls-54" d="M525.42,516.43v-3.79a1.67,1.67,0,0,0-.4-1.23,1.5,1.5,0,0,0-1.11-.4,1.46,1.46,0,0,0-1.11.41,1.62,1.62,0,0,0-.41,1.22v3.79h-.9v-6.15h.9V511a2.12,2.12,0,0,1,.76-.57,2.49,2.49,0,0,1,1-.18,2.16,2.16,0,0,1,1.58.57,2.31,2.31,0,0,1,.63,1.71v3.94Z"/><path class="cls-54" d="M536.16,516.62a3.32,3.32,0,0,1-.17,1.06,2.67,2.67,0,0,1-.5.83,2.47,2.47,0,0,1-.81.55,2.85,2.85,0,0,1-1.08.2,4,4,0,0,1-.63,0,2.73,2.73,0,0,1-.51-.14,2.77,2.77,0,0,1-.48-.26,5.09,5.09,0,0,1-.47-.39l.59-.58a3.82,3.82,0,0,0,.32.27,2.07,2.07,0,0,0,.32.19,2.29,2.29,0,0,0,.37.12,3,3,0,0,0,.46,0,1.79,1.79,0,0,0,.77-.15,1.47,1.47,0,0,0,.83-1,2.81,2.81,0,0,0,.09-.73v-1a2,2,0,0,1-.8.63,2.51,2.51,0,0,1-.92.16,2.31,2.31,0,0,1-.86-.15,1.84,1.84,0,0,1-.63-.4,2.26,2.26,0,0,1-.61-1.14,7.2,7.2,0,0,1-.14-1.42,7.3,7.3,0,0,1,.14-1.43,2.26,2.26,0,0,1,.61-1.14,1.92,1.92,0,0,1,.64-.39,2.32,2.32,0,0,1,.86-.14,2.75,2.75,0,0,1,.93.15,1.87,1.87,0,0,1,.79.65v-.73h.89Zm-.9-3.31a7.89,7.89,0,0,0,0-.84,2.07,2.07,0,0,0-.21-.74,1.29,1.29,0,0,0-.46-.52,1.72,1.72,0,0,0-1.61,0,1.31,1.31,0,0,0-.47.52,2.07,2.07,0,0,0-.21.74,7.25,7.25,0,0,0,0,1.7,2.07,2.07,0,0,0,.21.73,1.38,1.38,0,0,0,.47.52,1.72,1.72,0,0,0,1.61,0,1.36,1.36,0,0,0,.46-.52,2.07,2.07,0,0,0,.21-.73A8,8,0,0,0,535.26,513.31Z"/><path class="cls-54" d="M541.9,516.43v-.59a2.1,2.1,0,0,1-.77.52,2.87,2.87,0,0,1-1,.15,3.72,3.72,0,0,1-1-.13,1.67,1.67,0,0,1-.69-.44,1.48,1.48,0,0,1-.35-.55,2,2,0,0,1-.12-.7,1.65,1.65,0,0,1,.55-1.29,2.31,2.31,0,0,1,1.58-.48h1.85v-.59a1.31,1.31,0,0,0-.36-1,1.76,1.76,0,0,0-1.22-.34,2.13,2.13,0,0,0-.93.16,1.55,1.55,0,0,0-.62.54l-.61-.56a2.15,2.15,0,0,1,.92-.73,3.82,3.82,0,0,1,1.26-.18,2.76,2.76,0,0,1,1.85.52,1.87,1.87,0,0,1,.61,1.53v4.17Zm0-2.84h-1.73c-.91,0-1.37.37-1.37,1.09a.94.94,0,0,0,.34.8,1.78,1.78,0,0,0,1.07.25,4.38,4.38,0,0,0,.75-.06,1.21,1.21,0,0,0,.63-.35,1.47,1.47,0,0,0,.31-1.06Z"/><path class="cls-54" d="M546.71,516.43a1.6,1.6,0,0,1-.69-.13,1.42,1.42,0,0,1-.78-.88,1.91,1.91,0,0,1-.1-.64V511h-.78v-.69h.78v-1.93h.9v1.93h1.31V511H546v3.75a1,1,0,0,0,.2.66.77.77,0,0,0,.63.24h.48v.77Z"/><path class="cls-54" d="M553.07,516.43v-3.8a1.66,1.66,0,0,0-.4-1.22,1.46,1.46,0,0,0-1.1-.4,1.48,1.48,0,0,0-1.11.41,1.62,1.62,0,0,0-.42,1.21v3.8h-.9v-8.9h.9V511a2.18,2.18,0,0,1,1.72-.75,2.13,2.13,0,0,1,1.63.61,2.3,2.3,0,0,1,.58,1.66v3.95Z"/><path class="cls-54" d="M556.72,513.59a2.33,2.33,0,0,0,.47,1.56,1.64,1.64,0,0,0,1.35.56,2.14,2.14,0,0,0,.89-.17,2.55,2.55,0,0,0,.72-.53l.61.53a4.44,4.44,0,0,1-.47.42,2.48,2.48,0,0,1-.49.3,2.62,2.62,0,0,1-.58.18,3.17,3.17,0,0,1-.71.07,3.23,3.23,0,0,1-1.11-.19,2.23,2.23,0,0,1-.84-.58,2.63,2.63,0,0,1-.54-1,4.45,4.45,0,0,1-.2-1.4,3.59,3.59,0,0,1,.68-2.33,2.53,2.53,0,0,1,3.71,0,3.31,3.31,0,0,1,.66,2.17v.41Zm3.25-.67a3.08,3.08,0,0,0,0-.33l0-.25c0-.07,0-.14,0-.21s0-.15-.08-.24a1.48,1.48,0,0,0-.57-.67,1.53,1.53,0,0,0-.87-.25,1.56,1.56,0,0,0-.88.25,1.52,1.52,0,0,0-.56.67,2.8,2.8,0,0,0-.14.45,5.71,5.71,0,0,0,0,.58Z"/><path class="cls-54" d="M566.22,511.46a1.39,1.39,0,0,0-.47-.35,1.42,1.42,0,0,0-.59-.1,1.51,1.51,0,0,0-.61.12,1.23,1.23,0,0,0-.46.35,1.62,1.62,0,0,0-.3.53,1.93,1.93,0,0,0-.1.65v3.77h-.9v-6.15h.9V511a1.56,1.56,0,0,1,.71-.6,2.33,2.33,0,0,1,1-.22,2.53,2.53,0,0,1,.8.12,2,2,0,0,1,.68.45Z"/><path class="cls-54" d="M568,508.53v-1h1v1Zm0,7.9v-6.15h.9v6.15Z"/><path class="cls-54" d="M575.15,516.43v-3.79a1.67,1.67,0,0,0-.41-1.23,1.72,1.72,0,0,0-2.22,0,1.66,1.66,0,0,0-.41,1.22v3.79h-.9v-6.15h.9V511a2.21,2.21,0,0,1,.76-.57,2.58,2.58,0,0,1,1-.18,2.13,2.13,0,0,1,1.57.57,2.28,2.28,0,0,1,.64,1.71v3.94Z"/><path class="cls-54" d="M582.77,516.62a3.32,3.32,0,0,1-.17,1.06,2.67,2.67,0,0,1-.5.83,2.47,2.47,0,0,1-.81.55,2.85,2.85,0,0,1-1.08.2,3.8,3.8,0,0,1-.62,0,2.63,2.63,0,0,1-.52-.14,3.2,3.2,0,0,1-.48-.26,5.09,5.09,0,0,1-.47-.39l.59-.58.32.27a2.07,2.07,0,0,0,.32.19,2.29,2.29,0,0,0,.37.12,3.17,3.17,0,0,0,.47,0,1.75,1.75,0,0,0,.76-.15,1.47,1.47,0,0,0,.83-1,2.81,2.81,0,0,0,.09-.73v-1a1.93,1.93,0,0,1-.8.63,2.51,2.51,0,0,1-.92.16,2.35,2.35,0,0,1-.86-.15,1.84,1.84,0,0,1-.63-.4,2.26,2.26,0,0,1-.61-1.14,7.2,7.2,0,0,1-.14-1.42,7.3,7.3,0,0,1,.14-1.43,2.26,2.26,0,0,1,.61-1.14,1.92,1.92,0,0,1,.64-.39,2.35,2.35,0,0,1,.86-.14,2.75,2.75,0,0,1,.93.15,1.89,1.89,0,0,1,.8.65v-.73h.88Zm-.9-3.31a5.92,5.92,0,0,0,0-.84,2.07,2.07,0,0,0-.21-.74,1.29,1.29,0,0,0-.46-.52,1.38,1.38,0,0,0-.8-.2,1.43,1.43,0,0,0-.81.2,1.31,1.31,0,0,0-.47.52,2.07,2.07,0,0,0-.21.74,7.25,7.25,0,0,0,0,1.7,2.07,2.07,0,0,0,.21.73,1.38,1.38,0,0,0,.47.52,1.52,1.52,0,0,0,.81.2,1.46,1.46,0,0,0,.8-.2,1.36,1.36,0,0,0,.46-.52,2.07,2.07,0,0,0,.21-.73A6,6,0,0,0,581.87,513.31Z"/><polyline class="cls-25" points="344 484 426 484 426 524 358.12 524"/><polygon class="cls-26" points="344 524 363.9 515.87 359.18 524 363.9 532.13 344 524"/><path class="cls-54" d="M452.06,671.43v-.8l3.51-4.46a2.5,2.5,0,0,0,.37-.64,1.84,1.84,0,0,0-.28-1.84,1.48,1.48,0,0,0-1.14-.43,2.21,2.21,0,0,0-.59.08,1.32,1.32,0,0,0-.5.29,1.57,1.57,0,0,0-.34.51,2,2,0,0,0-.12.73h-.9a2.78,2.78,0,0,1,.17-1,2.24,2.24,0,0,1,.5-.76,2.28,2.28,0,0,1,.77-.5,3,3,0,0,1,2,0,2.1,2.1,0,0,1,.77.48,1.94,1.94,0,0,1,.5.75,2.66,2.66,0,0,1,.18,1,2.24,2.24,0,0,1-.18.93,4.32,4.32,0,0,1-.53.87l-3.12,4H457v.8Z"/><path class="cls-54" d="M458.83,671.43v-1.17H460v1.17Z"/><path class="cls-54" d="M467,669a2.41,2.41,0,0,1-.2,1,2.38,2.38,0,0,1-.55.81,2.76,2.76,0,0,1-.84.52,3,3,0,0,1-2.06,0,2.76,2.76,0,0,1-.84-.52,2.48,2.48,0,0,1-.76-1.83,2.15,2.15,0,0,1,.39-1.32,3.21,3.21,0,0,1,.95-.85,2.42,2.42,0,0,1-.84-.78,2.16,2.16,0,0,1-.32-1.19,2.49,2.49,0,0,1,.18-1,2.17,2.17,0,0,1,.51-.75,2.27,2.27,0,0,1,.78-.5,2.84,2.84,0,0,1,1-.17,2.78,2.78,0,0,1,1,.17,2.41,2.41,0,0,1,.79.5,2.17,2.17,0,0,1,.51.75,2.49,2.49,0,0,1,.18,1,2.24,2.24,0,0,1-.31,1.19,2.42,2.42,0,0,1-.84.78,3.06,3.06,0,0,1,.94.85A2.15,2.15,0,0,1,467,669Zm-.9,0a1.73,1.73,0,0,0-.13-.69,1.69,1.69,0,0,0-.36-.55,1.62,1.62,0,0,0-.55-.37,1.84,1.84,0,0,0-1.36,0,1.62,1.62,0,0,0-.55.37,1.54,1.54,0,0,0-.36.55,1.77,1.77,0,0,0,0,1.38,1.54,1.54,0,0,0,.36.55,1.62,1.62,0,0,0,.55.37,1.84,1.84,0,0,0,1.36,0,1.62,1.62,0,0,0,.55-.37,1.69,1.69,0,0,0,.36-.55A1.73,1.73,0,0,0,466.09,669Zm-.17-4.12a1.55,1.55,0,0,0-.43-1.14,1.62,1.62,0,0,0-2.24,0,1.74,1.74,0,0,0,0,2.29,1.67,1.67,0,0,0,2.24,0A1.56,1.56,0,0,0,465.92,664.85Z"/><path class="cls-54" d="M477.51,670a3,3,0,0,1-.67.83,3.09,3.09,0,0,1-.92.52,3.31,3.31,0,0,1-1.11.18,3.24,3.24,0,0,1-1.25-.24,3.11,3.11,0,0,1-1-.69,2.37,2.37,0,0,1-.48-.65,2.76,2.76,0,0,1-.25-.75,5.38,5.38,0,0,1-.09-.95c0-.36,0-.77,0-1.25s0-.89,0-1.24a5.29,5.29,0,0,1,.09-1,3,3,0,0,1,.25-.76,2.53,2.53,0,0,1,.48-.65,3.11,3.11,0,0,1,1-.69,3.43,3.43,0,0,1,1.25-.23,3.31,3.31,0,0,1,1.11.18,2.88,2.88,0,0,1,.92.52,2.75,2.75,0,0,1,.67.83,3.53,3.53,0,0,1,.38,1.12h-1a2.39,2.39,0,0,0-.73-1.32,2,2,0,0,0-1.38-.48,2.22,2.22,0,0,0-.85.16,1.94,1.94,0,0,0-.69.46,1.82,1.82,0,0,0-.34.46,2.56,2.56,0,0,0-.19.59,5.83,5.83,0,0,0-.08.82c0,.32,0,.72,0,1.18s0,.86,0,1.18a6,6,0,0,0,.08.83,2.73,2.73,0,0,0,.19.59,1.78,1.78,0,0,0,.34.45,1.82,1.82,0,0,0,.69.46,2.22,2.22,0,0,0,.85.17,2.11,2.11,0,0,0,1.4-.49,2.3,2.3,0,0,0,.73-1.31h.95A3.61,3.61,0,0,1,477.51,670Z"/><path class="cls-54" d="M483.32,671.43v-.59a2.1,2.1,0,0,1-.77.52,2.87,2.87,0,0,1-1,.15,3.72,3.72,0,0,1-1-.13,1.67,1.67,0,0,1-.69-.44,1.48,1.48,0,0,1-.35-.55,2,2,0,0,1-.12-.7,1.62,1.62,0,0,1,.55-1.29,2.31,2.31,0,0,1,1.58-.48h1.85v-.59a1.31,1.31,0,0,0-.36-1,1.76,1.76,0,0,0-1.22-.34,2.13,2.13,0,0,0-.93.16,1.55,1.55,0,0,0-.62.54l-.61-.56a2.15,2.15,0,0,1,.92-.73,3.82,3.82,0,0,1,1.26-.18,2.76,2.76,0,0,1,1.85.52,1.87,1.87,0,0,1,.61,1.53v4.17Zm0-2.84h-1.73c-.91,0-1.37.37-1.37,1.09a.94.94,0,0,0,.34.8,1.78,1.78,0,0,0,1.07.25,4.38,4.38,0,0,0,.75-.06,1.25,1.25,0,0,0,.63-.35,1.47,1.47,0,0,0,.31-1.06Z"/><path class="cls-54" d="M489.84,666.46a1.39,1.39,0,0,0-.47-.35,1.42,1.42,0,0,0-.59-.1,1.51,1.51,0,0,0-.61.12,1.15,1.15,0,0,0-.46.35,1.62,1.62,0,0,0-.3.53,1.93,1.93,0,0,0-.1.65v3.77h-.9v-6.15h.9V666a1.56,1.56,0,0,1,.71-.6,2.33,2.33,0,0,1,1-.22,2.43,2.43,0,0,1,.79.12,1.91,1.91,0,0,1,.69.45Z"/><path class="cls-54" d="M494.92,671.43v-.74a1.79,1.79,0,0,1-.81.65,2.62,2.62,0,0,1-.94.17,2.31,2.31,0,0,1-.86-.15,1.58,1.58,0,0,1-.64-.39,1.83,1.83,0,0,1-.38-.54,3.23,3.23,0,0,1-.23-.64,5.52,5.52,0,0,1-.11-.71q0-.36,0-.72c0-.24,0-.49,0-.73a5.12,5.12,0,0,1,.11-.7,3.33,3.33,0,0,1,.23-.65,1.73,1.73,0,0,1,1-.93,2.32,2.32,0,0,1,.86-.14,2.85,2.85,0,0,1,.94.15,2,2,0,0,1,.8.63v-3.46h.91v8.9Zm0-3.07a8.49,8.49,0,0,0-.05-.88,2.44,2.44,0,0,0-.22-.75,1.31,1.31,0,0,0-.47-.52,1.38,1.38,0,0,0-.8-.2,1.41,1.41,0,0,0-.81.2,1.38,1.38,0,0,0-.47.52,2.44,2.44,0,0,0-.22.75,8.49,8.49,0,0,0-.05.88,8.14,8.14,0,0,0,.05.87,2.28,2.28,0,0,0,.22.75,1.41,1.41,0,0,0,.47.53,1.49,1.49,0,0,0,.81.2,1.46,1.46,0,0,0,.8-.2,1.33,1.33,0,0,0,.47-.53,2.28,2.28,0,0,0,.22-.75A8.14,8.14,0,0,0,494.91,668.36Z"/><path class="cls-54" d="M502,671.43v-3.8a1.66,1.66,0,0,0-.4-1.22,1.46,1.46,0,0,0-1.1-.4,1.52,1.52,0,0,0-1.12.41,1.65,1.65,0,0,0-.41,1.21v3.8h-.9v-8.9h.9V666a2.18,2.18,0,0,1,1.72-.75,2.13,2.13,0,0,1,1.63.61,2.3,2.3,0,0,1,.58,1.66v3.95Z"/><path class="cls-54" d="M509.78,668.36a6.4,6.4,0,0,1-.14,1.34,2.35,2.35,0,0,1-.61,1.11,2.67,2.67,0,0,1-.76.51,2.62,2.62,0,0,1-1,.19,2.58,2.58,0,0,1-1-.19,2.54,2.54,0,0,1-.76-.51,2.15,2.15,0,0,1-.39-.52,3.23,3.23,0,0,1-.22-.59,4.27,4.27,0,0,1-.11-.64c0-.23,0-.46,0-.7s0-.47,0-.7a4.41,4.41,0,0,1,.11-.65,2.89,2.89,0,0,1,.22-.58,2,2,0,0,1,.39-.52,2.39,2.39,0,0,1,.76-.52,2.59,2.59,0,0,1,1-.18,2.62,2.62,0,0,1,1,.18,2.51,2.51,0,0,1,.76.52,2.27,2.27,0,0,1,.61,1.1A6.43,6.43,0,0,1,509.78,668.36Zm-.9,0c0-.18,0-.35,0-.53a4.43,4.43,0,0,0-.06-.51,3.23,3.23,0,0,0-.15-.47,1.58,1.58,0,0,0-2.5-.39,1.14,1.14,0,0,0-.27.39,1.84,1.84,0,0,0-.15.47,3,3,0,0,0-.07.51c0,.18,0,.35,0,.53s0,.35,0,.52a2.73,2.73,0,0,0,.07.51,1.92,1.92,0,0,0,.15.48,1.05,1.05,0,0,0,.27.39,1.61,1.61,0,0,0,2.23,0,1.36,1.36,0,0,0,.27-.39,3.37,3.37,0,0,0,.15-.48,4,4,0,0,0,.06-.51C508.88,668.71,508.88,668.53,508.88,668.36Z"/><path class="cls-54" d="M513.24,671.43a1.4,1.4,0,0,1-1.18-.47,1.81,1.81,0,0,1-.38-1.17v-7.26h.9v7.23a1.05,1.05,0,0,0,.18.67.77.77,0,0,0,.65.23h.48v.77Z"/><path class="cls-54" d="M519.09,671.43v-.74a1.82,1.82,0,0,1-.8.65,2.67,2.67,0,0,1-.95.17,2.39,2.39,0,0,1-.86-.15,1.65,1.65,0,0,1-.64-.39,2,2,0,0,1-.38-.54,3.22,3.22,0,0,1-.22-.64,5.54,5.54,0,0,1-.12-.71q0-.36,0-.72c0-.24,0-.49,0-.73a5.11,5.11,0,0,1,.12-.7,3.31,3.31,0,0,1,.22-.65,2,2,0,0,1,.38-.54,1.92,1.92,0,0,1,.64-.39,2.39,2.39,0,0,1,.86-.14,2.81,2.81,0,0,1,.94.15,2,2,0,0,1,.8.63v-3.46H520v8.9Zm0-3.07a8.49,8.49,0,0,0-.05-.88,2.18,2.18,0,0,0-.21-.75,1.56,1.56,0,0,0-2.08-.52,1.31,1.31,0,0,0-.47.52,2.44,2.44,0,0,0-.22.75,6.4,6.4,0,0,0-.06.88,6.15,6.15,0,0,0,.06.87,2.28,2.28,0,0,0,.22.75,1.33,1.33,0,0,0,.47.53,1.72,1.72,0,0,0,1.61,0,1.41,1.41,0,0,0,.47-.53,2.06,2.06,0,0,0,.21-.75A8.14,8.14,0,0,0,519.08,668.36Z"/><path class="cls-54" d="M522.79,668.59a2.33,2.33,0,0,0,.47,1.56,1.64,1.64,0,0,0,1.35.56,2.14,2.14,0,0,0,.89-.17,2.55,2.55,0,0,0,.72-.53l.61.53a4.44,4.44,0,0,1-.47.42,2.48,2.48,0,0,1-.49.3,2.62,2.62,0,0,1-.58.18,3.17,3.17,0,0,1-.71.07,3.23,3.23,0,0,1-1.11-.19,2.23,2.23,0,0,1-.84-.58,2.63,2.63,0,0,1-.54-1,4.45,4.45,0,0,1-.2-1.4,3.59,3.59,0,0,1,.68-2.33,2.53,2.53,0,0,1,3.71,0,3.31,3.31,0,0,1,.66,2.17v.41Zm3.25-.67c0-.13,0-.23,0-.33l0-.25c0-.07,0-.14,0-.21s-.05-.15-.08-.24a1.48,1.48,0,0,0-.57-.67,1.66,1.66,0,0,0-1.75,0,1.46,1.46,0,0,0-.56.67,2.8,2.8,0,0,0-.14.45,5.71,5.71,0,0,0-.05.58Z"/><path class="cls-54" d="M532.29,666.46a1.39,1.39,0,0,0-.47-.35,1.42,1.42,0,0,0-.59-.1,1.51,1.51,0,0,0-.61.12,1.15,1.15,0,0,0-.46.35,1.62,1.62,0,0,0-.3.53,1.93,1.93,0,0,0-.1.65v3.77h-.9v-6.15h.9V666a1.56,1.56,0,0,1,.71-.6,2.33,2.33,0,0,1,1-.22,2.43,2.43,0,0,1,.79.12,1.91,1.91,0,0,1,.69.45Z"/><path class="cls-54" d="M537.79,668.59a2.33,2.33,0,0,0,.47,1.56,1.64,1.64,0,0,0,1.35.56,2.14,2.14,0,0,0,.89-.17,2.55,2.55,0,0,0,.72-.53l.61.53a4.44,4.44,0,0,1-.47.42,2.48,2.48,0,0,1-.49.3,2.62,2.62,0,0,1-.58.18,3.17,3.17,0,0,1-.71.07,3.23,3.23,0,0,1-1.11-.19,2.23,2.23,0,0,1-.84-.58,2.63,2.63,0,0,1-.54-1,4.45,4.45,0,0,1-.2-1.4,3.59,3.59,0,0,1,.68-2.33,2.53,2.53,0,0,1,3.71,0,3.31,3.31,0,0,1,.66,2.17v.41Zm3.25-.67c0-.13,0-.23,0-.33l0-.25c0-.07,0-.14,0-.21s-.05-.15-.08-.24a1.48,1.48,0,0,0-.57-.67,1.66,1.66,0,0,0-1.75,0,1.46,1.46,0,0,0-.56.67,2.8,2.8,0,0,0-.14.45,5.71,5.71,0,0,0-.05.58Z"/><path class="cls-54" d="M547.79,671.43v-3.79a1.67,1.67,0,0,0-.4-1.23,1.5,1.5,0,0,0-1.11-.4,1.46,1.46,0,0,0-1.11.41,1.62,1.62,0,0,0-.41,1.22v3.79h-.9v-6.15h.9V666a2.12,2.12,0,0,1,.76-.57,2.49,2.49,0,0,1,1-.18,2.16,2.16,0,0,1,1.58.57,2.31,2.31,0,0,1,.63,1.71v3.94Z"/><path class="cls-54" d="M552.61,671.43a1.68,1.68,0,0,1-.7-.13,1.48,1.48,0,0,1-.49-.36,1.55,1.55,0,0,1-.29-.52,1.91,1.91,0,0,1-.1-.64V666h-.77v-.69H551v-1.93h.9v1.93h1.31V666h-1.31v3.75a1,1,0,0,0,.2.66.79.79,0,0,0,.64.24h.47v.77Z"/><path class="cls-54" d="M555.49,668.59a2.33,2.33,0,0,0,.47,1.56,1.64,1.64,0,0,0,1.35.56,2.14,2.14,0,0,0,.89-.17,2.55,2.55,0,0,0,.72-.53l.61.53a4.44,4.44,0,0,1-.47.42,2.48,2.48,0,0,1-.49.3,2.62,2.62,0,0,1-.58.18,3.17,3.17,0,0,1-.71.07,3.23,3.23,0,0,1-1.11-.19,2.15,2.15,0,0,1-.84-.58,2.63,2.63,0,0,1-.54-1,4.45,4.45,0,0,1-.2-1.4,3.59,3.59,0,0,1,.68-2.33,2.53,2.53,0,0,1,3.71,0,3.31,3.31,0,0,1,.66,2.17v.41Zm3.25-.67c0-.13,0-.23,0-.33l0-.25c0-.07,0-.14-.05-.21s0-.15-.08-.24a1.48,1.48,0,0,0-.57-.67,1.66,1.66,0,0,0-1.75,0,1.46,1.46,0,0,0-.56.67,2.8,2.8,0,0,0-.14.45,5.71,5.71,0,0,0,0,.58Z"/><path class="cls-54" d="M565,666.46a1.39,1.39,0,0,0-.47-.35,1.42,1.42,0,0,0-.59-.1,1.51,1.51,0,0,0-.61.12,1.26,1.26,0,0,0-.47.35,1.8,1.8,0,0,0-.29.53,1.93,1.93,0,0,0-.1.65v3.77h-.9v-6.15h.9V666a1.56,1.56,0,0,1,.71-.6,2.33,2.33,0,0,1,1-.22,2.43,2.43,0,0,1,.79.12,1.91,1.91,0,0,1,.69.45Z"/><path class="cls-54" d="M571.13,669.63a1.71,1.71,0,0,1-.18.8,1.75,1.75,0,0,1-.51.58,2.22,2.22,0,0,1-.79.37,4.06,4.06,0,0,1-1,.13,4.59,4.59,0,0,1-1.4-.2,3.19,3.19,0,0,1-1.13-.69l.61-.6a2,2,0,0,0,.84.55,3.34,3.34,0,0,0,1.07.16,2.27,2.27,0,0,0,1.2-.27.89.89,0,0,0,.43-.82A.81.81,0,0,0,570,669a1.35,1.35,0,0,0-.78-.28l-1-.08a2.35,2.35,0,0,1-1.37-.48,1.48,1.48,0,0,1-.47-1.17,1.67,1.67,0,0,1,.17-.76,1.59,1.59,0,0,1,.47-.56,2.21,2.21,0,0,1,.72-.36,3.26,3.26,0,0,1,.9-.12,4.41,4.41,0,0,1,1.23.16,2.6,2.6,0,0,1,1,.5l-.58.59a2.19,2.19,0,0,0-.75-.37,3.19,3.19,0,0,0-.89-.12,1.69,1.69,0,0,0-1,.27.9.9,0,0,0-.35.74.83.83,0,0,0,.25.63,1.37,1.37,0,0,0,.83.27l1,.09a3.26,3.26,0,0,1,.73.14,1.4,1.4,0,0,1,.58.3,1.34,1.34,0,0,1,.37.5A1.75,1.75,0,0,1,571.13,669.63Z"/><path class="cls-54" d="M477.14,686.31a2.81,2.81,0,0,1-1.1.2,2.92,2.92,0,0,1-1.08-.2,2.38,2.38,0,0,1-.86-.58,2.85,2.85,0,0,1-.58-1,4.46,4.46,0,0,1-.2-1.38,4.37,4.37,0,0,1,.2-1.38,2.71,2.71,0,0,1,.58-1,2.41,2.41,0,0,1,.86-.59,2.73,2.73,0,0,1,1.08-.2,2.64,2.64,0,0,1,1.1.2,3,3,0,0,1,.93.71l-.61.57a2.45,2.45,0,0,0-.67-.53A1.67,1.67,0,0,0,476,681a1.78,1.78,0,0,0-.81.17,1.62,1.62,0,0,0-.61.53,2.12,2.12,0,0,0-.31.68,4.26,4.26,0,0,0-.09,1,4.38,4.38,0,0,0,.09,1,2.22,2.22,0,0,0,.31.68,1.59,1.59,0,0,0,.61.52,1.79,1.79,0,0,0,.81.18,1.67,1.67,0,0,0,.75-.16,2.33,2.33,0,0,0,.67-.54l.61.58A3,3,0,0,1,477.14,686.31Z"/><path class="cls-54" d="M483.72,686.43v-3.8a1.66,1.66,0,0,0-.4-1.22,1.47,1.47,0,0,0-1.1-.4,1.5,1.5,0,0,0-1.12.41,1.62,1.62,0,0,0-.42,1.21v3.8h-.9v-8.9h.9V681a2.2,2.2,0,0,1,1.73-.75,2.13,2.13,0,0,1,1.63.61,2.35,2.35,0,0,1,.58,1.66v3.95Z"/><path class="cls-54" d="M490.29,686.43v-.59a2,2,0,0,1-.77.52,2.81,2.81,0,0,1-1,.15,3.67,3.67,0,0,1-1-.13,1.64,1.64,0,0,1-.7-.44,1.46,1.46,0,0,1-.34-.55,2,2,0,0,1-.12-.7,1.64,1.64,0,0,1,.54-1.29,2.33,2.33,0,0,1,1.58-.48h1.85v-.59a1.31,1.31,0,0,0-.36-1,1.72,1.72,0,0,0-1.21-.34,2.21,2.21,0,0,0-.94.16,1.53,1.53,0,0,0-.61.54l-.61-.56a2.09,2.09,0,0,1,.92-.73,3.71,3.71,0,0,1,1.25-.18,2.81,2.81,0,0,1,1.86.52,1.9,1.9,0,0,1,.6,1.53v4.17Zm0-2.84h-1.72c-.92,0-1.38.37-1.38,1.09a1,1,0,0,0,.34.8,1.81,1.81,0,0,0,1.08.25,4.35,4.35,0,0,0,.74-.06,1.18,1.18,0,0,0,.63-.35,1.43,1.43,0,0,0,.31-1.06Z"/><path class="cls-54" d="M494.92,686.43a1.42,1.42,0,0,1-1.19-.47,1.8,1.8,0,0,1-.37-1.17v-7.26h.9v7.23a1.05,1.05,0,0,0,.17.67.78.78,0,0,0,.65.23h.49v.77Z"/><path class="cls-54" d="M498.63,686.43a1.42,1.42,0,0,1-1.19-.47,1.8,1.8,0,0,1-.37-1.17v-7.26h.9v7.23a1.12,1.12,0,0,0,.17.67.8.8,0,0,0,.65.23h.49v.77Z"/><path class="cls-54" d="M501.06,683.59a2.32,2.32,0,0,0,.46,1.56,1.66,1.66,0,0,0,1.35.56,2.11,2.11,0,0,0,.89-.17,2.55,2.55,0,0,0,.72-.53l.61.53a4.44,4.44,0,0,1-.47.42,2.22,2.22,0,0,1-.49.3,2.46,2.46,0,0,1-.58.18,3.11,3.11,0,0,1-.71.07,3.17,3.17,0,0,1-1.1-.19,2.26,2.26,0,0,1-.85-.58,2.63,2.63,0,0,1-.54-1,4.47,4.47,0,0,1-.19-1.4,3.59,3.59,0,0,1,.67-2.33,2.53,2.53,0,0,1,3.71,0,3.31,3.31,0,0,1,.67,2.17v.41Zm3.25-.67c0-.13,0-.23,0-.33l0-.25a1.6,1.6,0,0,0-.05-.21c0-.08-.05-.15-.08-.24a1.52,1.52,0,0,0-.56-.67,1.56,1.56,0,0,0-.88-.25,1.53,1.53,0,0,0-.87.25,1.48,1.48,0,0,0-.57.67,2.66,2.66,0,0,0-.13.45,2.82,2.82,0,0,0-.05.58Z"/><path class="cls-54" d="M511.06,686.43v-3.79a1.67,1.67,0,0,0-.41-1.23,1.72,1.72,0,0,0-2.22,0,1.66,1.66,0,0,0-.41,1.22v3.79h-.9v-6.15h.9V681a2.12,2.12,0,0,1,.76-.57,2.49,2.49,0,0,1,1-.18,2.16,2.16,0,0,1,1.58.57,2.32,2.32,0,0,1,.64,1.71v3.94Z"/><path class="cls-54" d="M518.68,686.62a3.32,3.32,0,0,1-.17,1.06,2.67,2.67,0,0,1-.5.83,2.47,2.47,0,0,1-.81.55,2.85,2.85,0,0,1-1.08.2,4,4,0,0,1-.63,0,2.23,2.23,0,0,1-1-.4,5.09,5.09,0,0,1-.47-.39l.59-.58a3.82,3.82,0,0,0,.32.27,2.07,2.07,0,0,0,.32.19,2.29,2.29,0,0,0,.37.12,3,3,0,0,0,.46,0,1.79,1.79,0,0,0,.77-.15,1.52,1.52,0,0,0,.53-.4,1.57,1.57,0,0,0,.3-.59,2.81,2.81,0,0,0,.09-.73v-1a2,2,0,0,1-.8.63,2.51,2.51,0,0,1-.92.16,2.31,2.31,0,0,1-.86-.15,1.84,1.84,0,0,1-.63-.4,2.26,2.26,0,0,1-.61-1.14,7.2,7.2,0,0,1-.14-1.42,7.3,7.3,0,0,1,.14-1.43,2.26,2.26,0,0,1,.61-1.14,1.92,1.92,0,0,1,.64-.39,2.32,2.32,0,0,1,.86-.14,2.75,2.75,0,0,1,.93.15,1.87,1.87,0,0,1,.79.65v-.73h.89Zm-.9-3.31a7.89,7.89,0,0,0,0-.84,2.07,2.07,0,0,0-.21-.74,1.29,1.29,0,0,0-.46-.52,1.72,1.72,0,0,0-1.61,0,1.31,1.31,0,0,0-.47.52,2.07,2.07,0,0,0-.21.74,7.25,7.25,0,0,0,0,1.7,2.07,2.07,0,0,0,.21.73,1.38,1.38,0,0,0,.47.52,1.72,1.72,0,0,0,1.61,0,1.36,1.36,0,0,0,.46-.52,2.07,2.07,0,0,0,.21-.73A8,8,0,0,0,517.78,683.31Z"/><path class="cls-54" d="M521.49,683.59a2.33,2.33,0,0,0,.47,1.56,1.64,1.64,0,0,0,1.35.56,2.14,2.14,0,0,0,.89-.17,2.55,2.55,0,0,0,.72-.53l.61.53a4.44,4.44,0,0,1-.47.42,2.48,2.48,0,0,1-.49.3,2.62,2.62,0,0,1-.58.18,3.17,3.17,0,0,1-.71.07,3.23,3.23,0,0,1-1.11-.19,2.23,2.23,0,0,1-.84-.58,2.63,2.63,0,0,1-.54-1,4.45,4.45,0,0,1-.2-1.4,3.59,3.59,0,0,1,.68-2.33,2.53,2.53,0,0,1,3.71,0,3.31,3.31,0,0,1,.66,2.17v.41Zm3.25-.67c0-.13,0-.23,0-.33l0-.25c0-.07,0-.14-.05-.21s0-.15-.08-.24a1.48,1.48,0,0,0-.57-.67,1.66,1.66,0,0,0-1.75,0,1.46,1.46,0,0,0-.56.67,2.8,2.8,0,0,0-.14.45,5.71,5.71,0,0,0,0,.58Z"/><path class="cls-54" d="M534.34,686.43v-.74a1.82,1.82,0,0,1-.8.65,2.67,2.67,0,0,1-.95.17,2.39,2.39,0,0,1-.86-.15,1.65,1.65,0,0,1-.64-.39,2,2,0,0,1-.38-.54,3.22,3.22,0,0,1-.22-.64,5.54,5.54,0,0,1-.12-.71q0-.36,0-.72c0-.24,0-.49,0-.73a5.11,5.11,0,0,1,.12-.7,3.31,3.31,0,0,1,.22-.65,2,2,0,0,1,.38-.54,1.92,1.92,0,0,1,.64-.39,2.39,2.39,0,0,1,.86-.14,2.81,2.81,0,0,1,.94.15,2,2,0,0,1,.8.63v-3.46h.91v8.9Zm0-3.07a8.49,8.49,0,0,0-.05-.88,2.18,2.18,0,0,0-.21-.75,1.56,1.56,0,0,0-2.08-.52,1.31,1.31,0,0,0-.47.52,2.44,2.44,0,0,0-.22.75,6.4,6.4,0,0,0-.06.88,6.15,6.15,0,0,0,.06.87,2.28,2.28,0,0,0,.22.75,1.33,1.33,0,0,0,.47.53,1.72,1.72,0,0,0,1.61,0,1.41,1.41,0,0,0,.47-.53,2.06,2.06,0,0,0,.21-.75A8.14,8.14,0,0,0,534.33,683.36Z"/><path class="cls-54" d="M541,686.43v-.59a2.1,2.1,0,0,1-.77.52,2.87,2.87,0,0,1-1,.15,3.72,3.72,0,0,1-1-.13,1.67,1.67,0,0,1-.69-.44,1.48,1.48,0,0,1-.35-.55,2,2,0,0,1-.12-.7,1.62,1.62,0,0,1,.55-1.29,2.31,2.31,0,0,1,1.58-.48H541v-.59a1.31,1.31,0,0,0-.36-1,1.76,1.76,0,0,0-1.22-.34,2.13,2.13,0,0,0-.93.16,1.55,1.55,0,0,0-.62.54l-.61-.56a2.15,2.15,0,0,1,.92-.73,3.82,3.82,0,0,1,1.26-.18,2.76,2.76,0,0,1,1.85.52,1.87,1.87,0,0,1,.61,1.53v4.17Zm0-2.84h-1.73c-.91,0-1.37.37-1.37,1.09a.94.94,0,0,0,.34.8,1.78,1.78,0,0,0,1.07.25,4.27,4.27,0,0,0,.74-.06,1.24,1.24,0,0,0,.64-.35,1.47,1.47,0,0,0,.31-1.06Z"/><path class="cls-54" d="M545.78,686.43a1.6,1.6,0,0,1-.69-.13,1.42,1.42,0,0,1-.78-.88,1.91,1.91,0,0,1-.1-.64V681h-.78v-.69h.78v-1.93h.9v1.93h1.31V681h-1.31v3.75a1,1,0,0,0,.2.66.77.77,0,0,0,.63.24h.48v.77Z"/><path class="cls-54" d="M551.59,686.43v-.59a2,2,0,0,1-.77.52,2.81,2.81,0,0,1-1,.15,3.74,3.74,0,0,1-1.05-.13,1.67,1.67,0,0,1-.69-.44,1.46,1.46,0,0,1-.34-.55,2,2,0,0,1-.12-.7,1.64,1.64,0,0,1,.54-1.29,2.31,2.31,0,0,1,1.58-.48h1.85v-.59a1.31,1.31,0,0,0-.36-1A1.73,1.73,0,0,0,550,681a2.21,2.21,0,0,0-.94.16,1.53,1.53,0,0,0-.61.54l-.61-.56a2.12,2.12,0,0,1,.91-.73,3.82,3.82,0,0,1,1.26-.18,2.81,2.81,0,0,1,1.86.52,1.9,1.9,0,0,1,.6,1.53v4.17Zm0-2.84h-1.72c-.92,0-1.38.37-1.38,1.09a1,1,0,0,0,.34.8,1.81,1.81,0,0,0,1.08.25,4.35,4.35,0,0,0,.74-.06,1.18,1.18,0,0,0,.63-.35,1.43,1.43,0,0,0,.31-1.06Z"/><polyline class="cls-25" points="344 654 426 654 426 694 358.12 694"/><polygon class="cls-26" points="344 694 363.9 685.87 359.18 694 363.9 702.13 344 694"/><text class="cls-15" transform="translate(387.06 286.43)">2.1 Initiating <tspan class="cls-37" x="71.37" y="0">c</tspan><tspan x="77.35" y="0">a</tspan><tspan class="cls-27" x="83.92" y="0">r</tspan><tspan class="cls-56" x="88.76" y="0">dholder POST HTTPS </tspan><tspan class="cls-28" x="208.8" y="0">r</tspan><tspan x="213.63" y="0">edi</tspan><tspan class="cls-28" x="230.23" y="0">r</tspan><tspan x="235.07" y="0">ect</tspan></text><line class="cls-43" x1="684" y1="295" x2="358.12" y2="295"/><polygon class="cls-26" points="344 295 363.9 286.87 359.18 295 363.9 303.13 344 295"/></svg>