<svg id="Ebene_1" data-name="Ebene 1" xmlns="http://www.w3.org/2000/svg" viewBox="0 0 1920 1080"><defs><style>.cls-1{fill:#fff;}.cls-10,.cls-11,.cls-2,.cls-26,.cls-3,.cls-39,.cls-4,.cls-5,.cls-50,.cls-6,.cls-7,.cls-8,.cls-9{fill:none;}.cls-2,.cls-3,.cls-4{stroke:#d0d3d4;}.cls-2,.cls-3,.cls-39,.cls-4{stroke-linecap:round;}.cls-2,.cls-3,.cls-39,.cls-4,.cls-6,.cls-7{stroke-linejoin:round;}.cls-2,.cls-26,.cls-3,.cls-39,.cls-4,.cls-5,.cls-50,.cls-6,.cls-7{stroke-width:2px;}.cls-3{stroke-dasharray:1.99 7.96;}.cls-39,.cls-4{stroke-dasharray:2 8;}.cls-5,.cls-8{stroke:#002846;}.cls-10,.cls-11,.cls-26,.cls-5,.cls-50,.cls-8,.cls-9{stroke-miterlimit:10;}.cls-6,.cls-9{stroke:#1353b9;}.cls-10,.cls-7{stroke:#2983fb;}.cls-10,.cls-11,.cls-8,.cls-9{stroke-width:10px;}.cls-11,.cls-50{stroke:#a77bca;}.cls-12,.cls-16,.cls-19,.cls-23{font-size:20px;}.cls-12{fill:#002846;}.cls-12,.cls-14,.cls-16,.cls-19,.cls-23,.cls-36,.cls-44{font-family:DIN-Regular, DIN;}.cls-13{letter-spacing:-0.03em;}.cls-14,.cls-36,.cls-44{font-size:12.5px;}.cls-14,.cls-43{fill:#425563;}.cls-15{letter-spacing:-0.02em;}.cls-16{fill:#1353b9;}.cls-17{letter-spacing:-0.01em;}.cls-18{letter-spacing:-0.01em;}.cls-19{fill:#2983fb;}.cls-20{letter-spacing:-0.01em;}.cls-21{letter-spacing:-0.01em;}.cls-22{letter-spacing:-0.01em;}.cls-23{fill:#a77bca;}.cls-24{letter-spacing:-0.02em;}.cls-25{letter-spacing:0em;}.cls-26,.cls-39{stroke:#a2aaad;}.cls-27,.cls-36,.cls-44{fill:#a2aaad;}.cls-28{letter-spacing:-0.03em;}.cls-29{letter-spacing:-0.03em;}.cls-30{letter-spacing:-0.01em;}.cls-31{letter-spacing:-0.01em;}.cls-32{letter-spacing:0em;}.cls-33{letter-spacing:-0.01em;}.cls-34{letter-spacing:-0.01em;}.cls-35{letter-spacing:-0.01em;}.cls-36,.cls-45{letter-spacing:-0.04em;}.cls-37{letter-spacing:-0.05em;}.cls-38{letter-spacing:-0.04em;}.cls-40{letter-spacing:-0.05em;}.cls-41{letter-spacing:-0.07em;}.cls-42{letter-spacing:-0.05em;}.cls-46{letter-spacing:-0.05em;}.cls-47{letter-spacing:-0.01em;}.cls-48{letter-spacing:-0.01em;}.cls-49{letter-spacing:0em;}</style></defs><title>190627_3DS_Grid_v02</title><rect class="cls-1" x="-2" width="1920" height="1080"/><line class="cls-2" x1="321" y1="294" x2="321" y2="295"/><line class="cls-3" x1="321" y1="302.96" x2="321" y2="896.02"/><line class="cls-2" x1="321" y1="900" x2="321" y2="901"/><line class="cls-2" x1="704" y1="294" x2="704" y2="295"/><line class="cls-3" x1="704" y1="302.96" x2="704" y2="896.02"/><line class="cls-2" x1="704" y1="900" x2="704" y2="901"/><line class="cls-2" x1="1085" y1="294" x2="1085" y2="295"/><line class="cls-3" x1="1085" y1="302.96" x2="1085" y2="896.02"/><line class="cls-2" x1="1085" y1="900" x2="1085" y2="901"/><line class="cls-2" x1="1469" y1="321" x2="1469" y2="322"/><line class="cls-4" x1="1469" y1="330" x2="1469" y2="896"/><line class="cls-2" x1="1469" y1="900" x2="1469" y2="901"/><g id="User_Alt" data-name="User Alt"><circle class="cls-5" cx="320.83" cy="212" r="31"/><path class="cls-5" d="M330.26,198.58a9.26,9.26,0,0,0-9.43-9.49c-5.2,0-9.72,4.2-9.42,9.49.06,1.06,1,6.33,1,6.33.81,4.57,3.75,8.44,8.37,8.44s7.51-3.81,8.38-8.44C329.21,204.91,330.21,199.64,330.26,198.58Z"/><path class="cls-5" d="M297.92,232.89V232c0-4.21,3.12-7.24,7.26-8.28l15.65-2.94,15.71,2.93c4,1.26,7.2,4.07,7.2,8.28v.92"/></g><circle class="cls-6" cx="703.27" cy="186.69" r="7.04"/><circle class="cls-6" cx="680.14" cy="198.75" r="7.04"/><circle class="cls-6" cx="705.28" cy="218.87" r="7.04"/><circle class="cls-6" cx="727.41" cy="191.71" r="7.04"/><circle class="cls-6" cx="679.13" cy="234.96" r="7.04"/><circle class="cls-6" cx="727.41" cy="234.96" r="7.04"/><line class="cls-6" x1="681.14" y1="227.92" x2="699.25" y2="192.72"/><line class="cls-6" x1="707.29" y1="192.72" x2="725.39" y2="227.92"/><line class="cls-6" x1="686.17" y1="235.97" x2="720.37" y2="235.97"/><line class="cls-6" x1="684.16" y1="203.78" x2="698.24" y2="215.85"/><line class="cls-6" x1="723.38" y1="197.75" x2="712.32" y2="218.87"/><line class="cls-6" x1="703.27" y1="193.73" x2="704.27" y2="211.83"/><line class="cls-6" x1="684.16" y1="193.73" x2="696.23" y2="187.69"/><line class="cls-6" x1="698.24" y1="221.89" x2="685.16" y2="230.94"/><ellipse class="cls-7" cx="1066.23" cy="217.04" rx="11.9" ry="3.25"/><path class="cls-7" d="M1054.33,217v7.57c0,1.79,4.73,3.24,11.9,3.24s11.9-1.45,11.9-3.24V217"/><path class="cls-7" d="M1054.33,224.61v7.57c0,1.79,4.73,3.25,11.9,3.25s11.9-1.46,11.9-3.25v-7.57"/><path class="cls-7" d="M1054.33,231.1v8.65c0,1.8,4.73,3.25,11.9,3.25s11.9-1.45,11.9-3.25V231.1"/><ellipse class="cls-7" cx="1105.18" cy="217.04" rx="11.9" ry="3.25"/><path class="cls-7" d="M1093.28,217v7.57c0,1.79,4.73,3.24,11.9,3.24s11.9-1.45,11.9-3.24V217"/><path class="cls-7" d="M1093.28,224.61v7.57c0,1.79,4.73,3.25,11.9,3.25s11.9-1.46,11.9-3.25v-7.57"/><path class="cls-7" d="M1093.28,231.1v8.65c0,1.8,4.73,3.25,11.9,3.25s11.9-1.45,11.9-3.25V231.1"/><ellipse class="cls-7" cx="1085.7" cy="183.5" rx="11.9" ry="3.25"/><path class="cls-7" d="M1073.8,183.5v7.57c0,1.79,4.73,3.25,11.9,3.25s11.9-1.46,11.9-3.25V183.5"/><path class="cls-7" d="M1073.8,191.07v7.58c0,1.79,4.73,3.24,11.9,3.24s11.9-1.45,11.9-3.24v-7.58"/><path class="cls-7" d="M1073.8,197.56v8.66c0,1.79,4.73,3.24,11.9,3.24s11.9-1.45,11.9-3.24v-8.66"/><line class="cls-7" x1="1060.82" y1="211.63" x2="1060.82" y2="209.46"/><line class="cls-7" x1="1060.82" y1="207.3" x2="1060.82" y2="205.14"/><line class="cls-7" x1="1060.82" y1="202.97" x2="1060.82" y2="200.81"/><line class="cls-7" x1="1060.82" y1="198.65" x2="1060.82" y2="196.48"/><line class="cls-7" x1="1060.82" y1="194.32" x2="1060.82" y2="192.15"/><line class="cls-7" x1="1065.15" y1="194.32" x2="1065.15" y2="192.15"/><line class="cls-7" x1="1069.48" y1="194.32" x2="1069.48" y2="192.15"/><line class="cls-7" x1="1083.54" y1="228.94" x2="1083.54" y2="226.77"/><line class="cls-7" x1="1087.87" y1="228.94" x2="1087.87" y2="226.77"/><line class="cls-7" x1="1110.59" y1="211.63" x2="1110.59" y2="209.46"/><line class="cls-7" x1="1110.59" y1="207.3" x2="1110.59" y2="205.14"/><line class="cls-7" x1="1110.59" y1="202.97" x2="1110.59" y2="200.81"/><line class="cls-7" x1="1110.59" y1="198.65" x2="1110.59" y2="196.48"/><line class="cls-7" x1="1110.59" y1="194.32" x2="1110.59" y2="192.15"/><line class="cls-7" x1="1106.26" y1="194.32" x2="1106.26" y2="192.15"/><line class="cls-7" x1="1101.93" y1="194.32" x2="1101.93" y2="192.15"/><line class="cls-8" x1="321" y1="548" x2="321" y2="321"/><line class="cls-9" x1="703.5" y1="321" x2="703.5" y2="435"/><line class="cls-10" x1="1085.5" y1="340" x2="1085.5" y2="435"/><line class="cls-10" x1="1085.5" y1="716" x2="1085.5" y2="792"/><line class="cls-11" x1="1469" y1="492" x2="1469" y2="548"/><line class="cls-10" x1="1085" y1="859" x2="1085" y2="878"/><line class="cls-11" x1="1469" y1="597" x2="1469" y2="653"/><line class="cls-9" x1="703.5" y1="716" x2="704" y2="868"/><line class="cls-8" x1="321.5" y1="596" x2="321.5" y2="868"/><text class="cls-12" transform="translate(271.24 276.43)">Ca<tspan class="cls-13" x="23.26" y="0">r</tspan><tspan x="31" y="0">dholder</tspan></text><text class="cls-14" transform="translate(478.28 312.43)">1.1 Chec<tspan class="cls-15" x="47.27" y="0">k</tspan><tspan x="53.72" y="0">out</tspan></text><text class="cls-16" transform="translate(626.96 276.43)">Me<tspan class="cls-13" x="26.92" y="0">r</tspan><tspan x="34.66" y="0">chant Sy</tspan><tspan class="cls-17" x="109.78" y="0">s</tspan><tspan class="cls-18" x="119.5" y="0">t</tspan><tspan x="125.98" y="0">em</tspan></text><text class="cls-19" transform="translate(964.28 276.43)">Wi<tspan class="cls-13" x="22.14" y="0">r</tspan><tspan x="29.88" y="0">e</tspan><tspan class="cls-20" x="40.48" y="0">c</tspan><tspan x="50.04" y="0">a</tspan><tspan class="cls-13" x="60.56" y="0">r</tspan><tspan x="68.3" y="0">d </tspan><tspan class="cls-21" x="84.18" y="0">P</tspan><tspan x="96.58" y="0">ayment Ga</tspan><tspan class="cls-18" x="190.6" y="0">t</tspan><tspan class="cls-22" x="197.08" y="0">e</tspan><tspan x="207.58" y="0">way</tspan></text><text class="cls-23" transform="translate(1419.58 276.43)">I<tspan class="cls-24" x="5.64" y="0">s</tspan><tspan x="15.24" y="0">suer </tspan><tspan class="cls-21" x="60.4" y="0">A</tspan><tspan class="cls-25" x="72.42" y="0">CS</tspan></text><line class="cls-26" x1="344" y1="321" x2="669.88" y2="321"/><polygon class="cls-27" points="684 321 664.1 329.13 668.82 321 664.1 312.87 684 321"/><text class="cls-14" transform="translate(367.93 707.43)">2.4 Redi<tspan class="cls-28" x="44.34" y="0">r</tspan><tspan x="49.17" y="0">ect th</tspan><tspan class="cls-29" x="80.36" y="0">r</tspan><tspan x="85.2" y="0">ough </tspan><tspan class="cls-30" x="115.77" y="0">c</tspan><tspan x="121.75" y="0">a</tspan><tspan class="cls-29" x="128.32" y="0">r</tspan><tspan x="133.16" y="0">dholder b</tspan><tspan class="cls-29" x="185.96" y="0">r</tspan><tspan class="cls-31" x="190.8" y="0">o</tspan><tspan class="cls-32" x="197.36" y="0">wser </tspan><tspan class="cls-33" x="227.61" y="0">t</tspan><tspan x="231.66" y="0">o </tspan><tspan class="cls-33" x="241.4" y="0">t</tspan><tspan x="245.45" y="0">ermURL</tspan></text><line class="cls-26" x1="344" y1="716" x2="669.88" y2="716"/><polygon class="cls-27" points="684 716 664.1 724.13 668.82 716 664.1 707.87 684 716"/><text class="cls-14" transform="translate(820.89 707.43)">3.1 Check-pa<tspan class="cls-34" x="72.69" y="0">y</tspan><tspan x="78.15" y="0">er-</tspan><tspan class="cls-29" x="95.36" y="0">r</tspan><tspan x="100.2" y="0">esponse</tspan></text><line class="cls-26" x1="724" y1="716" x2="1049.88" y2="716"/><polygon class="cls-27" points="1064 716 1044.1 724.13 1048.82 716 1044.1 707.87 1064 716"/><text class="cls-14" transform="translate(825.66 483.43)">2.1 POST HTTPS <tspan class="cls-29" x="93.59" y="0">r</tspan><tspan x="98.42" y="0">edi</tspan><tspan class="cls-29" x="115.02" y="0">r</tspan><tspan x="119.86" y="0">ect</tspan></text><line class="cls-26" x1="344" y1="492" x2="1439.88" y2="492"/><polygon class="cls-27" points="1454 492 1434.1 500.13 1438.82 492 1434.1 483.87 1454 492"/><text class="cls-14" transform="translate(789.91 588.43)">2.3 P<tspan class="cls-29" x="27.41" y="0">r</tspan><tspan class="cls-35" x="32.25" y="0">o</tspan><tspan x="38.75" y="0">vide authenti</tspan><tspan class="cls-30" x="109.79" y="0">c</tspan><tspan x="115.76" y="0">ation c</tspan><tspan class="cls-29" x="152.53" y="0">r</tspan><tspan x="157.37" y="0">edentials</tspan></text><line class="cls-26" x1="344" y1="597" x2="1439.88" y2="597"/><polygon class="cls-27" points="1454 597 1434.1 605.13 1438.82 597 1434.1 588.87 1454 597"/><text class="cls-36" transform="translate(805.63 539.43)">2.2 Display authenti<tspan class="cls-37" x="98.85" y="0">c</tspan><tspan x="104.32" y="0">ation wind</tspan><tspan class="cls-38" x="156.02" y="0">o</tspan><tspan x="162.08" y="0">ws</tspan></text><line class="cls-39" x1="1454" y1="548" x2="358.12" y2="548"/><polygon class="cls-27" points="344 548 363.9 539.87 359.18 548 363.9 556.13 344 548"/><text class="cls-36" transform="translate(744.18 645.43)">2.4 Authenti<tspan class="cls-40" x="60.34" y="0">c</tspan><tspan x="65.81" y="0">ation </tspan><tspan class="cls-41" x="93.46" y="0">r</tspan><tspan x="97.8" y="0">esponse with POST </tspan><tspan class="cls-41" x="197.83" y="0">r</tspan><tspan x="202.17" y="0">edi</tspan><tspan class="cls-41" x="217.27" y="0">r</tspan><tspan x="221.61" y="0">ect </tspan><tspan class="cls-42" x="239.62" y="0">t</tspan><tspan x="243.17" y="0">o </tspan><tspan class="cls-42" x="251.91" y="0">t</tspan><tspan x="255.46" y="0">ermURL</tspan></text><line class="cls-39" x1="1454" y1="654" x2="358.12" y2="654"/><polygon class="cls-27" points="344 654 363.9 645.87 359.18 654 363.9 662.13 344 654"/><text class="cls-14" transform="translate(833.73 331.43)">1.2 Check-en<tspan class="cls-29" x="72.95" y="0">r</tspan><tspan x="77.79" y="0">ollment</tspan></text><path class="cls-43" d="M1216.9,384.43v-7.9l-1.66,1.46v-1l1.66-1.44h.9v8.9Z"/><path class="cls-43" d="M1221.3,384.43v-1.17h1.17v1.17Z"/><path class="cls-43" d="M1229.33,382a2.68,2.68,0,0,1-.21,1.09,2.26,2.26,0,0,1-1.39,1.27,3.4,3.4,0,0,1-1,.16,3.53,3.53,0,0,1-1-.14,2.26,2.26,0,0,1-.81-.43,2.36,2.36,0,0,1-.57-.74,2.7,2.7,0,0,1-.24-1h.9a1.9,1.9,0,0,0,.18.71,1.5,1.5,0,0,0,.38.48,1.77,1.77,0,0,0,.53.27,2.16,2.16,0,0,0,.62.09,1.74,1.74,0,0,0,1.22-.45,1.65,1.65,0,0,0,.5-1.28,1.78,1.78,0,0,0-.42-1.26,1.72,1.72,0,0,0-1.33-.46h-.19v-.8h.19a1.52,1.52,0,0,0,1.2-.43,1.69,1.69,0,0,0,.38-1.18,1.5,1.5,0,0,0-1.55-1.62,1.56,1.56,0,0,0-1.12.4,1.65,1.65,0,0,0-.48,1.09h-.9a2.61,2.61,0,0,1,.25-1,2.24,2.24,0,0,1,.53-.72,2.37,2.37,0,0,1,.77-.45,2.91,2.91,0,0,1,1-.16,2.73,2.73,0,0,1,1,.18,2.26,2.26,0,0,1,.77.49,2.14,2.14,0,0,1,.5.76,2.63,2.63,0,0,1,.18,1,2,2,0,0,1-1.2,2A2.1,2.1,0,0,1,1229.33,382Z"/><path class="cls-43" d="M1240,383a3,3,0,0,1-.67.83,3.09,3.09,0,0,1-.92.52,3.4,3.4,0,0,1-1.11.18,3.24,3.24,0,0,1-1.25-.24,3.11,3.11,0,0,1-1-.69,2.37,2.37,0,0,1-.48-.65,2.76,2.76,0,0,1-.25-.75,5.33,5.33,0,0,1-.1-.95c0-.36,0-.77,0-1.25s0-.89,0-1.24a5.23,5.23,0,0,1,.1-.95,3,3,0,0,1,.25-.76,2.53,2.53,0,0,1,.48-.65,3.11,3.11,0,0,1,1-.69,3.51,3.51,0,0,1,2.36-.05,2.88,2.88,0,0,1,.92.52,2.75,2.75,0,0,1,.67.83,3.53,3.53,0,0,1,.38,1.12h-1a2.39,2.39,0,0,0-.73-1.32,2,2,0,0,0-1.38-.48,2.22,2.22,0,0,0-.85.16,1.94,1.94,0,0,0-.69.46,1.82,1.82,0,0,0-.34.46,2.15,2.15,0,0,0-.19.59,5.83,5.83,0,0,0-.08.82c0,.32,0,.72,0,1.18s0,.86,0,1.18a6,6,0,0,0,.08.83,2.27,2.27,0,0,0,.19.59,1.78,1.78,0,0,0,.34.45,1.82,1.82,0,0,0,.69.46,2.22,2.22,0,0,0,.85.17,2.07,2.07,0,0,0,1.39-.49,2.32,2.32,0,0,0,.74-1.31h.95A3.61,3.61,0,0,1,1240,383Z"/><path class="cls-43" d="M1246.24,384.43v-3.8a1.71,1.71,0,0,0-.4-1.22,1.72,1.72,0,0,0-2.22,0,1.62,1.62,0,0,0-.42,1.21v3.8h-.9v-8.9h.9V379a2.19,2.19,0,0,1,1.72-.75,2.14,2.14,0,0,1,1.64.61,2.35,2.35,0,0,1,.58,1.66v3.95Z"/><path class="cls-43" d="M1249.89,381.59a2.32,2.32,0,0,0,.46,1.56,1.66,1.66,0,0,0,1.35.56,2.08,2.08,0,0,0,.89-.17,2.55,2.55,0,0,0,.72-.53l.61.53a4.38,4.38,0,0,1-.46.42,2.55,2.55,0,0,1-.5.3,2.46,2.46,0,0,1-.58.18,3.11,3.11,0,0,1-.71.07,3.21,3.21,0,0,1-1.1-.19,2.26,2.26,0,0,1-.85-.58,2.63,2.63,0,0,1-.54-1,4.47,4.47,0,0,1-.19-1.4,3.59,3.59,0,0,1,.67-2.33,2.26,2.26,0,0,1,1.85-.82,2.29,2.29,0,0,1,1.87.8,3.31,3.31,0,0,1,.66,2.17v.41Zm3.25-.67c0-.13,0-.23,0-.33l0-.25a1.6,1.6,0,0,0,0-.21c0-.08,0-.15-.08-.24a1.46,1.46,0,0,0-.56-.67,1.66,1.66,0,0,0-1.75,0,1.48,1.48,0,0,0-.57.67,2.66,2.66,0,0,0-.13.45,3.78,3.78,0,0,0,0,.58Z"/><path class="cls-43" d="M1259.43,384.31a2.75,2.75,0,0,1-1.09.2,2.88,2.88,0,0,1-1.08-.2,2.42,2.42,0,0,1-.87-.58,3,3,0,0,1-.57-1,4.17,4.17,0,0,1-.21-1.38,4.09,4.09,0,0,1,.21-1.38,2.85,2.85,0,0,1,.57-1,2.44,2.44,0,0,1,.87-.59,2.7,2.7,0,0,1,1.08-.2,2.59,2.59,0,0,1,1.09.2,3,3,0,0,1,.93.71l-.61.57a2.43,2.43,0,0,0-.66-.53,1.73,1.73,0,0,0-.75-.15,1.78,1.78,0,0,0-.81.17,1.58,1.58,0,0,0-.62.53,1.91,1.91,0,0,0-.3.68,3.7,3.7,0,0,0-.1,1,3.8,3.8,0,0,0,.1,1,2,2,0,0,0,.3.68,1.55,1.55,0,0,0,.62.52,1.79,1.79,0,0,0,.81.18,1.73,1.73,0,0,0,.75-.16,2.3,2.3,0,0,0,.66-.54l.61.58A3,3,0,0,1,1259.43,384.31Z"/><path class="cls-43" d="M1266.13,384.43l-2-3.15-1.2,1.38v1.77h-.9v-8.9h.9v6l2.78-3.2h1.13l-2.09,2.35,2.45,3.8Z"/><path class="cls-43" d="M1273.61,384.43a1.6,1.6,0,0,1-.69-.13,1.42,1.42,0,0,1-.78-.88,1.91,1.91,0,0,1-.1-.64V379h-.78v-.69h.78v-1.93h.9v1.93h1.31V379h-1.31v3.75a1,1,0,0,0,.2.66.77.77,0,0,0,.63.24h.48v.77Z"/><path class="cls-43" d="M1280,384.43v-3.8a1.66,1.66,0,0,0-.4-1.22,1.46,1.46,0,0,0-1.1-.4,1.48,1.48,0,0,0-1.11.41,1.62,1.62,0,0,0-.42,1.21v3.8h-.9v-8.9h.9V379a2.18,2.18,0,0,1,1.72-.75,2.12,2.12,0,0,1,1.63.61,2.3,2.3,0,0,1,.58,1.66v3.95Z"/><path class="cls-43" d="M1283.62,381.59a2.33,2.33,0,0,0,.47,1.56,1.64,1.64,0,0,0,1.35.56,2.14,2.14,0,0,0,.89-.17,2.55,2.55,0,0,0,.72-.53l.61.53a4.44,4.44,0,0,1-.47.42,2.48,2.48,0,0,1-.49.3,2.62,2.62,0,0,1-.58.18,3.11,3.11,0,0,1-.71.07,3.23,3.23,0,0,1-1.11-.19,2.31,2.31,0,0,1-.84-.58,2.63,2.63,0,0,1-.54-1,4.45,4.45,0,0,1-.2-1.4,3.59,3.59,0,0,1,.68-2.33,2.53,2.53,0,0,1,3.71,0,3.31,3.31,0,0,1,.66,2.17v.41Zm3.25-.67a3.08,3.08,0,0,0,0-.33l0-.25c0-.07,0-.14,0-.21s0-.15-.08-.24a1.48,1.48,0,0,0-.57-.67,1.53,1.53,0,0,0-.87-.25,1.56,1.56,0,0,0-.88.25,1.52,1.52,0,0,0-.56.67,2.8,2.8,0,0,0-.14.45,5.71,5.71,0,0,0-.05.58Z"/><path class="cls-43" d="M1297.24,382.63a1.6,1.6,0,0,1-.19.8,1.75,1.75,0,0,1-.51.58,2.14,2.14,0,0,1-.79.37,3.92,3.92,0,0,1-1,.13,4.54,4.54,0,0,1-1.4-.2,3.11,3.11,0,0,1-1.13-.69l.6-.6a2,2,0,0,0,.85.55,3.32,3.32,0,0,0,1.06.16,2.27,2.27,0,0,0,1.2-.27.9.9,0,0,0,.44-.82.81.81,0,0,0-.24-.62,1.37,1.37,0,0,0-.78-.28l-1-.08a2.31,2.31,0,0,1-1.36-.48,1.45,1.45,0,0,1-.47-1.17,1.62,1.62,0,0,1,.63-1.32,2.21,2.21,0,0,1,.72-.36,3.28,3.28,0,0,1,.91-.12,4.41,4.41,0,0,1,1.23.16,2.6,2.6,0,0,1,1,.5l-.59.59a2.06,2.06,0,0,0-.74-.37,3.24,3.24,0,0,0-.89-.12,1.67,1.67,0,0,0-1,.27.9.9,0,0,0-.35.74.79.79,0,0,0,.25.63,1.35,1.35,0,0,0,.83.27l1,.09a3.24,3.24,0,0,1,.74.14,1.4,1.4,0,0,1,.58.3,1.45,1.45,0,0,1,.37.5A1.93,1.93,0,0,1,1297.24,382.63Z"/><path class="cls-43" d="M1302.89,384.43v-.69a2.24,2.24,0,0,1-.77.57,2.4,2.4,0,0,1-1,.2,2.17,2.17,0,0,1-1.59-.58,2,2,0,0,1-.47-.75,3,3,0,0,1-.15-1v-3.93h.9v3.79a1.67,1.67,0,0,0,.4,1.23,1.46,1.46,0,0,0,1.1.41,1.52,1.52,0,0,0,1.12-.42,1.66,1.66,0,0,0,.41-1.22v-3.79h.92v6.15Z"/><path class="cls-43" d="M1310.91,381.36q0,.36,0,.72a5.52,5.52,0,0,1-.11.71,3.23,3.23,0,0,1-.23.64,1.83,1.83,0,0,1-.38.54,1.65,1.65,0,0,1-.64.39,2.31,2.31,0,0,1-.86.15,2.62,2.62,0,0,1-.94-.17,1.91,1.91,0,0,1-.8-.63v3.47h-.9v-8.9h.9V379a1.89,1.89,0,0,1,.8-.65,2.85,2.85,0,0,1,.94-.15,2.32,2.32,0,0,1,.86.14,1.92,1.92,0,0,1,.64.39,1.83,1.83,0,0,1,.38.54,3.33,3.33,0,0,1,.23.65,5.12,5.12,0,0,1,.11.7C1310.9,380.87,1310.91,381.12,1310.91,381.36Zm-.9,0a8.49,8.49,0,0,0,0-.88,2.18,2.18,0,0,0-.21-.75,1.56,1.56,0,0,0-2.08-.52,1.31,1.31,0,0,0-.47.52,2.44,2.44,0,0,0-.22.75,6.4,6.4,0,0,0-.06.88,6.15,6.15,0,0,0,.06.87,2.28,2.28,0,0,0,.22.75,1.33,1.33,0,0,0,.47.53,1.72,1.72,0,0,0,1.61,0,1.41,1.41,0,0,0,.47-.53,2.06,2.06,0,0,0,.21-.75A8.14,8.14,0,0,0,1310,381.36Z"/><path class="cls-43" d="M1317.72,381.36q0,.36,0,.72a5.52,5.52,0,0,1-.11.71,3.22,3.22,0,0,1-.22.64,2.07,2.07,0,0,1-.39.54,1.61,1.61,0,0,1-.63.39,2.41,2.41,0,0,1-.87.15,2.52,2.52,0,0,1-.93-.17,1.85,1.85,0,0,1-.8-.63v3.47h-.9v-8.9h.9V379a1.83,1.83,0,0,1,.8-.65,2.75,2.75,0,0,1,.93-.15,2.41,2.41,0,0,1,.87.14,1.87,1.87,0,0,1,.63.39,2.07,2.07,0,0,1,.39.54,3.31,3.31,0,0,1,.22.65,5.12,5.12,0,0,1,.11.7C1317.71,380.87,1317.72,381.12,1317.72,381.36Zm-.9,0a6.4,6.4,0,0,0,0-.88,2.18,2.18,0,0,0-.21-.75,1.31,1.31,0,0,0-.47-.52,1.45,1.45,0,0,0-2.08.52,2.44,2.44,0,0,0-.22.75,8.49,8.49,0,0,0,0,.88,8.14,8.14,0,0,0,0,.87,2.28,2.28,0,0,0,.22.75,1.41,1.41,0,0,0,.47.53,1.72,1.72,0,0,0,1.61,0,1.33,1.33,0,0,0,.47-.53,2.06,2.06,0,0,0,.21-.75A6.17,6.17,0,0,0,1316.82,381.36Z"/><path class="cls-43" d="M1324.35,381.36a6.4,6.4,0,0,1-.14,1.34,2.35,2.35,0,0,1-.61,1.11,2.41,2.41,0,0,1-1.76.7,2.46,2.46,0,0,1-1.77-.7,2.39,2.39,0,0,1-.38-.52,3.23,3.23,0,0,1-.22-.59,3.29,3.29,0,0,1-.11-.64,6.14,6.14,0,0,1,0-1.4,3.39,3.39,0,0,1,.11-.65,2.89,2.89,0,0,1,.22-.58,2.17,2.17,0,0,1,.38-.52,2.43,2.43,0,0,1,.77-.52,2.59,2.59,0,0,1,1-.18,2.66,2.66,0,0,1,1,.18,2.51,2.51,0,0,1,.76.52,2.27,2.27,0,0,1,.61,1.1A6.43,6.43,0,0,1,1324.35,381.36Zm-.9,0c0-.18,0-.35,0-.53a3,3,0,0,0-.07-.51,1.84,1.84,0,0,0-.15-.47,1.27,1.27,0,0,0-.26-.39,1.62,1.62,0,0,0-2.24,0,1.27,1.27,0,0,0-.26.39,2.36,2.36,0,0,0-.16.47,3,3,0,0,0-.06.51c0,.18,0,.35,0,.53s0,.35,0,.52a2.74,2.74,0,0,0,.06.51,2.46,2.46,0,0,0,.16.48,1.16,1.16,0,0,0,.26.39,1.62,1.62,0,0,0,2.24,0,1.16,1.16,0,0,0,.26-.39,1.92,1.92,0,0,0,.15-.48,2.73,2.73,0,0,0,.07-.51C1323.45,381.71,1323.45,381.53,1323.45,381.36Z"/><path class="cls-43" d="M1329.71,379.46a1.5,1.5,0,0,0-.47-.35,1.42,1.42,0,0,0-.59-.1,1.48,1.48,0,0,0-.61.12,1.26,1.26,0,0,0-.47.35,1.8,1.8,0,0,0-.29.53,1.93,1.93,0,0,0-.11.65v3.77h-.9v-6.15h.9V379a1.64,1.64,0,0,1,.72-.6,2.33,2.33,0,0,1,1-.22,2.43,2.43,0,0,1,.79.12,1.79,1.79,0,0,1,.68.45Z"/><path class="cls-43" d="M1333.26,384.43a1.6,1.6,0,0,1-.69-.13,1.42,1.42,0,0,1-.78-.88,1.91,1.91,0,0,1-.1-.64V379h-.78v-.69h.78v-1.93h.9v1.93h1.31V379h-1.31v3.75a1,1,0,0,0,.2.66.77.77,0,0,0,.63.24h.48v.77Z"/><path class="cls-43" d="M1336.15,381.59a2.32,2.32,0,0,0,.46,1.56,1.66,1.66,0,0,0,1.35.56,2.08,2.08,0,0,0,.89-.17,2.55,2.55,0,0,0,.72-.53l.62.53a5.71,5.71,0,0,1-.47.42,2.55,2.55,0,0,1-.5.3,2.46,2.46,0,0,1-.58.18,3.08,3.08,0,0,1-.7.07,3.23,3.23,0,0,1-1.11-.19,2.15,2.15,0,0,1-.84-.58,2.51,2.51,0,0,1-.55-1,4.47,4.47,0,0,1-.19-1.4,3.59,3.59,0,0,1,.67-2.33,2.26,2.26,0,0,1,1.85-.82,2.29,2.29,0,0,1,1.87.8,3.31,3.31,0,0,1,.66,2.17v.41Zm3.25-.67c0-.13,0-.23,0-.33a1.9,1.9,0,0,0,0-.25,1.6,1.6,0,0,0,0-.21c0-.08,0-.15-.08-.24a1.46,1.46,0,0,0-.56-.67,1.66,1.66,0,0,0-1.75,0,1.4,1.4,0,0,0-.56.67,2.06,2.06,0,0,0-.14.45,3.78,3.78,0,0,0,0,.58Z"/><path class="cls-43" d="M1345.89,384.43v-.74a1.79,1.79,0,0,1-.81.65,2.62,2.62,0,0,1-.94.17,2.41,2.41,0,0,1-.87-.15,1.61,1.61,0,0,1-.63-.39,2.07,2.07,0,0,1-.39-.54,3.22,3.22,0,0,1-.22-.64,5.52,5.52,0,0,1-.11-.71q0-.36,0-.72c0-.24,0-.49,0-.73a5.12,5.12,0,0,1,.11-.7,3.31,3.31,0,0,1,.22-.65,2.07,2.07,0,0,1,.39-.54,1.87,1.87,0,0,1,.63-.39,2.41,2.41,0,0,1,.87-.14,2.75,2.75,0,0,1,.93.15,1.93,1.93,0,0,1,.8.63v-3.46h.92v8.9Zm0-3.07a6.4,6.4,0,0,0,0-.88,2.18,2.18,0,0,0-.21-.75,1.31,1.31,0,0,0-.47-.52,1.45,1.45,0,0,0-2.08.52,2.44,2.44,0,0,0-.22.75,6.4,6.4,0,0,0,0,.88,6.17,6.17,0,0,0,0,.87,2.28,2.28,0,0,0,.22.75,1.41,1.41,0,0,0,.47.53,1.72,1.72,0,0,0,1.61,0,1.33,1.33,0,0,0,.47-.53,2.06,2.06,0,0,0,.21-.75A6.17,6.17,0,0,0,1345.87,381.36Z"/><path class="cls-43" d="M1356.76,382a2.68,2.68,0,0,1-.21,1.09,2.34,2.34,0,0,1-.55.79,2.44,2.44,0,0,1-.83.48,3.4,3.4,0,0,1-1,.16,3.53,3.53,0,0,1-1-.14,2.11,2.11,0,0,1-.81-.43,2.35,2.35,0,0,1-.81-1.78h.9a1.73,1.73,0,0,0,.17.71,1.53,1.53,0,0,0,.39.48,1.66,1.66,0,0,0,.53.27,2.06,2.06,0,0,0,.62.09,1.75,1.75,0,0,0,1.22-.45,1.64,1.64,0,0,0,.49-1.28,1.78,1.78,0,0,0-.42-1.26,1.7,1.7,0,0,0-1.33-.46h-.19v-.8h.19a1.54,1.54,0,0,0,1.21-.43,1.74,1.74,0,0,0,.38-1.18,1.53,1.53,0,0,0-.45-1.2,1.56,1.56,0,0,0-1.1-.42,1.59,1.59,0,0,0-1.13.4,1.69,1.69,0,0,0-.47,1.09h-.9a2.39,2.39,0,0,1,.78-1.68,2.37,2.37,0,0,1,.77-.45,2.91,2.91,0,0,1,1-.16,2.64,2.64,0,0,1,1,.18,2.21,2.21,0,0,1,.78.49,2.14,2.14,0,0,1,.5.76,2.63,2.63,0,0,1,.18,1,2,2,0,0,1-1.2,2A2.09,2.09,0,0,1,1356.76,382Z"/><path class="cls-43" d="M1365,379.88c0,.31,0,.64,0,1a6.63,6.63,0,0,1-.08,1,3.82,3.82,0,0,1-.26.95,2.33,2.33,0,0,1-.53.8,2.67,2.67,0,0,1-1,.61,3.74,3.74,0,0,1-1.28.21h-3v-8.9h3a3.74,3.74,0,0,1,1.28.21,2.7,2.7,0,0,1,1,.62,2.31,2.31,0,0,1,.53.77,3.24,3.24,0,0,1,.26.87,5.77,5.77,0,0,1,.08.94C1365,379.26,1365,379.57,1365,379.88Zm-1,0c0-.27,0-.55,0-.82a6.23,6.23,0,0,0,0-.77,3.78,3.78,0,0,0-.18-.7,1.71,1.71,0,0,0-.35-.56,1.86,1.86,0,0,0-.79-.5,2.93,2.93,0,0,0-1-.15h-1.94v7.2h1.94a3.22,3.22,0,0,0,1-.14,2,2,0,0,0,.79-.51,1.57,1.57,0,0,0,.35-.59,4.44,4.44,0,0,0,.18-.76,7.92,7.92,0,0,0,0-.85C1364.05,380.44,1364.05,380.16,1364.05,379.88Z"/><path class="cls-43" d="M1372.6,382a2.42,2.42,0,0,1-.22,1.06,2.11,2.11,0,0,1-.63.79,2.87,2.87,0,0,1-1,.5,4.17,4.17,0,0,1-1.26.18,4.64,4.64,0,0,1-1.71-.28,3.86,3.86,0,0,1-1.34-.9l.65-.65a3.14,3.14,0,0,0,1.12.76,3.49,3.49,0,0,0,1.31.22,2.54,2.54,0,0,0,1.54-.43,1.47,1.47,0,0,0,.56-1.22,1.83,1.83,0,0,0-.11-.64,1.23,1.23,0,0,0-.32-.48,1.34,1.34,0,0,0-.44-.26,3.79,3.79,0,0,0-.72-.16l-1-.16a3.35,3.35,0,0,1-1.64-.68,2.13,2.13,0,0,1-.67-1.66,2.63,2.63,0,0,1,.2-1,2.17,2.17,0,0,1,.57-.8,2.65,2.65,0,0,1,.89-.5,3.67,3.67,0,0,1,1.19-.18,4,4,0,0,1,1.46.23,3.72,3.72,0,0,1,1.19.74l-.61.61a2.83,2.83,0,0,0-.89-.56,3.14,3.14,0,0,0-1.19-.2,2,2,0,0,0-1.39.45,1.57,1.57,0,0,0-.48,1.2,1.3,1.3,0,0,0,.4,1,2.38,2.38,0,0,0,.53.3,3.46,3.46,0,0,0,.67.18l1,.15.56.11a3.17,3.17,0,0,1,.43.13,2.15,2.15,0,0,1,.34.17,1.66,1.66,0,0,1,.3.22A2.18,2.18,0,0,1,1372.6,382Z"/><path class="cls-43" d="M1232.31,399.43h-.8l-2.25-6.15h1l1.67,4.94,1.69-4.94h1Z"/><path class="cls-43" d="M1236.28,396.59a2.32,2.32,0,0,0,.46,1.56,1.65,1.65,0,0,0,1.35.56,2.11,2.11,0,0,0,.89-.17,2.55,2.55,0,0,0,.72-.53l.61.53a4.44,4.44,0,0,1-.47.42,2.22,2.22,0,0,1-.49.3,2.62,2.62,0,0,1-.58.18,3.11,3.11,0,0,1-.71.07,3.17,3.17,0,0,1-1.1-.19,2.26,2.26,0,0,1-.85-.58,2.63,2.63,0,0,1-.54-1,4.47,4.47,0,0,1-.19-1.4,3.59,3.59,0,0,1,.67-2.33,2.53,2.53,0,0,1,3.71,0,3.31,3.31,0,0,1,.66,2.17v.41Zm3.25-.67c0-.13,0-.23,0-.33l0-.25a1.6,1.6,0,0,0,0-.21c0-.08-.05-.15-.08-.24a1.52,1.52,0,0,0-.56-.67,1.58,1.58,0,0,0-.88-.25,1.51,1.51,0,0,0-.87.25,1.48,1.48,0,0,0-.57.67,4.39,4.39,0,0,0-.14.45,4,4,0,0,0,0,.58Z"/><path class="cls-43" d="M1245.78,394.46a1.52,1.52,0,0,0-.48-.35,1.42,1.42,0,0,0-.59-.1,1.51,1.51,0,0,0-.61.12,1.23,1.23,0,0,0-.46.35,1.62,1.62,0,0,0-.3.53,1.93,1.93,0,0,0-.1.65v3.77h-.9v-6.15h.9V394a1.54,1.54,0,0,1,.72-.6,2.25,2.25,0,0,1,1-.22,2.53,2.53,0,0,1,.8.12,2,2,0,0,1,.68.45Z"/><path class="cls-43" d="M1251.91,397.63a1.71,1.71,0,0,1-.18.8,1.75,1.75,0,0,1-.51.58,2.14,2.14,0,0,1-.79.37,4,4,0,0,1-1,.13,4.64,4.64,0,0,1-1.4-.2,3.07,3.07,0,0,1-1.12-.69l.6-.6a2,2,0,0,0,.85.55,3.27,3.27,0,0,0,1.06.16,2.27,2.27,0,0,0,1.2-.27.9.9,0,0,0,.44-.82.79.79,0,0,0-.25-.62,1.35,1.35,0,0,0-.78-.28l-1-.08a2.35,2.35,0,0,1-1.37-.48,1.48,1.48,0,0,1-.47-1.17,1.67,1.67,0,0,1,.17-.76,1.59,1.59,0,0,1,.47-.56,2.21,2.21,0,0,1,.72-.36,3.28,3.28,0,0,1,.91-.12,4.41,4.41,0,0,1,1.23.16,2.68,2.68,0,0,1,1,.5l-.59.59a2.15,2.15,0,0,0-.74-.37,3.26,3.26,0,0,0-.9-.12,1.63,1.63,0,0,0-1,.27.87.87,0,0,0-.35.74.82.82,0,0,0,.24.63,1.37,1.37,0,0,0,.83.27l1,.09a3.35,3.35,0,0,1,.74.14,1.42,1.42,0,0,1,.57.3,1.34,1.34,0,0,1,.37.5A1.75,1.75,0,0,1,1251.91,397.63Z"/><path class="cls-43" d="M1253.63,391.53v-1h1v1Zm0,7.9v-6.15h.9v6.15Z"/><path class="cls-43" d="M1261.54,396.36a5.79,5.79,0,0,1-.15,1.34,2.25,2.25,0,0,1-.6,1.11,2.46,2.46,0,0,1-1.77.7,2.41,2.41,0,0,1-1.76-.7,2.1,2.1,0,0,1-.38-.52,3.23,3.23,0,0,1-.22-.59,3.29,3.29,0,0,1-.12-.64c0-.23,0-.46,0-.7s0-.47,0-.7a3.4,3.4,0,0,1,.12-.65,2.89,2.89,0,0,1,.22-.58,1.93,1.93,0,0,1,.38-.52,2.51,2.51,0,0,1,.76-.52,2.66,2.66,0,0,1,1-.18,2.59,2.59,0,0,1,1,.18,2.43,2.43,0,0,1,.77.52,2.18,2.18,0,0,1,.6,1.1A5.82,5.82,0,0,1,1261.54,396.36Zm-.9,0c0-.18,0-.35,0-.53a3,3,0,0,0-.07-.51,1.84,1.84,0,0,0-.15-.47,1.27,1.27,0,0,0-.26-.39A1.54,1.54,0,0,0,1259,394a1.51,1.51,0,0,0-1.11.45,1.3,1.3,0,0,0-.27.39,3.23,3.23,0,0,0-.15.47,4.46,4.46,0,0,0-.07.51c0,.18,0,.35,0,.53s0,.35,0,.52a3.92,3.92,0,0,0,.07.51,3.37,3.37,0,0,0,.15.48,1.19,1.19,0,0,0,.27.39,1.51,1.51,0,0,0,1.11.45,1.54,1.54,0,0,0,1.13-.45,1.16,1.16,0,0,0,.26-.39,1.92,1.92,0,0,0,.15-.48,2.73,2.73,0,0,0,.07-.51C1260.63,396.71,1260.64,396.53,1260.64,396.36Z"/><path class="cls-43" d="M1267.4,399.43v-3.79a1.67,1.67,0,0,0-.41-1.23,1.72,1.72,0,0,0-2.22,0,1.66,1.66,0,0,0-.41,1.22v3.79h-.9v-6.15h.9V394a2.15,2.15,0,0,1,.77-.57,2.49,2.49,0,0,1,1-.18,2.13,2.13,0,0,1,1.57.57,2.28,2.28,0,0,1,.64,1.71v3.94Z"/><path class="cls-43" d="M1279.45,399.43h-.84l-1.61-4.77-1.6,4.77h-.84l-2-6.15h1l1.41,4.94,1.61-4.94h.78l1.62,4.94,1.4-4.94h1Z"/><path class="cls-43" d="M1282.6,391.53v-1h1v1Zm.05,7.9v-6.15h.9v6.15Z"/><path class="cls-43" d="M1287.54,399.43a1.68,1.68,0,0,1-.7-.13,1.35,1.35,0,0,1-.48-.36,1.58,1.58,0,0,1-.3-.52,2.2,2.2,0,0,1-.1-.64V394h-.77v-.69h.77v-1.93h.9v1.93h1.31V394h-1.31v3.75a1,1,0,0,0,.2.66.8.8,0,0,0,.64.24h.47v.77Z"/><path class="cls-43" d="M1293.9,399.43v-3.8a1.66,1.66,0,0,0-.4-1.22,1.47,1.47,0,0,0-1.1-.4,1.5,1.5,0,0,0-1.12.41,1.62,1.62,0,0,0-.42,1.21v3.8h-.9v-8.9h.9V394a2.2,2.2,0,0,1,1.73-.75,2.13,2.13,0,0,1,1.63.61,2.3,2.3,0,0,1,.58,1.66v3.95Z"/><path class="cls-43" d="M1304.72,397a2.68,2.68,0,0,1-.2,1.09,2.26,2.26,0,0,1-1.39,1.27,3.4,3.4,0,0,1-1,.16,3.53,3.53,0,0,1-1-.14,2.18,2.18,0,0,1-.81-.43,2.36,2.36,0,0,1-.57-.74,2.7,2.7,0,0,1-.24-1h.9a1.9,1.9,0,0,0,.17.71,1.53,1.53,0,0,0,.39.48,1.77,1.77,0,0,0,.53.27,2.11,2.11,0,0,0,.62.09,1.75,1.75,0,0,0,1.22-.45,1.64,1.64,0,0,0,.49-1.28,1.82,1.82,0,0,0-.41-1.26,1.73,1.73,0,0,0-1.34-.46h-.18v-.8h.18a1.53,1.53,0,0,0,1.21-.43,1.69,1.69,0,0,0,.38-1.18,1.53,1.53,0,0,0-.45-1.2,1.71,1.71,0,0,0-2.22,0,1.65,1.65,0,0,0-.48,1.09h-.9a2.61,2.61,0,0,1,.25-1,2.24,2.24,0,0,1,.53-.72,2.37,2.37,0,0,1,.77-.45,2.91,2.91,0,0,1,.95-.16,2.73,2.73,0,0,1,1,.18,2.26,2.26,0,0,1,.77.49,2.14,2.14,0,0,1,.5.76,2.63,2.63,0,0,1,.18,1,2,2,0,0,1-1.2,2A2.09,2.09,0,0,1,1304.72,397Z"/><path class="cls-43" d="M1313,394.88v1a8.26,8.26,0,0,1-.09,1,4.28,4.28,0,0,1-.25.95,2.48,2.48,0,0,1-.53.8,2.8,2.8,0,0,1-1,.61,3.68,3.68,0,0,1-1.27.21h-3v-8.9h3a3.68,3.68,0,0,1,1.27.21,2.83,2.83,0,0,1,1,.62,2.47,2.47,0,0,1,.53.77,3.63,3.63,0,0,1,.25.87,7.13,7.13,0,0,1,.09.94Zm-1,0v-.82c0-.27,0-.53-.06-.77a2.67,2.67,0,0,0-.18-.7,1.71,1.71,0,0,0-.35-.56,1.83,1.83,0,0,0-.78-.5,3,3,0,0,0-1-.15h-1.93v7.2h1.93a3.34,3.34,0,0,0,1-.14,2,2,0,0,0,.78-.51,1.57,1.57,0,0,0,.35-.59,3.13,3.13,0,0,0,.18-.76c0-.28,0-.56.06-.85Z"/><path class="cls-43" d="M1320.56,397a2.42,2.42,0,0,1-.22,1.06,2.08,2.08,0,0,1-.62.79,2.92,2.92,0,0,1-1,.5,4.15,4.15,0,0,1-1.25.18,4.66,4.66,0,0,1-1.72-.28,3.74,3.74,0,0,1-1.33-.9l.65-.65a3,3,0,0,0,1.11.76,3.49,3.49,0,0,0,1.31.22,2.54,2.54,0,0,0,1.54-.43,1.47,1.47,0,0,0,.56-1.22,1.62,1.62,0,0,0-.11-.64,1.21,1.21,0,0,0-.31-.48,1.38,1.38,0,0,0-.45-.26,3.61,3.61,0,0,0-.72-.16l-1-.16a3.31,3.31,0,0,1-1.64-.68,2.1,2.1,0,0,1-.68-1.66,2.63,2.63,0,0,1,.2-1,2.43,2.43,0,0,1,.57-.8,2.8,2.8,0,0,1,.9-.5,3.61,3.61,0,0,1,1.18-.18,4.05,4.05,0,0,1,1.47.23,3.79,3.79,0,0,1,1.18.74l-.61.61a2.72,2.72,0,0,0-.89-.56,3.09,3.09,0,0,0-1.18-.2,2,2,0,0,0-1.39.45,1.54,1.54,0,0,0-.49,1.2,1.3,1.3,0,0,0,.4,1,2.38,2.38,0,0,0,.53.3,3.67,3.67,0,0,0,.67.18l1,.15.55.11a3.17,3.17,0,0,1,.43.13,2.85,2.85,0,0,1,.35.17,2,2,0,0,1,.29.22A2.18,2.18,0,0,1,1320.56,397Z"/><path class="cls-43" d="M1331,397a2.42,2.42,0,0,1-.22,1.06,2.08,2.08,0,0,1-.62.79,3,3,0,0,1-1,.5,4.17,4.17,0,0,1-1.26.18,4.57,4.57,0,0,1-1.71-.28,3.69,3.69,0,0,1-1.34-.9l.65-.65a3.2,3.2,0,0,0,1.11.76,3.53,3.53,0,0,0,1.31.22,2.52,2.52,0,0,0,1.54-.43,1.44,1.44,0,0,0,.56-1.22,1.83,1.83,0,0,0-.1-.64,1.23,1.23,0,0,0-.32-.48,1.34,1.34,0,0,0-.44-.26,4,4,0,0,0-.72-.16l-1-.16a3.31,3.31,0,0,1-1.64-.68,2.1,2.1,0,0,1-.67-1.66,2.46,2.46,0,0,1,.2-1,2.27,2.27,0,0,1,.56-.8,2.8,2.8,0,0,1,.9-.5,3.63,3.63,0,0,1,1.19-.18,4,4,0,0,1,1.46.23,3.83,3.83,0,0,1,1.19.74l-.62.61a2.79,2.79,0,0,0-.88-.56,3.18,3.18,0,0,0-1.19-.2,2,2,0,0,0-1.39.45,1.57,1.57,0,0,0-.49,1.2,1.33,1.33,0,0,0,.4,1,2.63,2.63,0,0,0,.53.3,3.9,3.9,0,0,0,.67.18l1,.15.56.11a3.68,3.68,0,0,1,.43.13,2.69,2.69,0,0,1,.34.17,2,2,0,0,1,.29.22A2.18,2.18,0,0,1,1331,397Z"/><path class="cls-43" d="M1333.41,396.59a2.38,2.38,0,0,0,.46,1.56,1.66,1.66,0,0,0,1.35.56,2.16,2.16,0,0,0,.9-.17,2.7,2.7,0,0,0,.72-.53l.61.53a5.71,5.71,0,0,1-.47.42,2.48,2.48,0,0,1-.49.3,2.55,2.55,0,0,1-.59.18,3,3,0,0,1-.7.07,3.23,3.23,0,0,1-1.11-.19,2.15,2.15,0,0,1-.84-.58,2.5,2.5,0,0,1-.54-1,4.45,4.45,0,0,1-.2-1.4,3.59,3.59,0,0,1,.68-2.33,2.53,2.53,0,0,1,3.71,0,3.31,3.31,0,0,1,.66,2.17v.41Zm3.25-.67c0-.13,0-.23,0-.33l0-.25a1.66,1.66,0,0,0-.06-.21,1.35,1.35,0,0,0-.08-.24,1.4,1.4,0,0,0-.56-.67,1.66,1.66,0,0,0-1.75,0,1.4,1.4,0,0,0-.56.67,2.8,2.8,0,0,0-.14.45,5.71,5.71,0,0,0,0,.58Z"/><path class="cls-43" d="M1342.91,394.46a1.5,1.5,0,0,0-.47-.35,1.42,1.42,0,0,0-.59-.1,1.48,1.48,0,0,0-.61.12,1.26,1.26,0,0,0-.47.35,1.8,1.8,0,0,0-.29.53,1.93,1.93,0,0,0-.11.65v3.77h-.9v-6.15h.9V394a1.64,1.64,0,0,1,.72-.6,2.29,2.29,0,0,1,1-.22,2.47,2.47,0,0,1,.79.12,1.79,1.79,0,0,1,.68.45Z"/><path class="cls-43" d="M1346.8,399.43h-.8l-2.25-6.15h1l1.68,4.94,1.69-4.94h1Z"/><path class="cls-43" d="M1350.76,396.59a2.38,2.38,0,0,0,.46,1.56,1.66,1.66,0,0,0,1.35.56,2.16,2.16,0,0,0,.9-.17,2.7,2.7,0,0,0,.72-.53l.61.53a5.71,5.71,0,0,1-.47.42,2.48,2.48,0,0,1-.49.3,2.55,2.55,0,0,1-.59.18,3,3,0,0,1-.7.07,3.23,3.23,0,0,1-1.11-.19,2.15,2.15,0,0,1-.84-.58,2.64,2.64,0,0,1-.55-1,4.79,4.79,0,0,1-.19-1.4,3.59,3.59,0,0,1,.68-2.33,2.53,2.53,0,0,1,3.71,0,3.31,3.31,0,0,1,.66,2.17v.41Zm3.25-.67c0-.13,0-.23,0-.33l0-.25a1.66,1.66,0,0,0-.06-.21,1.35,1.35,0,0,0-.08-.24,1.4,1.4,0,0,0-.56-.67,1.66,1.66,0,0,0-1.75,0,1.4,1.4,0,0,0-.56.67,2.8,2.8,0,0,0-.14.45,5.71,5.71,0,0,0,0,.58Z"/><path class="cls-43" d="M1360.26,394.46a1.5,1.5,0,0,0-.47-.35,1.42,1.42,0,0,0-.59-.1,1.48,1.48,0,0,0-.61.12,1.26,1.26,0,0,0-.47.35,1.8,1.8,0,0,0-.29.53,1.93,1.93,0,0,0-.11.65v3.77h-.9v-6.15h.9V394a1.64,1.64,0,0,1,.72-.6,2.29,2.29,0,0,1,1-.22,2.47,2.47,0,0,1,.79.12,1.79,1.79,0,0,1,.68.45Z"/><line class="cls-26" x1="724" y1="340" x2="1049.88" y2="340"/><polygon class="cls-27" points="1064 340 1044.1 348.13 1048.82 340 1044.1 331.87 1064 340"/><text class="cls-14" transform="translate(812.53 859.43)">4.1 Authorization or pu<tspan class="cls-29" x="125.65" y="0">r</tspan><tspan x="130.49" y="0">chase</tspan></text><line class="cls-26" x1="724" y1="868" x2="1049.88" y2="868"/><polygon class="cls-27" points="1064 868 1044.1 876.13 1048.82 868 1044.1 859.87 1064 868"/><text class="cls-14" transform="translate(806.7 423.43)">1.4 Check-en<tspan class="cls-29" x="72.95" y="0">r</tspan><tspan x="77.79" y="0">ollment </tspan><tspan class="cls-29" x="123.74" y="0">r</tspan><tspan x="128.57" y="0">esponse</tspan></text><line class="cls-26" x1="1064" y1="432" x2="738.12" y2="432"/><polygon class="cls-27" points="724 432 743.9 423.87 739.18 432 743.9 440.13 724 432"/><text class="cls-44" transform="translate(793.86 782.43)">3.3 Check-pa<tspan class="cls-34" x="72.69" y="0">y</tspan><tspan x="78.15" y="0">er-</tspan><tspan class="cls-29" x="95.36" y="0">r</tspan><tspan x="100.2" y="0">esponse </tspan><tspan class="cls-29" x="149.42" y="0">r</tspan><tspan x="154.26" y="0">esponse</tspan></text><line class="cls-39" x1="1064" y1="791" x2="738.12" y2="791"/><polygon class="cls-27" points="724 791 743.9 782.87 739.18 791 743.9 799.13 724 791"/><polyline class="cls-26" points="1111 367 1193 367 1193 407 1125.12 407"/><polygon class="cls-27" points="1111 407 1130.9 398.87 1126.18 407 1130.9 415.13 1111 407"/><text class="cls-14" transform="translate(1219.76 756.43)">3.2 <tspan class="cls-45" x="19.54" y="0">V</tspan><tspan x="25.86" y="0">erify </tspan><tspan class="cls-46" x="53.54" y="0">P</tspan><tspan x="60.79" y="0">ARes </tspan></text><polyline class="cls-26" points="1111 734 1193 734 1193 774 1125.12 774"/><polygon class="cls-27" points="1111 774 1130.9 765.87 1126.18 774 1130.9 782.13 1111 774"/><text class="cls-14" transform="translate(1589.94 524.43)">2.2 De<tspan class="cls-47" x="34.57" y="0">c</tspan><tspan x="40.51" y="0">ode </tspan><tspan class="cls-46" x="63.69" y="0">P</tspan><tspan x="70.94" y="0">AReq</tspan></text><polyline class="cls-26" points="1486 500 1568 500 1568 540 1500.12 540"/><polygon class="cls-27" points="1486 540 1505.9 531.87 1501.18 540 1505.9 548.13 1486 540"/><text class="cls-14" transform="translate(387.06 427.43)">2.1 Initiating <tspan class="cls-48" x="71.37" y="0">c</tspan><tspan x="77.35" y="0">a</tspan><tspan class="cls-28" x="83.92" y="0">r</tspan><tspan class="cls-49" x="88.76" y="0">dholder POST HTTPS </tspan><tspan class="cls-29" x="208.8" y="0">r</tspan><tspan x="213.63" y="0">edi</tspan><tspan class="cls-29" x="230.23" y="0">r</tspan><tspan x="235.07" y="0">ect</tspan></text><line class="cls-39" x1="684" y1="436" x2="358.12" y2="436"/><polygon class="cls-27" points="344 436 363.9 427.87 359.18 436 363.9 444.13 344 436"/><path id="layer2" class="cls-50" d="M1494.24,195h-62.8a3.47,3.47,0,0,0-3.47,3.47v8.1h60.23"/><path id="layer2-2" data-name="layer2" class="cls-50" d="M1428,206.61v28.92a3.47,3.47,0,0,0,3.47,3.47h40.76"/><line id="layer1" class="cls-50" x1="1437.23" y1="215.86" x2="1460.36" y2="215.86"/><line id="layer1-2" data-name="layer1" class="cls-50" x1="1437.23" y1="225.12" x2="1446.47" y2="225.12"/><polyline id="Tick" class="cls-50" points="1468.3 220.16 1488.05 238.59 1509.23 196.47"/></svg>