<svg id="Ebene_1" data-name="Ebene 1" xmlns="http://www.w3.org/2000/svg" viewBox="0 0 1920 1080"><defs><style>.cls-1{fill:#fff;}.cls-10,.cls-11,.cls-12,.cls-2,.cls-25,.cls-3,.cls-4,.cls-41,.cls-5,.cls-6,.cls-7,.cls-8,.cls-9{fill:none;}.cls-2,.cls-3,.cls-4{stroke:#d0d3d4;}.cls-2,.cls-3,.cls-4,.cls-41{stroke-linecap:round;}.cls-2,.cls-3,.cls-4,.cls-41,.cls-6,.cls-7{stroke-linejoin:round;}.cls-2,.cls-25,.cls-3,.cls-4,.cls-41,.cls-5,.cls-6,.cls-7,.cls-8{stroke-width:2px;}.cls-3,.cls-41{stroke-dasharray:2 8;}.cls-4{stroke-dasharray:2.01 8.04;}.cls-5,.cls-9{stroke:#002846;}.cls-10,.cls-11,.cls-12,.cls-25,.cls-5,.cls-8,.cls-9{stroke-miterlimit:10;}.cls-10,.cls-6{stroke:#1353b9;}.cls-11,.cls-7{stroke:#2983fb;}.cls-12,.cls-8{stroke:#ff7373;}.cls-10,.cls-11,.cls-12,.cls-9{stroke-width:10px;}.cls-13,.cls-17,.cls-20{font-size:20px;}.cls-13{fill:#002846;}.cls-13,.cls-15,.cls-17,.cls-20,.cls-36,.cls-50{font-family:DIN-Regular, DIN;}.cls-14{letter-spacing:-0.03em;}.cls-15,.cls-36,.cls-50{font-size:12.5px;}.cls-15,.cls-49{fill:#425563;}.cls-16{letter-spacing:-0.02em;}.cls-17{fill:#1353b9;}.cls-18{letter-spacing:-0.01em;}.cls-19{letter-spacing:-0.01em;}.cls-20{fill:#2983fb;}.cls-21{letter-spacing:-0.01em;}.cls-22{letter-spacing:-0.01em;}.cls-23{letter-spacing:-0.01em;}.cls-24{fill:#ff7373;}.cls-25,.cls-41{stroke:#a2aaad;}.cls-26,.cls-36,.cls-50{fill:#a2aaad;}.cls-27{letter-spacing:-0.03em;}.cls-28{letter-spacing:-0.03em;}.cls-29{letter-spacing:-0.01em;}.cls-30{letter-spacing:-0.01em;}.cls-31{letter-spacing:0em;}.cls-32{letter-spacing:-0.01em;}.cls-33{letter-spacing:-0.01em;}.cls-34{letter-spacing:-0.01em;}.cls-35{letter-spacing:-0.02em;}.cls-36{letter-spacing:-0.04em;}.cls-37{letter-spacing:-0.06em;}.cls-38{letter-spacing:-0.07em;}.cls-39{letter-spacing:-0.06em;}.cls-40{letter-spacing:-0.06em;}.cls-42{letter-spacing:-0.05em;}.cls-43{letter-spacing:-0.04em;}.cls-44{letter-spacing:-0.05em;}.cls-45{letter-spacing:-0.05em;}.cls-46{letter-spacing:-0.06em;}.cls-47{letter-spacing:-0.05em;}.cls-48{letter-spacing:-0.04em;}.cls-51{letter-spacing:-0.01em;}.cls-52{letter-spacing:0em;}</style></defs><title>190627_3DS_Grid_v02</title><rect class="cls-1" width="1920" height="1080"/><line class="cls-2" x1="321" y1="246" x2="321" y2="247"/><line class="cls-3" x1="321" y1="255" x2="321" y2="941"/><line class="cls-2" x1="321" y1="945" x2="321" y2="946"/><line class="cls-2" x1="704" y1="246" x2="704" y2="247"/><line class="cls-3" x1="704" y1="255" x2="704" y2="941"/><line class="cls-2" x1="704" y1="945" x2="704" y2="946"/><line class="cls-2" x1="1085" y1="246" x2="1085" y2="247"/><line class="cls-3" x1="1085" y1="255" x2="1085" y2="941"/><line class="cls-2" x1="1085" y1="945" x2="1085" y2="946"/><line class="cls-2" x1="1469" y1="273" x2="1469" y2="274"/><line class="cls-4" x1="1469" y1="282.04" x2="1469" y2="940.98"/><line class="cls-2" x1="1469" y1="945" x2="1469" y2="946"/><g id="User_Alt" data-name="User Alt"><circle class="cls-5" cx="320.83" cy="164" r="31"/><path class="cls-5" d="M330.26,150.58a9.26,9.26,0,0,0-9.43-9.49c-5.2,0-9.72,4.2-9.42,9.49.06,1.06,1,6.33,1,6.33.81,4.57,3.75,8.44,8.37,8.44s7.51-3.81,8.38-8.44C329.21,156.91,330.21,151.64,330.26,150.58Z"/><path class="cls-5" d="M297.92,184.89V184c0-4.21,3.12-7.24,7.26-8.28l15.65-2.94,15.71,2.93c4,1.26,7.2,4.07,7.2,8.28v.92"/></g><circle class="cls-6" cx="703.27" cy="138.69" r="7.04"/><circle class="cls-6" cx="680.14" cy="150.75" r="7.04"/><circle class="cls-6" cx="705.28" cy="170.87" r="7.04"/><circle class="cls-6" cx="727.41" cy="143.71" r="7.04"/><circle class="cls-6" cx="679.13" cy="186.96" r="7.04"/><circle class="cls-6" cx="727.41" cy="186.96" r="7.04"/><line class="cls-6" x1="681.14" y1="179.92" x2="699.25" y2="144.72"/><line class="cls-6" x1="707.29" y1="144.72" x2="725.39" y2="179.92"/><line class="cls-6" x1="686.17" y1="187.97" x2="720.37" y2="187.97"/><line class="cls-6" x1="684.16" y1="155.78" x2="698.24" y2="167.85"/><line class="cls-6" x1="723.38" y1="149.75" x2="712.32" y2="170.87"/><line class="cls-6" x1="703.27" y1="145.73" x2="704.27" y2="163.83"/><line class="cls-6" x1="684.16" y1="145.73" x2="696.23" y2="139.69"/><line class="cls-6" x1="698.24" y1="173.89" x2="685.16" y2="182.94"/><ellipse class="cls-7" cx="1066.23" cy="169.04" rx="11.9" ry="3.25"/><path class="cls-7" d="M1054.33,169v7.57c0,1.79,4.73,3.24,11.9,3.24s11.9-1.45,11.9-3.24V169"/><path class="cls-7" d="M1054.33,176.61v7.57c0,1.79,4.73,3.25,11.9,3.25s11.9-1.46,11.9-3.25v-7.57"/><path class="cls-7" d="M1054.33,183.1v8.65c0,1.8,4.73,3.25,11.9,3.25s11.9-1.45,11.9-3.25V183.1"/><ellipse class="cls-7" cx="1105.18" cy="169.04" rx="11.9" ry="3.25"/><path class="cls-7" d="M1093.28,169v7.57c0,1.79,4.73,3.24,11.9,3.24s11.9-1.45,11.9-3.24V169"/><path class="cls-7" d="M1093.28,176.61v7.57c0,1.79,4.73,3.25,11.9,3.25s11.9-1.46,11.9-3.25v-7.57"/><path class="cls-7" d="M1093.28,183.1v8.65c0,1.8,4.73,3.25,11.9,3.25s11.9-1.45,11.9-3.25V183.1"/><ellipse class="cls-7" cx="1085.7" cy="135.5" rx="11.9" ry="3.25"/><path class="cls-7" d="M1073.8,135.5v7.57c0,1.79,4.73,3.25,11.9,3.25s11.9-1.46,11.9-3.25V135.5"/><path class="cls-7" d="M1073.8,143.07v7.58c0,1.79,4.73,3.24,11.9,3.24s11.9-1.45,11.9-3.24v-7.58"/><path class="cls-7" d="M1073.8,149.56v8.66c0,1.79,4.73,3.24,11.9,3.24s11.9-1.45,11.9-3.24v-8.66"/><line class="cls-7" x1="1060.82" y1="163.63" x2="1060.82" y2="161.46"/><line class="cls-7" x1="1060.82" y1="159.3" x2="1060.82" y2="157.14"/><line class="cls-7" x1="1060.82" y1="154.97" x2="1060.82" y2="152.81"/><line class="cls-7" x1="1060.82" y1="150.65" x2="1060.82" y2="148.48"/><line class="cls-7" x1="1060.82" y1="146.32" x2="1060.82" y2="144.15"/><line class="cls-7" x1="1065.15" y1="146.32" x2="1065.15" y2="144.15"/><line class="cls-7" x1="1069.48" y1="146.32" x2="1069.48" y2="144.15"/><line class="cls-7" x1="1083.54" y1="180.94" x2="1083.54" y2="178.77"/><line class="cls-7" x1="1087.87" y1="180.94" x2="1087.87" y2="178.77"/><line class="cls-7" x1="1110.59" y1="163.63" x2="1110.59" y2="161.46"/><line class="cls-7" x1="1110.59" y1="159.3" x2="1110.59" y2="157.14"/><line class="cls-7" x1="1110.59" y1="154.97" x2="1110.59" y2="152.81"/><line class="cls-7" x1="1110.59" y1="150.65" x2="1110.59" y2="148.48"/><line class="cls-7" x1="1110.59" y1="146.32" x2="1110.59" y2="144.15"/><line class="cls-7" x1="1106.26" y1="146.32" x2="1106.26" y2="144.15"/><line class="cls-7" x1="1101.93" y1="146.32" x2="1101.93" y2="144.15"/><polyline id="Check" class="cls-8" points="1453.71 161.09 1468.51 175.9 1494.84 136.24"/><line class="cls-8" x1="1498.48" y1="195" x2="1486.63" y2="183.15"/><polyline class="cls-8" points="1486.63 194.09 1486.63 183.15 1497.57 183.15"/><line class="cls-8" x1="1437.8" y1="195" x2="1449.65" y2="183.15"/><polyline class="cls-8" points="1449.65 194.09 1449.65 183.15 1438.71 183.15"/><line class="cls-8" x1="1449.65" y1="145.93" x2="1437.8" y2="134.09"/><polyline class="cls-8" points="1438.71 145.93 1449.65 145.93 1449.65 135"/><path class="cls-8" d="M1457.68,136.24a30.19,30.19,0,0,1,20.92,0"/><path class="cls-8" d="M1439.78,174.61a30.18,30.18,0,0,1,.1-20.53"/><path class="cls-8" d="M1478.57,192.74a30.33,30.33,0,0,1-20.86,0"/><path class="cls-8" d="M1496.4,154.08a30.18,30.18,0,0,1,0,20.89"/><line class="cls-9" x1="321" y1="500" x2="321" y2="273"/><line class="cls-10" x1="703.5" y1="273" x2="703.5" y2="387"/><line class="cls-11" x1="1085.5" y1="292" x2="1085.5" y2="387"/><line class="cls-11" x1="1085.5" y1="759" x2="1085.5" y2="835"/><line class="cls-12" x1="1469" y1="444" x2="1469" y2="500"/><line class="cls-12" x1="1469" y1="538" x2="1469" y2="557"/><line class="cls-11" x1="1085" y1="902" x2="1085" y2="921"/><line class="cls-12" x1="1469" y1="639" x2="1469" y2="695"/><line class="cls-10" x1="703.5" y1="759" x2="704" y2="911"/><line class="cls-9" x1="321.5" y1="548" x2="321.5" y2="911"/><text class="cls-13" transform="translate(271.24 228.43)">Ca<tspan class="cls-14" x="23.26" y="0">r</tspan><tspan x="31" y="0">dholder</tspan></text><text class="cls-15" transform="translate(478.28 264.43)">1.1 Chec<tspan class="cls-16" x="47.27" y="0">k</tspan><tspan x="53.72" y="0">out</tspan></text><text class="cls-17" transform="translate(626.96 228.43)">Me<tspan class="cls-14" x="26.92" y="0">r</tspan><tspan x="34.66" y="0">chant Sy</tspan><tspan class="cls-18" x="109.78" y="0">s</tspan><tspan class="cls-19" x="119.5" y="0">t</tspan><tspan x="125.98" y="0">em</tspan></text><text class="cls-20" transform="translate(964.28 228.43)">Wi<tspan class="cls-14" x="22.14" y="0">r</tspan><tspan x="29.88" y="0">e</tspan><tspan class="cls-21" x="40.48" y="0">c</tspan><tspan x="50.04" y="0">a</tspan><tspan class="cls-14" x="60.56" y="0">r</tspan><tspan x="68.3" y="0">d </tspan><tspan class="cls-22" x="84.18" y="0">P</tspan><tspan x="96.58" y="0">ayment Ga</tspan><tspan class="cls-19" x="190.6" y="0">t</tspan><tspan class="cls-23" x="197.08" y="0">e</tspan><tspan x="207.58" y="0">way</tspan></text><path class="cls-24" d="M1386,228.43h-1.42l-3.16-11.4-3.17,11.4h-1.41l-3.65-14.24h1.62l2.78,11.48,3.14-11.48h1.36l3.14,11.48,2.78-11.48h1.62Z"/><path class="cls-24" d="M1391.71,215.79v-1.62h1.62v1.62Zm.08,12.64v-9.84h1.44v9.84Z"/><path class="cls-24" d="M1402.35,220.47a2.73,2.73,0,0,0-.76-.56,2.27,2.27,0,0,0-.94-.16,2.42,2.42,0,0,0-1,.2,2,2,0,0,0-.74.56,2.86,2.86,0,0,0-.47.84,3.19,3.19,0,0,0-.17,1v6h-1.44v-9.84h1.44v1.2a2.69,2.69,0,0,1,1.15-1,3.82,3.82,0,0,1,1.61-.35,3.89,3.89,0,0,1,1.27.2,2.8,2.8,0,0,1,1.09.72Z"/><path class="cls-24" d="M1405.49,223.89a3.82,3.82,0,0,0,.74,2.5,2.67,2.67,0,0,0,2.16.88,3.32,3.32,0,0,0,1.43-.27,4.05,4.05,0,0,0,1.15-.85l1,.86a6.46,6.46,0,0,1-.75.67,4,4,0,0,1-.79.48,4.22,4.22,0,0,1-.93.29,5.59,5.59,0,0,1-1.13.1,5,5,0,0,1-1.77-.3,3.46,3.46,0,0,1-1.35-.92,4.39,4.39,0,0,1-.87-1.57,7.46,7.46,0,0,1-.31-2.25,5.73,5.73,0,0,1,1.08-3.72,4,4,0,0,1,5.94,0,5.3,5.3,0,0,1,1.06,3.48v.66Zm5.2-1.08c0-.2,0-.37,0-.52a4,4,0,0,0-.05-.4,2.21,2.21,0,0,0-.08-.35,2.36,2.36,0,0,0-.13-.37,2.25,2.25,0,0,0-.9-1.08,2.65,2.65,0,0,0-2.8,0,2.37,2.37,0,0,0-.9,1.08,4.72,4.72,0,0,0-.22.72,7.84,7.84,0,0,0-.08.92Z"/><path class="cls-24" d="M1420.76,228.23a4.21,4.21,0,0,1-1.75.32,4.67,4.67,0,0,1-1.73-.31,3.77,3.77,0,0,1-1.38-.94,4.37,4.37,0,0,1-.92-1.58,7.53,7.53,0,0,1,0-4.41,4.5,4.5,0,0,1,.92-1.57,3.93,3.93,0,0,1,1.38-1,4.67,4.67,0,0,1,1.73-.32,4.38,4.38,0,0,1,1.75.32,4.46,4.46,0,0,1,1.49,1.14l-1,.92a3.54,3.54,0,0,0-1.06-.86,2.73,2.73,0,0,0-1.2-.24,3.06,3.06,0,0,0-1.3.28,2.7,2.7,0,0,0-1,.84,3.28,3.28,0,0,0-.49,1.09,8.08,8.08,0,0,0,0,3.1,3.28,3.28,0,0,0,.49,1.09,2.61,2.61,0,0,0,1,.84,2.92,2.92,0,0,0,1.3.28,2.6,2.6,0,0,0,1.2-.25,3.6,3.6,0,0,0,1.06-.87l1,.94A4.46,4.46,0,0,1,1420.76,228.23Z"/><path class="cls-24" d="M1430.33,228.43v-.94a3.39,3.39,0,0,1-1.23.83,4.82,4.82,0,0,1-1.61.23,5.57,5.57,0,0,1-1.67-.21,2.67,2.67,0,0,1-1.11-.69,2.36,2.36,0,0,1-.55-.89,3.4,3.4,0,0,1-.19-1.11,2.64,2.64,0,0,1,.87-2.07,3.73,3.73,0,0,1,2.53-.77h3v-.94a2.1,2.1,0,0,0-.58-1.62,2.79,2.79,0,0,0-1.94-.54,3.59,3.59,0,0,0-1.5.25,2.64,2.64,0,0,0-1,.87l-1-.9a3.37,3.37,0,0,1,1.47-1.16,5.83,5.83,0,0,1,2-.3,4.48,4.48,0,0,1,3,.83,3,3,0,0,1,1,2.45v6.68Zm0-4.54h-2.76c-1.46,0-2.2.58-2.2,1.74a1.48,1.48,0,0,0,.54,1.27,2.83,2.83,0,0,0,1.72.41,6.29,6.29,0,0,0,1.19-.1,1.87,1.87,0,0,0,1-.56,2.27,2.27,0,0,0,.5-1.7Z"/><path class="cls-24" d="M1440.77,220.47a2.73,2.73,0,0,0-.76-.56,2.27,2.27,0,0,0-.94-.16,2.42,2.42,0,0,0-1,.2,2,2,0,0,0-.74.56,2.86,2.86,0,0,0-.47.84,3.19,3.19,0,0,0-.17,1v6h-1.44v-9.84h1.44v1.2a2.69,2.69,0,0,1,1.15-1,3.82,3.82,0,0,1,1.61-.35,3.89,3.89,0,0,1,1.27.2,2.8,2.8,0,0,1,1.09.72Z"/><path class="cls-24" d="M1448.89,228.43v-1.18a3,3,0,0,1-1.29,1,4.31,4.31,0,0,1-1.51.26,4.08,4.08,0,0,1-1.38-.23,2.76,2.76,0,0,1-1-.63,3.27,3.27,0,0,1-.61-.86,5.44,5.44,0,0,1-.36-1,9.88,9.88,0,0,1-.18-1.13c0-.38,0-.77,0-1.16s0-.77,0-1.16a10.24,10.24,0,0,1,.18-1.13,5.69,5.69,0,0,1,.36-1,3.27,3.27,0,0,1,.61-.86,2.89,2.89,0,0,1,1-.63,4.08,4.08,0,0,1,1.38-.23,4.22,4.22,0,0,1,1.5.25,3,3,0,0,1,1.28,1v-5.54h1.46v14.24Zm0-4.92a10.65,10.65,0,0,0-.08-1.4,3.43,3.43,0,0,0-.34-1.2,2.09,2.09,0,0,0-.75-.84,2.32,2.32,0,0,0-1.29-.32,2.37,2.37,0,0,0-1.29.32,2.25,2.25,0,0,0-.75.84,3.92,3.92,0,0,0-.35,1.2,10.93,10.93,0,0,0,0,2.8,3.76,3.76,0,0,0,.35,1.2,2.18,2.18,0,0,0,.75.84,2.29,2.29,0,0,0,1.29.32,2.24,2.24,0,0,0,1.29-.32,2,2,0,0,0,.75-.84,3.31,3.31,0,0,0,.34-1.2A10.65,10.65,0,0,0,1448.87,223.51Z"/><path class="cls-24" d="M1466.29,224.55a4.27,4.27,0,0,1-.33,1.73,3.6,3.6,0,0,1-2.22,2,5.11,5.11,0,0,1-1.63.26,5.44,5.44,0,0,1-1.58-.22,3.5,3.5,0,0,1-2.21-1.87,4.23,4.23,0,0,1-.39-1.67h1.44a2.89,2.89,0,0,0,.28,1.13,2.37,2.37,0,0,0,.62.77,2.55,2.55,0,0,0,.85.44,3.29,3.29,0,0,0,1,.14,2.76,2.76,0,0,0,2-.72,2.61,2.61,0,0,0,.79-2,2.89,2.89,0,0,0-.67-2,2.77,2.77,0,0,0-2.13-.73h-.3v-1.28h.3a2.44,2.44,0,0,0,1.93-.69,2.69,2.69,0,0,0,.61-1.88,2.58,2.58,0,0,0-4.28-1.95,2.7,2.7,0,0,0-.76,1.74h-1.44a4.21,4.21,0,0,1,.39-1.54,3.69,3.69,0,0,1,.86-1.15,4,4,0,0,1,1.23-.72,4.45,4.45,0,0,1,1.52-.25,4.28,4.28,0,0,1,1.59.28,3.64,3.64,0,0,1,1.24.78,3.45,3.45,0,0,1,.8,1.22,4,4,0,0,1,.29,1.58,3.14,3.14,0,0,1-1.92,3.15A3.34,3.34,0,0,1,1466.29,224.55Z"/><path class="cls-24" d="M1479.47,221.15c0,.49,0,1,0,1.56a10.71,10.71,0,0,1-.13,1.61,6.35,6.35,0,0,1-.41,1.51,3.63,3.63,0,0,1-.85,1.28,4,4,0,0,1-1.56,1,5.74,5.74,0,0,1-2,.34h-4.88V214.19h4.88a5.74,5.74,0,0,1,2,.34,4.15,4.15,0,0,1,1.56,1,3.73,3.73,0,0,1,.85,1.23,5.76,5.76,0,0,1,.41,1.4,9.29,9.29,0,0,1,.13,1.5C1479.47,220.16,1479.47,220.66,1479.47,221.15Zm-1.52,0c0-.44,0-.87,0-1.31a8.32,8.32,0,0,0-.09-1.24,4.52,4.52,0,0,0-.28-1.11,2.68,2.68,0,0,0-.56-.9,3.17,3.17,0,0,0-1.26-.81,5,5,0,0,0-1.54-.23h-3.1v11.52h3.1a4.7,4.7,0,0,0,1.54-.23A3,3,0,0,0,1477,226a2.55,2.55,0,0,0,.56-.95,5.3,5.3,0,0,0,.28-1.22,9.77,9.77,0,0,0,.09-1.35C1478,222,1478,221.59,1478,221.15Z"/><path class="cls-24" d="M1491.63,224.51a3.84,3.84,0,0,1-.35,1.69,3.35,3.35,0,0,1-1,1.27,4.6,4.6,0,0,1-1.56.8,6.64,6.64,0,0,1-2,.28,7.5,7.5,0,0,1-2.74-.44,6.13,6.13,0,0,1-2.14-1.44l1-1a5,5,0,0,0,1.78,1.22,5.85,5.85,0,0,0,2.1.34,4,4,0,0,0,2.46-.69,2.31,2.31,0,0,0,.9-1.95,2.8,2.8,0,0,0-.17-1,1.76,1.76,0,0,0-.51-.76,2.11,2.11,0,0,0-.71-.43,6.48,6.48,0,0,0-1.15-.25l-1.66-.26a5.23,5.23,0,0,1-2.62-1.08,3.38,3.38,0,0,1-1.08-2.66,4.22,4.22,0,0,1,.32-1.65,3.65,3.65,0,0,1,.91-1.27,4.34,4.34,0,0,1,1.43-.81,5.92,5.92,0,0,1,1.9-.29,6.76,6.76,0,0,1,2.34.37,6,6,0,0,1,1.9,1.19l-1,1a4.83,4.83,0,0,0-1.42-.91,5.17,5.17,0,0,0-1.9-.31,3.15,3.15,0,0,0-2.22.72,2.49,2.49,0,0,0-.78,1.92,2.08,2.08,0,0,0,.64,1.64,3,3,0,0,0,.85.48,5.47,5.47,0,0,0,1.07.3l1.56.24c.34.06.63.11.89.17a4.73,4.73,0,0,1,.69.21,3.52,3.52,0,0,1,.55.27,2.73,2.73,0,0,1,.47.35A3.5,3.5,0,0,1,1491.63,224.51Z"/><path class="cls-24" d="M1508,228.43l-3.24-6.32h-3.42v6.32h-1.52V214.19h5.46a5.14,5.14,0,0,1,1.7.27,3.79,3.79,0,0,1,1.34.78,3.36,3.36,0,0,1,.87,1.25,4.2,4.2,0,0,1,.31,1.66,3.72,3.72,0,0,1-.86,2.55,3.85,3.85,0,0,1-2.24,1.27l3.38,6.46Zm0-10.26a2.39,2.39,0,0,0-.79-2,3.13,3.13,0,0,0-2.05-.65h-3.8v5.22h3.8a3.12,3.12,0,0,0,2.05-.64A2.35,2.35,0,0,0,1508,218.17Z"/><path class="cls-24" d="M1520.17,223.51a9.27,9.27,0,0,1-.23,2.15,3.57,3.57,0,0,1-1,1.77,3.69,3.69,0,0,1-1.22.82,4.42,4.42,0,0,1-3.2,0,3.91,3.91,0,0,1-1.22-.82,3.48,3.48,0,0,1-.61-.83,5.07,5.07,0,0,1-.36-.94,8.18,8.18,0,0,1-.18-1c0-.36,0-.73,0-1.12s0-.74,0-1.11a8.35,8.35,0,0,1,.18-1,5.36,5.36,0,0,1,.36-.94,3.69,3.69,0,0,1,.61-.83,4.09,4.09,0,0,1,1.22-.82,4.42,4.42,0,0,1,3.2,0,3.85,3.85,0,0,1,1.22.82,3.61,3.61,0,0,1,1,1.77A9.33,9.33,0,0,1,1520.17,223.51Zm-1.44,0c0-.28,0-.56,0-.84a4.48,4.48,0,0,0-.1-.82,3,3,0,0,0-.24-.75,2.17,2.17,0,0,0-.42-.63,2.59,2.59,0,0,0-3.58,0,2.2,2.2,0,0,0-.43.63,4.12,4.12,0,0,0-.24.75,5.58,5.58,0,0,0-.11.82c0,.28,0,.56,0,.84s0,.56,0,.84a5.4,5.4,0,0,0,.11.82,4.5,4.5,0,0,0,.24.76,1.82,1.82,0,0,0,.43.62,2.59,2.59,0,0,0,3.58,0,1.79,1.79,0,0,0,.42-.62,3.21,3.21,0,0,0,.24-.76,4.38,4.38,0,0,0,.1-.82C1518.73,224.07,1518.73,223.79,1518.73,223.51Z"/><path class="cls-24" d="M1529.47,228.43v-1.1a3.24,3.24,0,0,1-1.23.91,3.77,3.77,0,0,1-1.55.31,3.42,3.42,0,0,1-2.54-.92,3.19,3.19,0,0,1-.76-1.21,4.67,4.67,0,0,1-.24-1.55v-6.28h1.44v6.06a2.73,2.73,0,0,0,.64,2,2.39,2.39,0,0,0,1.76.65,2.42,2.42,0,0,0,1.79-.66,2.62,2.62,0,0,0,.67-2v-6.06h1.46v9.84Z"/><path class="cls-24" d="M1537.25,228.43a2.75,2.75,0,0,1-1.11-.21,2.25,2.25,0,0,1-.78-.57,2.65,2.65,0,0,1-.47-.84,3.4,3.4,0,0,1-.16-1v-6h-1.24v-1.1h1.24v-3.08h1.44v3.08h2.1v1.1h-2.1v6a1.6,1.6,0,0,0,.32,1.06,1.28,1.28,0,0,0,1,.38h.76v1.24Z"/><path class="cls-24" d="M1541.87,223.89a3.82,3.82,0,0,0,.74,2.5,2.67,2.67,0,0,0,2.16.88,3.32,3.32,0,0,0,1.43-.27,4.19,4.19,0,0,0,1.15-.85l1,.86a6.46,6.46,0,0,1-.75.67,4,4,0,0,1-.79.48,4.22,4.22,0,0,1-.93.29,5.59,5.59,0,0,1-1.13.1,5,5,0,0,1-1.77-.3,3.46,3.46,0,0,1-1.35-.92,4.39,4.39,0,0,1-.87-1.57,7.46,7.46,0,0,1-.31-2.25,5.73,5.73,0,0,1,1.08-3.72,4,4,0,0,1,5.94,0,5.3,5.3,0,0,1,1.06,3.48v.66Zm5.2-1.08c0-.2,0-.37,0-.52a4,4,0,0,0,0-.4,2.21,2.21,0,0,0-.08-.35,2.36,2.36,0,0,0-.13-.37,2.25,2.25,0,0,0-.9-1.08,2.65,2.65,0,0,0-2.8,0,2.37,2.37,0,0,0-.9,1.08,4.72,4.72,0,0,0-.22.72,6.13,6.13,0,0,0-.08.92Z"/><path class="cls-24" d="M1557.07,220.47a2.88,2.88,0,0,0-.76-.56,2.27,2.27,0,0,0-.94-.16,2.42,2.42,0,0,0-1,.2,2,2,0,0,0-.74.56,2.65,2.65,0,0,0-.47.84,3.19,3.19,0,0,0-.17,1v6h-1.44v-9.84H1553v1.2a2.69,2.69,0,0,1,1.15-1,3.82,3.82,0,0,1,1.61-.35,3.89,3.89,0,0,1,1.27.2,2.8,2.8,0,0,1,1.09.72Z"/><path class="cls-24" d="M1396.23,254.31c-.32-.32-.59-.6-.82-.85a5.38,5.38,0,0,1-.62-.87,3,3,0,0,1-.35-1,9.08,9.08,0,0,1-.07-1V240.09a9.24,9.24,0,0,1,.07-1,3.17,3.17,0,0,1,.35-1,5.38,5.38,0,0,1,.62-.87c.23-.24.5-.53.82-.85l1,1-.61.62a3.14,3.14,0,0,0-.47.68,3.68,3.68,0,0,0-.32,1.62v10.2a3.65,3.65,0,0,0,.32,1.62,2.72,2.72,0,0,0,.47.68l.61.62Z"/><path class="cls-24" d="M1410.25,242.37a4.42,4.42,0,0,1-.32,1.74,3.61,3.61,0,0,1-.9,1.32,4,4,0,0,1-1.39.84,5.09,5.09,0,0,1-1.79.3h-3.78v5.86h-1.52V238.19h5.3a5.33,5.33,0,0,1,1.79.29,4,4,0,0,1,1.39.84,3.78,3.78,0,0,1,.9,1.32A4.37,4.37,0,0,1,1410.25,242.37Zm-1.52,0a2.62,2.62,0,0,0-.84-2.12,3.32,3.32,0,0,0-2.18-.7h-3.64v5.66h3.64a3.27,3.27,0,0,0,2.18-.71A2.62,2.62,0,0,0,1408.73,242.37Z"/><path class="cls-24" d="M1419.11,252.43v-1.1a3.24,3.24,0,0,1-1.23.91,3.77,3.77,0,0,1-1.55.31,3.42,3.42,0,0,1-2.54-.92,3.19,3.19,0,0,1-.76-1.21,4.67,4.67,0,0,1-.24-1.55v-6.28h1.44v6.06a2.73,2.73,0,0,0,.64,2,2.39,2.39,0,0,0,1.76.65,2.42,2.42,0,0,0,1.79-.66,2.62,2.62,0,0,0,.67-2v-6.06h1.46v9.84Z"/><path class="cls-24" d="M1432,247.51a11.13,11.13,0,0,1,0,1.16,6.83,6.83,0,0,1-.18,1.13,4.33,4.33,0,0,1-.36,1,2.87,2.87,0,0,1-.61.86,2.6,2.6,0,0,1-1,.63,4,4,0,0,1-1.38.23,4.3,4.3,0,0,1-1.5-.26,3,3,0,0,1-1.28-1v1.18h-1.44V238.19h1.44v5.54a3,3,0,0,1,1.28-1,4.29,4.29,0,0,1,1.5-.25,4,4,0,0,1,1.38.23,2.72,2.72,0,0,1,1,.63,2.87,2.87,0,0,1,.61.86,4.49,4.49,0,0,1,.36,1,7,7,0,0,1,.18,1.13A11.37,11.37,0,0,1,1432,247.51Zm-1.44,0a10.65,10.65,0,0,0-.08-1.4,3.43,3.43,0,0,0-.34-1.2,2.09,2.09,0,0,0-.75-.84,2.32,2.32,0,0,0-1.29-.32,2.37,2.37,0,0,0-1.29.32,2.25,2.25,0,0,0-.75.84,3.92,3.92,0,0,0-.35,1.2,10.93,10.93,0,0,0,0,2.8,3.76,3.76,0,0,0,.35,1.2,2.18,2.18,0,0,0,.75.84,2.29,2.29,0,0,0,1.29.32,2.24,2.24,0,0,0,1.29-.32,2,2,0,0,0,.75-.84,3.31,3.31,0,0,0,.34-1.2A10.65,10.65,0,0,0,1430.51,247.51Z"/><path class="cls-24" d="M1437.49,252.43a2.3,2.3,0,0,1-1.9-.75,2.89,2.89,0,0,1-.6-1.87V238.19h1.44v11.56a1.79,1.79,0,0,0,.28,1.08,1.27,1.27,0,0,0,1,.36h.78v1.24Z"/><path class="cls-24" d="M1440.89,239.79v-1.62h1.62v1.62Zm.08,12.64v-9.84h1.44v9.84Z"/><path class="cls-24" d="M1451.6,252.23a4.21,4.21,0,0,1-1.75.32,4.67,4.67,0,0,1-1.73-.31,3.77,3.77,0,0,1-1.38-.94,4.37,4.37,0,0,1-.92-1.58,7.53,7.53,0,0,1,0-4.41,4.5,4.5,0,0,1,.92-1.57,3.93,3.93,0,0,1,1.38-1,4.67,4.67,0,0,1,1.73-.32,4.38,4.38,0,0,1,1.75.32,4.46,4.46,0,0,1,1.49,1.14l-1,.92a3.54,3.54,0,0,0-1.06-.86,2.73,2.73,0,0,0-1.2-.24,3.06,3.06,0,0,0-1.3.28,2.7,2.7,0,0,0-1,.84,3.28,3.28,0,0,0-.49,1.09,8.08,8.08,0,0,0,0,3.1,3.28,3.28,0,0,0,.49,1.09,2.61,2.61,0,0,0,1,.84,2.92,2.92,0,0,0,1.3.28,2.6,2.6,0,0,0,1.2-.25,3.6,3.6,0,0,0,1.06-.87l1,.94A4.46,4.46,0,0,1,1451.6,252.23Z"/><path class="cls-24" d="M1461.07,252.43V238.19h8.84v1.36h-7.32v5h6.24v1.36h-6.24v5.14h7.32v1.36Z"/><path class="cls-24" d="M1479.11,252.43v-6.06a2.65,2.65,0,0,0-.65-2,2.73,2.73,0,0,0-3.55,0,2.65,2.65,0,0,0-.66,2v6.06h-1.44v-9.84h1.44v1.08a3.43,3.43,0,0,1,1.22-.9,3.88,3.88,0,0,1,1.54-.3,3.41,3.41,0,0,1,2.52.92,3.67,3.67,0,0,1,1,2.74v6.3Z"/><path class="cls-24" d="M1489.93,252.43v-1.18a3,3,0,0,1-1.29,1,4.31,4.31,0,0,1-1.51.26,4.08,4.08,0,0,1-1.38-.23,2.76,2.76,0,0,1-1-.63,3.27,3.27,0,0,1-.61-.86,5.44,5.44,0,0,1-.36-1,9.88,9.88,0,0,1-.18-1.13c0-.38,0-.77,0-1.16s0-.77,0-1.16a10.24,10.24,0,0,1,.18-1.13,5.69,5.69,0,0,1,.36-1,3.27,3.27,0,0,1,.61-.86,2.89,2.89,0,0,1,1-.63,4.08,4.08,0,0,1,1.38-.23,4.22,4.22,0,0,1,1.5.25,3,3,0,0,1,1.28,1v-5.54h1.46v14.24Zm0-4.92a10.65,10.65,0,0,0-.08-1.4,3.43,3.43,0,0,0-.34-1.2,2.09,2.09,0,0,0-.75-.84,2.32,2.32,0,0,0-1.29-.32,2.37,2.37,0,0,0-1.29.32,2.25,2.25,0,0,0-.75.84,3.92,3.92,0,0,0-.35,1.2,10.93,10.93,0,0,0,0,2.8,3.76,3.76,0,0,0,.35,1.2,2.18,2.18,0,0,0,.75.84,2.29,2.29,0,0,0,1.29.32,2.24,2.24,0,0,0,1.29-.32,2,2,0,0,0,.75-.84,3.31,3.31,0,0,0,.34-1.2A10.65,10.65,0,0,0,1489.91,247.51Z"/><path class="cls-24" d="M1502.77,247.51a11.13,11.13,0,0,1,0,1.16,6.83,6.83,0,0,1-.18,1.13,4.33,4.33,0,0,1-.36,1,2.87,2.87,0,0,1-.61.86,2.6,2.6,0,0,1-1,.63,4,4,0,0,1-1.38.23,4.3,4.3,0,0,1-1.5-.26,3,3,0,0,1-1.28-1v5.56H1495V242.59h1.44v1.16a3,3,0,0,1,1.28-1,4.29,4.29,0,0,1,1.5-.25,4,4,0,0,1,1.38.23,2.72,2.72,0,0,1,1,.63,2.87,2.87,0,0,1,.61.86,4.49,4.49,0,0,1,.36,1,7,7,0,0,1,.18,1.13A11.37,11.37,0,0,1,1502.77,247.51Zm-1.44,0a10.65,10.65,0,0,0-.08-1.4,3.43,3.43,0,0,0-.34-1.2,2.09,2.09,0,0,0-.75-.84,2.32,2.32,0,0,0-1.29-.32,2.37,2.37,0,0,0-1.29.32,2.25,2.25,0,0,0-.75.84,3.92,3.92,0,0,0-.35,1.2,10.93,10.93,0,0,0,0,2.8,3.76,3.76,0,0,0,.35,1.2,2.18,2.18,0,0,0,.75.84,2.29,2.29,0,0,0,1.29.32,2.24,2.24,0,0,0,1.29-.32,2,2,0,0,0,.75-.84,3.31,3.31,0,0,0,.34-1.2A10.65,10.65,0,0,0,1501.33,247.51Z"/><path class="cls-24" d="M1513.37,247.51a9.27,9.27,0,0,1-.23,2.15,3.57,3.57,0,0,1-1,1.77,3.69,3.69,0,0,1-1.22.82,4.42,4.42,0,0,1-3.2,0,3.91,3.91,0,0,1-1.22-.82,3.48,3.48,0,0,1-.61-.83,5.07,5.07,0,0,1-.36-.94,8.18,8.18,0,0,1-.18-1c0-.36-.05-.73-.05-1.12s0-.74.05-1.11a8.35,8.35,0,0,1,.18-1,5.36,5.36,0,0,1,.36-.94,3.69,3.69,0,0,1,.61-.83,4.09,4.09,0,0,1,1.22-.82,4.42,4.42,0,0,1,3.2,0,3.85,3.85,0,0,1,1.22.82,3.61,3.61,0,0,1,1,1.77A9.33,9.33,0,0,1,1513.37,247.51Zm-1.44,0c0-.28,0-.56,0-.84a4.48,4.48,0,0,0-.1-.82,3,3,0,0,0-.24-.75,2.17,2.17,0,0,0-.42-.63,2.59,2.59,0,0,0-3.58,0,2.2,2.2,0,0,0-.43.63,4.12,4.12,0,0,0-.24.75,5.58,5.58,0,0,0-.11.82c0,.28,0,.56,0,.84s0,.56,0,.84a5.4,5.4,0,0,0,.11.82,4.5,4.5,0,0,0,.24.76,1.82,1.82,0,0,0,.43.62,2.59,2.59,0,0,0,3.58,0,1.79,1.79,0,0,0,.42-.62,3.21,3.21,0,0,0,.24-.76,4.38,4.38,0,0,0,.1-.82C1511.93,248.07,1511.93,247.79,1511.93,247.51Z"/><path class="cls-24" d="M1516.37,239.79v-1.62H1518v1.62Zm.08,12.64v-9.84h1.44v9.84Z"/><path class="cls-24" d="M1527.81,252.43v-6.06a2.65,2.65,0,0,0-.65-2,2.73,2.73,0,0,0-3.55,0,2.65,2.65,0,0,0-.66,2v6.06h-1.44v-9.84H1523v1.08a3.43,3.43,0,0,1,1.22-.9,3.88,3.88,0,0,1,1.54-.3,3.41,3.41,0,0,1,2.52.92,3.67,3.67,0,0,1,1,2.74v6.3Z"/><path class="cls-24" d="M1535.51,252.43a2.75,2.75,0,0,1-1.11-.21,2.25,2.25,0,0,1-.78-.57,2.65,2.65,0,0,1-.47-.84,3.4,3.4,0,0,1-.16-1v-6h-1.24v-1.1H1533v-3.08h1.44v3.08h2.1v1.1h-2.1v6a1.6,1.6,0,0,0,.32,1.06,1.29,1.29,0,0,0,1,.38h.76v1.24Z"/><path class="cls-24" d="M1541.63,251.57a2.62,2.62,0,0,1-.34,1,4.38,4.38,0,0,1-.62.87c-.22.25-.5.53-.82.85l-1-1,.62-.62a2.44,2.44,0,0,0,.48-.68,2.06,2.06,0,0,0,.22-.7,5.89,5.89,0,0,0,.06-.88v-10.2a6,6,0,0,0-.06-.88,2.06,2.06,0,0,0-.22-.7,2.6,2.6,0,0,0-.48-.68l-.62-.62,1-1c.32.32.6.61.82.85a4.38,4.38,0,0,1,.62.87,2.73,2.73,0,0,1,.34,1,9.2,9.2,0,0,1,.06,1v10.44A9.07,9.07,0,0,1,1541.63,251.57Z"/><line class="cls-25" x1="344" y1="273" x2="669.88" y2="273"/><polygon class="cls-26" points="684 273 664.1 281.13 668.82 273 664.1 264.87 684 273"/><text class="cls-15" transform="translate(367.93 750.43)">2.7 Redi<tspan class="cls-27" x="44.34" y="0">r</tspan><tspan x="49.17" y="0">ect th</tspan><tspan class="cls-28" x="80.36" y="0">r</tspan><tspan x="85.2" y="0">ough </tspan><tspan class="cls-29" x="115.77" y="0">c</tspan><tspan x="121.75" y="0">a</tspan><tspan class="cls-28" x="128.32" y="0">r</tspan><tspan x="133.16" y="0">dholder b</tspan><tspan class="cls-28" x="185.96" y="0">r</tspan><tspan class="cls-30" x="190.8" y="0">o</tspan><tspan class="cls-31" x="197.36" y="0">wser </tspan><tspan class="cls-32" x="227.61" y="0">t</tspan><tspan x="231.66" y="0">o </tspan><tspan class="cls-32" x="241.4" y="0">t</tspan><tspan x="245.45" y="0">ermURL</tspan></text><line class="cls-25" x1="344" y1="759" x2="669.88" y2="759"/><polygon class="cls-26" points="684 759 664.1 767.13 668.82 759 664.1 750.87 684 759"/><text class="cls-15" transform="translate(820.89 750.43)">3.1 Check-pa<tspan class="cls-33" x="72.69" y="0">y</tspan><tspan x="78.15" y="0">er-</tspan><tspan class="cls-28" x="95.36" y="0">r</tspan><tspan x="100.2" y="0">esponse</tspan></text><line class="cls-25" x1="724" y1="759" x2="1049.88" y2="759"/><polygon class="cls-26" points="1064 759 1044.1 767.13 1048.82 759 1044.1 750.87 1064 759"/><text class="cls-15" transform="translate(825.66 435.43)">2.1 POST HTTPS <tspan class="cls-28" x="93.59" y="0">r</tspan><tspan x="98.42" y="0">edi</tspan><tspan class="cls-28" x="115.02" y="0">r</tspan><tspan x="119.86" y="0">ect</tspan></text><line class="cls-25" x1="344" y1="444" x2="1439.88" y2="444"/><polygon class="cls-26" points="1454 444 1434.1 452.13 1438.82 444 1434.1 435.87 1454 444"/><text class="cls-15" transform="translate(818.23 631.43)">2.5 3DS method <tspan class="cls-34" x="90.27" y="0">c</tspan><tspan x="96.21" y="0">omp</tspan><tspan class="cls-35" x="120.64" y="0">l</tspan><tspan x="124.04" y="0">etion</tspan></text><line class="cls-25" x1="344" y1="640" x2="1439.88" y2="640"/><polygon class="cls-26" points="1454 640 1434.1 648.13 1438.82 640 1434.1 631.87 1454 640"/><text class="cls-36" transform="translate(746.86 491.43)">2.3 Return HTML with scheme <tspan class="cls-37" x="156.16" y="0">l</tspan><tspan x="159.12" y="0">ogo and p</tspan><tspan class="cls-38" x="208.11" y="0">r</tspan><tspan x="212.45" y="0">o</tspan><tspan class="cls-39" x="218.57" y="0">c</tspan><tspan x="224.01" y="0">e</tspan><tspan class="cls-40" x="230.13" y="0">s</tspan><tspan x="235.63" y="0">sing sc</tspan><tspan class="cls-38" x="270.75" y="0">r</tspan><tspan x="275.08" y="0">een</tspan></text><line class="cls-41" x1="1454" y1="500" x2="358.12" y2="500"/><polygon class="cls-26" points="344 500 363.9 491.87 359.18 500 363.9 508.13 344 500"/><text class="cls-36" transform="translate(823.59 686.43)">2.7 Authenti<tspan class="cls-42" x="60.34" y="0">c</tspan><tspan x="65.81" y="0">ation </tspan><tspan class="cls-38" x="93.46" y="0">r</tspan><tspan x="97.8" y="0">esponse</tspan></text><line class="cls-41" x1="1454" y1="695" x2="358.12" y2="695"/><polygon class="cls-26" points="344 695 363.9 686.87 359.18 695 363.9 703.13 344 695"/><text class="cls-36" transform="translate(728.4 539.43)">2.4 Redi<tspan class="cls-38" x="40.34" y="0">r</tspan><tspan class="cls-43" x="44.67" y="0">ect </tspan><tspan class="cls-44" x="62.69" y="0">c</tspan><tspan x="68.16" y="0">a</tspan><tspan class="cls-38" x="74.24" y="0">r</tspan><tspan x="78.57" y="0">dholder </tspan><tspan class="cls-45" x="120.56" y="0">t</tspan><tspan x="124.11" y="0">o 3DSMethodUrl </tspan><tspan class="cls-46" x="210.7" y="0">f</tspan><tspan x="213.88" y="0">or d</tspan><tspan class="cls-47" x="233.7" y="0">e</tspan><tspan class="cls-48" x="239.7" y="0">vi</tspan><tspan class="cls-39" x="247.45" y="0">c</tspan><tspan x="252.88" y="0">e fingerprinting</tspan></text><line class="cls-41" x1="1454" y1="548" x2="358.12" y2="548"/><polygon class="cls-26" points="344 548 363.9 539.87 359.18 548 363.9 556.13 344 548"/><text class="cls-15" transform="translate(833.73 283.43)">1.2 Check-en<tspan class="cls-28" x="72.95" y="0">r</tspan><tspan x="77.79" y="0">ollment</tspan></text><path class="cls-49" d="M1216.9,336.43v-7.9l-1.66,1.46v-1l1.66-1.44h.9v8.9Z"/><path class="cls-49" d="M1221.3,336.43v-1.17h1.17v1.17Z"/><path class="cls-49" d="M1229.33,334a2.68,2.68,0,0,1-.21,1.09,2.26,2.26,0,0,1-1.39,1.27,3.4,3.4,0,0,1-1,.16,3.53,3.53,0,0,1-1-.14,2.26,2.26,0,0,1-.81-.43,2.36,2.36,0,0,1-.57-.74,2.7,2.7,0,0,1-.24-1h.9a1.9,1.9,0,0,0,.18.71,1.5,1.5,0,0,0,.38.48,1.77,1.77,0,0,0,.53.27,2.16,2.16,0,0,0,.62.09,1.74,1.74,0,0,0,1.22-.45,1.65,1.65,0,0,0,.5-1.28,1.78,1.78,0,0,0-.42-1.26,1.72,1.72,0,0,0-1.33-.46h-.19v-.8h.19a1.52,1.52,0,0,0,1.2-.43,1.69,1.69,0,0,0,.38-1.18,1.5,1.5,0,0,0-1.55-1.62,1.56,1.56,0,0,0-1.12.4,1.65,1.65,0,0,0-.48,1.09h-.9a2.61,2.61,0,0,1,.25-1,2.24,2.24,0,0,1,.53-.72,2.37,2.37,0,0,1,.77-.45,2.91,2.91,0,0,1,1-.16,2.73,2.73,0,0,1,1,.18,2.26,2.26,0,0,1,.77.49,2.14,2.14,0,0,1,.5.76,2.63,2.63,0,0,1,.18,1,2,2,0,0,1-1.2,2A2.1,2.1,0,0,1,1229.33,334Z"/><path class="cls-49" d="M1240,335a3,3,0,0,1-.67.83,3.09,3.09,0,0,1-.92.52,3.4,3.4,0,0,1-1.11.18,3.24,3.24,0,0,1-1.25-.24,3.11,3.11,0,0,1-1-.69,2.37,2.37,0,0,1-.48-.65,2.76,2.76,0,0,1-.25-.75,5.33,5.33,0,0,1-.1-.95c0-.36,0-.77,0-1.25s0-.89,0-1.24a5.23,5.23,0,0,1,.1-.95,3,3,0,0,1,.25-.76,2.53,2.53,0,0,1,.48-.65,3.11,3.11,0,0,1,1-.69,3.51,3.51,0,0,1,2.36-.05,2.88,2.88,0,0,1,.92.52,2.75,2.75,0,0,1,.67.83,3.53,3.53,0,0,1,.38,1.12h-1a2.39,2.39,0,0,0-.73-1.32,2,2,0,0,0-1.38-.48,2.22,2.22,0,0,0-.85.16,1.94,1.94,0,0,0-.69.46,1.82,1.82,0,0,0-.34.46,2.15,2.15,0,0,0-.19.59,5.83,5.83,0,0,0-.08.82c0,.32,0,.72,0,1.18s0,.86,0,1.18a6,6,0,0,0,.08.83,2.27,2.27,0,0,0,.19.59,1.78,1.78,0,0,0,.34.45,1.82,1.82,0,0,0,.69.46,2.22,2.22,0,0,0,.85.17,2.07,2.07,0,0,0,1.39-.49,2.32,2.32,0,0,0,.74-1.31h.95A3.61,3.61,0,0,1,1240,335Z"/><path class="cls-49" d="M1246.24,336.43v-3.8a1.71,1.71,0,0,0-.4-1.22,1.72,1.72,0,0,0-2.22,0,1.62,1.62,0,0,0-.42,1.21v3.8h-.9v-8.9h.9V331a2.19,2.19,0,0,1,1.72-.75,2.14,2.14,0,0,1,1.64.61,2.35,2.35,0,0,1,.58,1.66v3.95Z"/><path class="cls-49" d="M1249.89,333.59a2.32,2.32,0,0,0,.46,1.56,1.66,1.66,0,0,0,1.35.56,2.08,2.08,0,0,0,.89-.17,2.55,2.55,0,0,0,.72-.53l.61.53a4.38,4.38,0,0,1-.46.42,2.55,2.55,0,0,1-.5.3,2.46,2.46,0,0,1-.58.18,3.11,3.11,0,0,1-.71.07,3.21,3.21,0,0,1-1.1-.19,2.26,2.26,0,0,1-.85-.58,2.63,2.63,0,0,1-.54-1,4.47,4.47,0,0,1-.19-1.4,3.59,3.59,0,0,1,.67-2.33,2.26,2.26,0,0,1,1.85-.82,2.29,2.29,0,0,1,1.87.8,3.31,3.31,0,0,1,.66,2.17v.41Zm3.25-.67c0-.13,0-.23,0-.33l0-.25a1.6,1.6,0,0,0,0-.21c0-.08,0-.15-.08-.24a1.46,1.46,0,0,0-.56-.67,1.66,1.66,0,0,0-1.75,0,1.48,1.48,0,0,0-.57.67,2.66,2.66,0,0,0-.13.45,3.78,3.78,0,0,0,0,.58Z"/><path class="cls-49" d="M1259.43,336.31a2.75,2.75,0,0,1-1.09.2,2.88,2.88,0,0,1-1.08-.2,2.42,2.42,0,0,1-.87-.58,3,3,0,0,1-.57-1,4.17,4.17,0,0,1-.21-1.38,4.09,4.09,0,0,1,.21-1.38,2.85,2.85,0,0,1,.57-1,2.44,2.44,0,0,1,.87-.59,2.7,2.7,0,0,1,1.08-.2,2.59,2.59,0,0,1,1.09.2,3,3,0,0,1,.93.71l-.61.57a2.43,2.43,0,0,0-.66-.53,1.73,1.73,0,0,0-.75-.15,1.78,1.78,0,0,0-.81.17,1.58,1.58,0,0,0-.62.53,1.91,1.91,0,0,0-.3.68,3.7,3.7,0,0,0-.1,1,3.8,3.8,0,0,0,.1,1,2,2,0,0,0,.3.68,1.55,1.55,0,0,0,.62.52,1.79,1.79,0,0,0,.81.18,1.73,1.73,0,0,0,.75-.16,2.3,2.3,0,0,0,.66-.54l.61.58A3,3,0,0,1,1259.43,336.31Z"/><path class="cls-49" d="M1266.13,336.43l-2-3.15-1.2,1.38v1.77h-.9v-8.9h.9v6l2.78-3.2h1.13l-2.09,2.35,2.45,3.8Z"/><path class="cls-49" d="M1273.61,336.43a1.6,1.6,0,0,1-.69-.13,1.42,1.42,0,0,1-.78-.88,1.91,1.91,0,0,1-.1-.64V331h-.78v-.69h.78v-1.93h.9v1.93h1.31V331h-1.31v3.75a1,1,0,0,0,.2.66.77.77,0,0,0,.63.24h.48v.77Z"/><path class="cls-49" d="M1280,336.43v-3.8a1.66,1.66,0,0,0-.4-1.22,1.46,1.46,0,0,0-1.1-.4,1.48,1.48,0,0,0-1.11.41,1.62,1.62,0,0,0-.42,1.21v3.8h-.9v-8.9h.9V331a2.18,2.18,0,0,1,1.72-.75,2.12,2.12,0,0,1,1.63.61,2.3,2.3,0,0,1,.58,1.66v3.95Z"/><path class="cls-49" d="M1283.62,333.59a2.33,2.33,0,0,0,.47,1.56,1.64,1.64,0,0,0,1.35.56,2.14,2.14,0,0,0,.89-.17,2.55,2.55,0,0,0,.72-.53l.61.53a4.44,4.44,0,0,1-.47.42,2.48,2.48,0,0,1-.49.3,2.62,2.62,0,0,1-.58.18,3.11,3.11,0,0,1-.71.07,3.23,3.23,0,0,1-1.11-.19,2.31,2.31,0,0,1-.84-.58,2.63,2.63,0,0,1-.54-1,4.45,4.45,0,0,1-.2-1.4,3.59,3.59,0,0,1,.68-2.33,2.53,2.53,0,0,1,3.71,0,3.31,3.31,0,0,1,.66,2.17v.41Zm3.25-.67a3.08,3.08,0,0,0,0-.33l0-.25c0-.07,0-.14,0-.21s0-.15-.08-.24a1.48,1.48,0,0,0-.57-.67,1.53,1.53,0,0,0-.87-.25,1.56,1.56,0,0,0-.88.25,1.52,1.52,0,0,0-.56.67,2.8,2.8,0,0,0-.14.45,5.71,5.71,0,0,0-.05.58Z"/><path class="cls-49" d="M1297.24,334.63a1.6,1.6,0,0,1-.19.8,1.75,1.75,0,0,1-.51.58,2.14,2.14,0,0,1-.79.37,3.92,3.92,0,0,1-1,.13,4.54,4.54,0,0,1-1.4-.2,3.11,3.11,0,0,1-1.13-.69l.6-.6a2,2,0,0,0,.85.55,3.32,3.32,0,0,0,1.06.16,2.27,2.27,0,0,0,1.2-.27.9.9,0,0,0,.44-.82.81.81,0,0,0-.24-.62,1.37,1.37,0,0,0-.78-.28l-1-.08a2.31,2.31,0,0,1-1.36-.48,1.45,1.45,0,0,1-.47-1.17,1.62,1.62,0,0,1,.63-1.32,2.21,2.21,0,0,1,.72-.36,3.28,3.28,0,0,1,.91-.12,4.41,4.41,0,0,1,1.23.16,2.6,2.6,0,0,1,1,.5l-.59.59a2.06,2.06,0,0,0-.74-.37,3.24,3.24,0,0,0-.89-.12,1.67,1.67,0,0,0-1,.27.9.9,0,0,0-.35.74.79.79,0,0,0,.25.63,1.35,1.35,0,0,0,.83.27l1,.09a3.24,3.24,0,0,1,.74.14,1.4,1.4,0,0,1,.58.3,1.45,1.45,0,0,1,.37.5A1.93,1.93,0,0,1,1297.24,334.63Z"/><path class="cls-49" d="M1302.89,336.43v-.69a2.24,2.24,0,0,1-.77.57,2.4,2.4,0,0,1-1,.2,2.17,2.17,0,0,1-1.59-.58,2,2,0,0,1-.47-.75,3,3,0,0,1-.15-1v-3.93h.9v3.79a1.67,1.67,0,0,0,.4,1.23,1.46,1.46,0,0,0,1.1.41,1.52,1.52,0,0,0,1.12-.42,1.66,1.66,0,0,0,.41-1.22v-3.79h.92v6.15Z"/><path class="cls-49" d="M1310.91,333.36q0,.36,0,.72a5.52,5.52,0,0,1-.11.71,3.23,3.23,0,0,1-.23.64,1.83,1.83,0,0,1-.38.54,1.65,1.65,0,0,1-.64.39,2.31,2.31,0,0,1-.86.15,2.62,2.62,0,0,1-.94-.17,1.91,1.91,0,0,1-.8-.63v3.47h-.9v-8.9h.9V331a1.89,1.89,0,0,1,.8-.65,2.85,2.85,0,0,1,.94-.15,2.32,2.32,0,0,1,.86.14,1.92,1.92,0,0,1,.64.39,1.83,1.83,0,0,1,.38.54,3.33,3.33,0,0,1,.23.65,5.12,5.12,0,0,1,.11.7C1310.9,332.87,1310.91,333.12,1310.91,333.36Zm-.9,0a8.49,8.49,0,0,0,0-.88,2.18,2.18,0,0,0-.21-.75,1.56,1.56,0,0,0-2.08-.52,1.31,1.31,0,0,0-.47.52,2.44,2.44,0,0,0-.22.75,6.4,6.4,0,0,0-.06.88,6.15,6.15,0,0,0,.06.87,2.28,2.28,0,0,0,.22.75,1.33,1.33,0,0,0,.47.53,1.72,1.72,0,0,0,1.61,0,1.41,1.41,0,0,0,.47-.53,2.06,2.06,0,0,0,.21-.75A8.14,8.14,0,0,0,1310,333.36Z"/><path class="cls-49" d="M1317.72,333.36q0,.36,0,.72a5.52,5.52,0,0,1-.11.71,3.22,3.22,0,0,1-.22.64,2.07,2.07,0,0,1-.39.54,1.61,1.61,0,0,1-.63.39,2.41,2.41,0,0,1-.87.15,2.52,2.52,0,0,1-.93-.17,1.85,1.85,0,0,1-.8-.63v3.47h-.9v-8.9h.9V331a1.83,1.83,0,0,1,.8-.65,2.75,2.75,0,0,1,.93-.15,2.41,2.41,0,0,1,.87.14,1.87,1.87,0,0,1,.63.39,2.07,2.07,0,0,1,.39.54,3.31,3.31,0,0,1,.22.65,5.12,5.12,0,0,1,.11.7C1317.71,332.87,1317.72,333.12,1317.72,333.36Zm-.9,0a6.4,6.4,0,0,0,0-.88,2.18,2.18,0,0,0-.21-.75,1.31,1.31,0,0,0-.47-.52,1.45,1.45,0,0,0-2.08.52,2.44,2.44,0,0,0-.22.75,8.49,8.49,0,0,0,0,.88,8.14,8.14,0,0,0,0,.87,2.28,2.28,0,0,0,.22.75,1.41,1.41,0,0,0,.47.53,1.72,1.72,0,0,0,1.61,0,1.33,1.33,0,0,0,.47-.53,2.06,2.06,0,0,0,.21-.75A6.17,6.17,0,0,0,1316.82,333.36Z"/><path class="cls-49" d="M1324.35,333.36a6.4,6.4,0,0,1-.14,1.34,2.35,2.35,0,0,1-.61,1.11,2.41,2.41,0,0,1-1.76.7,2.46,2.46,0,0,1-1.77-.7,2.39,2.39,0,0,1-.38-.52,3.23,3.23,0,0,1-.22-.59,3.29,3.29,0,0,1-.11-.64,6.14,6.14,0,0,1,0-1.4,3.39,3.39,0,0,1,.11-.65,2.89,2.89,0,0,1,.22-.58,2.17,2.17,0,0,1,.38-.52,2.43,2.43,0,0,1,.77-.52,2.59,2.59,0,0,1,1-.18,2.66,2.66,0,0,1,1,.18,2.51,2.51,0,0,1,.76.52,2.27,2.27,0,0,1,.61,1.1A6.43,6.43,0,0,1,1324.35,333.36Zm-.9,0c0-.18,0-.35,0-.53a3,3,0,0,0-.07-.51,1.84,1.84,0,0,0-.15-.47,1.27,1.27,0,0,0-.26-.39,1.62,1.62,0,0,0-2.24,0,1.27,1.27,0,0,0-.26.39,2.36,2.36,0,0,0-.16.47,3,3,0,0,0-.06.51c0,.18,0,.35,0,.53s0,.35,0,.52a2.74,2.74,0,0,0,.06.51,2.46,2.46,0,0,0,.16.48,1.16,1.16,0,0,0,.26.39,1.62,1.62,0,0,0,2.24,0,1.16,1.16,0,0,0,.26-.39,1.92,1.92,0,0,0,.15-.48,2.73,2.73,0,0,0,.07-.51C1323.45,333.71,1323.45,333.53,1323.45,333.36Z"/><path class="cls-49" d="M1329.71,331.46a1.5,1.5,0,0,0-.47-.35,1.42,1.42,0,0,0-.59-.1,1.48,1.48,0,0,0-.61.12,1.26,1.26,0,0,0-.47.35,1.8,1.8,0,0,0-.29.53,1.93,1.93,0,0,0-.11.65v3.77h-.9v-6.15h.9V331a1.64,1.64,0,0,1,.72-.6,2.33,2.33,0,0,1,1-.22,2.43,2.43,0,0,1,.79.12,1.79,1.79,0,0,1,.68.45Z"/><path class="cls-49" d="M1333.26,336.43a1.6,1.6,0,0,1-.69-.13,1.42,1.42,0,0,1-.78-.88,1.91,1.91,0,0,1-.1-.64V331h-.78v-.69h.78v-1.93h.9v1.93h1.31V331h-1.31v3.75a1,1,0,0,0,.2.66.77.77,0,0,0,.63.24h.48v.77Z"/><path class="cls-49" d="M1336.15,333.59a2.32,2.32,0,0,0,.46,1.56,1.66,1.66,0,0,0,1.35.56,2.08,2.08,0,0,0,.89-.17,2.55,2.55,0,0,0,.72-.53l.62.53a5.71,5.71,0,0,1-.47.42,2.55,2.55,0,0,1-.5.3,2.46,2.46,0,0,1-.58.18,3.08,3.08,0,0,1-.7.07,3.23,3.23,0,0,1-1.11-.19,2.15,2.15,0,0,1-.84-.58,2.51,2.51,0,0,1-.55-1,4.47,4.47,0,0,1-.19-1.4,3.59,3.59,0,0,1,.67-2.33,2.26,2.26,0,0,1,1.85-.82,2.29,2.29,0,0,1,1.87.8,3.31,3.31,0,0,1,.66,2.17v.41Zm3.25-.67c0-.13,0-.23,0-.33a1.9,1.9,0,0,0,0-.25,1.6,1.6,0,0,0,0-.21c0-.08,0-.15-.08-.24a1.46,1.46,0,0,0-.56-.67,1.66,1.66,0,0,0-1.75,0,1.4,1.4,0,0,0-.56.67,2.06,2.06,0,0,0-.14.45,3.78,3.78,0,0,0,0,.58Z"/><path class="cls-49" d="M1345.89,336.43v-.74a1.79,1.79,0,0,1-.81.65,2.62,2.62,0,0,1-.94.17,2.41,2.41,0,0,1-.87-.15,1.61,1.61,0,0,1-.63-.39,2.07,2.07,0,0,1-.39-.54,3.22,3.22,0,0,1-.22-.64,5.52,5.52,0,0,1-.11-.71q0-.36,0-.72c0-.24,0-.49,0-.73a5.12,5.12,0,0,1,.11-.7,3.31,3.31,0,0,1,.22-.65,2.07,2.07,0,0,1,.39-.54,1.87,1.87,0,0,1,.63-.39,2.41,2.41,0,0,1,.87-.14,2.75,2.75,0,0,1,.93.15,1.93,1.93,0,0,1,.8.63v-3.46h.92v8.9Zm0-3.07a6.4,6.4,0,0,0,0-.88,2.18,2.18,0,0,0-.21-.75,1.31,1.31,0,0,0-.47-.52,1.45,1.45,0,0,0-2.08.52,2.44,2.44,0,0,0-.22.75,6.4,6.4,0,0,0,0,.88,6.17,6.17,0,0,0,0,.87,2.28,2.28,0,0,0,.22.75,1.41,1.41,0,0,0,.47.53,1.72,1.72,0,0,0,1.61,0,1.33,1.33,0,0,0,.47-.53,2.06,2.06,0,0,0,.21-.75A6.17,6.17,0,0,0,1345.87,333.36Z"/><path class="cls-49" d="M1356.76,334a2.68,2.68,0,0,1-.21,1.09,2.34,2.34,0,0,1-.55.79,2.44,2.44,0,0,1-.83.48,3.4,3.4,0,0,1-1,.16,3.53,3.53,0,0,1-1-.14,2.11,2.11,0,0,1-.81-.43,2.35,2.35,0,0,1-.81-1.78h.9a1.73,1.73,0,0,0,.17.71,1.53,1.53,0,0,0,.39.48,1.66,1.66,0,0,0,.53.27,2.06,2.06,0,0,0,.62.09,1.75,1.75,0,0,0,1.22-.45,1.64,1.64,0,0,0,.49-1.28,1.78,1.78,0,0,0-.42-1.26,1.7,1.7,0,0,0-1.33-.46h-.19v-.8h.19a1.54,1.54,0,0,0,1.21-.43,1.74,1.74,0,0,0,.38-1.18,1.53,1.53,0,0,0-.45-1.2,1.56,1.56,0,0,0-1.1-.42,1.59,1.59,0,0,0-1.13.4,1.69,1.69,0,0,0-.47,1.09h-.9a2.39,2.39,0,0,1,.78-1.68,2.37,2.37,0,0,1,.77-.45,2.91,2.91,0,0,1,1-.16,2.64,2.64,0,0,1,1,.18,2.21,2.21,0,0,1,.78.49,2.14,2.14,0,0,1,.5.76,2.63,2.63,0,0,1,.18,1,2,2,0,0,1-1.2,2A2.09,2.09,0,0,1,1356.76,334Z"/><path class="cls-49" d="M1365,331.88c0,.31,0,.64,0,1a6.63,6.63,0,0,1-.08,1,3.82,3.82,0,0,1-.26.95,2.33,2.33,0,0,1-.53.8,2.67,2.67,0,0,1-1,.61,3.74,3.74,0,0,1-1.28.21h-3v-8.9h3a3.74,3.74,0,0,1,1.28.21,2.7,2.7,0,0,1,1,.62,2.31,2.31,0,0,1,.53.77,3.24,3.24,0,0,1,.26.87,5.77,5.77,0,0,1,.08.94C1365,331.26,1365,331.57,1365,331.88Zm-1,0c0-.27,0-.55,0-.82a6.23,6.23,0,0,0,0-.77,3.78,3.78,0,0,0-.18-.7,1.71,1.71,0,0,0-.35-.56,1.86,1.86,0,0,0-.79-.5,2.93,2.93,0,0,0-1-.15h-1.94v7.2h1.94a3.22,3.22,0,0,0,1-.14,2,2,0,0,0,.79-.51,1.57,1.57,0,0,0,.35-.59,4.44,4.44,0,0,0,.18-.76,7.92,7.92,0,0,0,0-.85C1364.05,332.44,1364.05,332.16,1364.05,331.88Z"/><path class="cls-49" d="M1372.6,334a2.42,2.42,0,0,1-.22,1.06,2.11,2.11,0,0,1-.63.79,2.87,2.87,0,0,1-1,.5,4.17,4.17,0,0,1-1.26.18,4.64,4.64,0,0,1-1.71-.28,3.86,3.86,0,0,1-1.34-.9l.65-.65a3.14,3.14,0,0,0,1.12.76,3.49,3.49,0,0,0,1.31.22,2.54,2.54,0,0,0,1.54-.43,1.47,1.47,0,0,0,.56-1.22,1.83,1.83,0,0,0-.11-.64,1.23,1.23,0,0,0-.32-.48,1.34,1.34,0,0,0-.44-.26,3.79,3.79,0,0,0-.72-.16l-1-.16a3.35,3.35,0,0,1-1.64-.68,2.13,2.13,0,0,1-.67-1.66,2.63,2.63,0,0,1,.2-1,2.17,2.17,0,0,1,.57-.8,2.65,2.65,0,0,1,.89-.5,3.67,3.67,0,0,1,1.19-.18,4,4,0,0,1,1.46.23,3.72,3.72,0,0,1,1.19.74l-.61.61a2.83,2.83,0,0,0-.89-.56,3.14,3.14,0,0,0-1.19-.2,2,2,0,0,0-1.39.45,1.57,1.57,0,0,0-.48,1.2,1.3,1.3,0,0,0,.4,1,2.38,2.38,0,0,0,.53.3,3.46,3.46,0,0,0,.67.18l1,.15.56.11a3.17,3.17,0,0,1,.43.13,2.15,2.15,0,0,1,.34.17,1.66,1.66,0,0,1,.3.22A2.18,2.18,0,0,1,1372.6,334Z"/><path class="cls-49" d="M1232.31,351.43h-.8l-2.25-6.15h1l1.67,4.94,1.69-4.94h1Z"/><path class="cls-49" d="M1236.28,348.59a2.32,2.32,0,0,0,.46,1.56,1.65,1.65,0,0,0,1.35.56,2.11,2.11,0,0,0,.89-.17,2.55,2.55,0,0,0,.72-.53l.61.53a4.44,4.44,0,0,1-.47.42,2.22,2.22,0,0,1-.49.3,2.62,2.62,0,0,1-.58.18,3.11,3.11,0,0,1-.71.07,3.17,3.17,0,0,1-1.1-.19,2.26,2.26,0,0,1-.85-.58,2.63,2.63,0,0,1-.54-1,4.47,4.47,0,0,1-.19-1.4,3.59,3.59,0,0,1,.67-2.33,2.53,2.53,0,0,1,3.71,0,3.31,3.31,0,0,1,.66,2.17v.41Zm3.25-.67c0-.13,0-.23,0-.33l0-.25a1.6,1.6,0,0,0,0-.21c0-.08-.05-.15-.08-.24a1.52,1.52,0,0,0-.56-.67,1.58,1.58,0,0,0-.88-.25,1.51,1.51,0,0,0-.87.25,1.48,1.48,0,0,0-.57.67,4.39,4.39,0,0,0-.14.45,4,4,0,0,0,0,.58Z"/><path class="cls-49" d="M1245.78,346.46a1.52,1.52,0,0,0-.48-.35,1.42,1.42,0,0,0-.59-.1,1.51,1.51,0,0,0-.61.12,1.23,1.23,0,0,0-.46.35,1.62,1.62,0,0,0-.3.53,1.93,1.93,0,0,0-.1.65v3.77h-.9v-6.15h.9V346a1.54,1.54,0,0,1,.72-.6,2.25,2.25,0,0,1,1-.22,2.53,2.53,0,0,1,.8.12,2,2,0,0,1,.68.45Z"/><path class="cls-49" d="M1251.91,349.63a1.71,1.71,0,0,1-.18.8,1.75,1.75,0,0,1-.51.58,2.14,2.14,0,0,1-.79.37,4,4,0,0,1-1,.13,4.64,4.64,0,0,1-1.4-.2,3.07,3.07,0,0,1-1.12-.69l.6-.6a2,2,0,0,0,.85.55,3.27,3.27,0,0,0,1.06.16,2.27,2.27,0,0,0,1.2-.27.9.9,0,0,0,.44-.82.79.79,0,0,0-.25-.62,1.35,1.35,0,0,0-.78-.28l-1-.08a2.35,2.35,0,0,1-1.37-.48,1.48,1.48,0,0,1-.47-1.17,1.67,1.67,0,0,1,.17-.76,1.59,1.59,0,0,1,.47-.56,2.21,2.21,0,0,1,.72-.36,3.28,3.28,0,0,1,.91-.12,4.41,4.41,0,0,1,1.23.16,2.68,2.68,0,0,1,1,.5l-.59.59a2.15,2.15,0,0,0-.74-.37,3.26,3.26,0,0,0-.9-.12,1.63,1.63,0,0,0-1,.27.87.87,0,0,0-.35.74.82.82,0,0,0,.24.63,1.37,1.37,0,0,0,.83.27l1,.09a3.35,3.35,0,0,1,.74.14,1.42,1.42,0,0,1,.57.3,1.34,1.34,0,0,1,.37.5A1.75,1.75,0,0,1,1251.91,349.63Z"/><path class="cls-49" d="M1253.63,343.53v-1h1v1Zm0,7.9v-6.15h.9v6.15Z"/><path class="cls-49" d="M1261.54,348.36a5.79,5.79,0,0,1-.15,1.34,2.25,2.25,0,0,1-.6,1.11,2.46,2.46,0,0,1-1.77.7,2.41,2.41,0,0,1-1.76-.7,2.1,2.1,0,0,1-.38-.52,3.23,3.23,0,0,1-.22-.59,3.29,3.29,0,0,1-.12-.64c0-.23,0-.46,0-.7s0-.47,0-.7a3.4,3.4,0,0,1,.12-.65,2.89,2.89,0,0,1,.22-.58,1.93,1.93,0,0,1,.38-.52,2.51,2.51,0,0,1,.76-.52,2.66,2.66,0,0,1,1-.18,2.59,2.59,0,0,1,1,.18,2.43,2.43,0,0,1,.77.52,2.18,2.18,0,0,1,.6,1.1A5.82,5.82,0,0,1,1261.54,348.36Zm-.9,0c0-.18,0-.35,0-.53a3,3,0,0,0-.07-.51,1.84,1.84,0,0,0-.15-.47,1.27,1.27,0,0,0-.26-.39A1.54,1.54,0,0,0,1259,346a1.51,1.51,0,0,0-1.11.45,1.3,1.3,0,0,0-.27.39,3.23,3.23,0,0,0-.15.47,4.46,4.46,0,0,0-.07.51c0,.18,0,.35,0,.53s0,.35,0,.52a3.92,3.92,0,0,0,.07.51,3.37,3.37,0,0,0,.15.48,1.19,1.19,0,0,0,.27.39,1.51,1.51,0,0,0,1.11.45,1.54,1.54,0,0,0,1.13-.45,1.16,1.16,0,0,0,.26-.39,1.92,1.92,0,0,0,.15-.48,2.73,2.73,0,0,0,.07-.51C1260.63,348.71,1260.64,348.53,1260.64,348.36Z"/><path class="cls-49" d="M1267.4,351.43v-3.79a1.67,1.67,0,0,0-.41-1.23,1.72,1.72,0,0,0-2.22,0,1.66,1.66,0,0,0-.41,1.22v3.79h-.9v-6.15h.9V346a2.15,2.15,0,0,1,.77-.57,2.49,2.49,0,0,1,1-.18,2.13,2.13,0,0,1,1.57.57,2.28,2.28,0,0,1,.64,1.71v3.94Z"/><path class="cls-49" d="M1279.45,351.43h-.84l-1.61-4.77-1.6,4.77h-.84l-2-6.15h1l1.41,4.94,1.61-4.94h.78l1.62,4.94,1.4-4.94h1Z"/><path class="cls-49" d="M1282.6,343.53v-1h1v1Zm.05,7.9v-6.15h.9v6.15Z"/><path class="cls-49" d="M1287.54,351.43a1.68,1.68,0,0,1-.7-.13,1.35,1.35,0,0,1-.48-.36,1.58,1.58,0,0,1-.3-.52,2.2,2.2,0,0,1-.1-.64V346h-.77v-.69h.77v-1.93h.9v1.93h1.31V346h-1.31v3.75a1,1,0,0,0,.2.66.8.8,0,0,0,.64.24h.47v.77Z"/><path class="cls-49" d="M1293.9,351.43v-3.8a1.66,1.66,0,0,0-.4-1.22,1.47,1.47,0,0,0-1.1-.4,1.5,1.5,0,0,0-1.12.41,1.62,1.62,0,0,0-.42,1.21v3.8h-.9v-8.9h.9V346a2.2,2.2,0,0,1,1.73-.75,2.13,2.13,0,0,1,1.63.61,2.3,2.3,0,0,1,.58,1.66v3.95Z"/><path class="cls-49" d="M1304.72,349a2.68,2.68,0,0,1-.2,1.09,2.26,2.26,0,0,1-1.39,1.27,3.4,3.4,0,0,1-1,.16,3.53,3.53,0,0,1-1-.14,2.18,2.18,0,0,1-.81-.43,2.36,2.36,0,0,1-.57-.74,2.7,2.7,0,0,1-.24-1h.9a1.9,1.9,0,0,0,.17.71,1.53,1.53,0,0,0,.39.48,1.77,1.77,0,0,0,.53.27,2.11,2.11,0,0,0,.62.09,1.75,1.75,0,0,0,1.22-.45,1.64,1.64,0,0,0,.49-1.28,1.82,1.82,0,0,0-.41-1.26,1.73,1.73,0,0,0-1.34-.46h-.18v-.8h.18a1.53,1.53,0,0,0,1.21-.43,1.69,1.69,0,0,0,.38-1.18,1.53,1.53,0,0,0-.45-1.2,1.71,1.71,0,0,0-2.22,0,1.65,1.65,0,0,0-.48,1.09h-.9a2.61,2.61,0,0,1,.25-1,2.24,2.24,0,0,1,.53-.72,2.37,2.37,0,0,1,.77-.45,2.91,2.91,0,0,1,.95-.16,2.73,2.73,0,0,1,1,.18,2.26,2.26,0,0,1,.77.49,2.14,2.14,0,0,1,.5.76,2.63,2.63,0,0,1,.18,1,2,2,0,0,1-1.2,2A2.09,2.09,0,0,1,1304.72,349Z"/><path class="cls-49" d="M1313,346.88v1a8.26,8.26,0,0,1-.09,1,4.28,4.28,0,0,1-.25.95,2.48,2.48,0,0,1-.53.8,2.8,2.8,0,0,1-1,.61,3.68,3.68,0,0,1-1.27.21h-3v-8.9h3a3.68,3.68,0,0,1,1.27.21,2.83,2.83,0,0,1,1,.62,2.47,2.47,0,0,1,.53.77,3.63,3.63,0,0,1,.25.87,7.13,7.13,0,0,1,.09.94Zm-1,0v-.82c0-.27,0-.53-.06-.77a2.67,2.67,0,0,0-.18-.7,1.71,1.71,0,0,0-.35-.56,1.83,1.83,0,0,0-.78-.5,3,3,0,0,0-1-.15h-1.93v7.2h1.93a3.34,3.34,0,0,0,1-.14,2,2,0,0,0,.78-.51,1.57,1.57,0,0,0,.35-.59,3.13,3.13,0,0,0,.18-.76c0-.28,0-.56.06-.85Z"/><path class="cls-49" d="M1320.56,349a2.42,2.42,0,0,1-.22,1.06,2.08,2.08,0,0,1-.62.79,2.92,2.92,0,0,1-1,.5,4.15,4.15,0,0,1-1.25.18,4.66,4.66,0,0,1-1.72-.28,3.74,3.74,0,0,1-1.33-.9l.65-.65a3,3,0,0,0,1.11.76,3.49,3.49,0,0,0,1.31.22,2.54,2.54,0,0,0,1.54-.43,1.47,1.47,0,0,0,.56-1.22,1.62,1.62,0,0,0-.11-.64,1.21,1.21,0,0,0-.31-.48,1.38,1.38,0,0,0-.45-.26,3.61,3.61,0,0,0-.72-.16l-1-.16a3.31,3.31,0,0,1-1.64-.68,2.1,2.1,0,0,1-.68-1.66,2.63,2.63,0,0,1,.2-1,2.43,2.43,0,0,1,.57-.8,2.8,2.8,0,0,1,.9-.5,3.61,3.61,0,0,1,1.18-.18,4.05,4.05,0,0,1,1.47.23,3.79,3.79,0,0,1,1.18.74l-.61.61a2.72,2.72,0,0,0-.89-.56,3.09,3.09,0,0,0-1.18-.2,2,2,0,0,0-1.39.45,1.54,1.54,0,0,0-.49,1.2,1.3,1.3,0,0,0,.4,1,2.38,2.38,0,0,0,.53.3,3.67,3.67,0,0,0,.67.18l1,.15.55.11a3.17,3.17,0,0,1,.43.13,2.85,2.85,0,0,1,.35.17,2,2,0,0,1,.29.22A2.18,2.18,0,0,1,1320.56,349Z"/><path class="cls-49" d="M1331,349a2.42,2.42,0,0,1-.22,1.06,2.08,2.08,0,0,1-.62.79,3,3,0,0,1-1,.5,4.17,4.17,0,0,1-1.26.18,4.57,4.57,0,0,1-1.71-.28,3.69,3.69,0,0,1-1.34-.9l.65-.65a3.2,3.2,0,0,0,1.11.76,3.53,3.53,0,0,0,1.31.22,2.52,2.52,0,0,0,1.54-.43,1.44,1.44,0,0,0,.56-1.22,1.83,1.83,0,0,0-.1-.64,1.23,1.23,0,0,0-.32-.48,1.34,1.34,0,0,0-.44-.26,4,4,0,0,0-.72-.16l-1-.16a3.31,3.31,0,0,1-1.64-.68,2.1,2.1,0,0,1-.67-1.66,2.46,2.46,0,0,1,.2-1,2.27,2.27,0,0,1,.56-.8,2.8,2.8,0,0,1,.9-.5,3.63,3.63,0,0,1,1.19-.18,4,4,0,0,1,1.46.23,3.83,3.83,0,0,1,1.19.74l-.62.61a2.79,2.79,0,0,0-.88-.56,3.18,3.18,0,0,0-1.19-.2,2,2,0,0,0-1.39.45,1.57,1.57,0,0,0-.49,1.2,1.33,1.33,0,0,0,.4,1,2.63,2.63,0,0,0,.53.3,3.9,3.9,0,0,0,.67.18l1,.15.56.11a3.68,3.68,0,0,1,.43.13,2.69,2.69,0,0,1,.34.17,2,2,0,0,1,.29.22A2.18,2.18,0,0,1,1331,349Z"/><path class="cls-49" d="M1333.41,348.59a2.38,2.38,0,0,0,.46,1.56,1.66,1.66,0,0,0,1.35.56,2.16,2.16,0,0,0,.9-.17,2.7,2.7,0,0,0,.72-.53l.61.53a5.71,5.71,0,0,1-.47.42,2.48,2.48,0,0,1-.49.3,2.55,2.55,0,0,1-.59.18,3,3,0,0,1-.7.07,3.23,3.23,0,0,1-1.11-.19,2.15,2.15,0,0,1-.84-.58,2.5,2.5,0,0,1-.54-1,4.45,4.45,0,0,1-.2-1.4,3.59,3.59,0,0,1,.68-2.33,2.53,2.53,0,0,1,3.71,0,3.31,3.31,0,0,1,.66,2.17v.41Zm3.25-.67c0-.13,0-.23,0-.33l0-.25a1.66,1.66,0,0,0-.06-.21,1.35,1.35,0,0,0-.08-.24,1.4,1.4,0,0,0-.56-.67,1.66,1.66,0,0,0-1.75,0,1.4,1.4,0,0,0-.56.67,2.8,2.8,0,0,0-.14.45,5.71,5.71,0,0,0,0,.58Z"/><path class="cls-49" d="M1342.91,346.46a1.5,1.5,0,0,0-.47-.35,1.42,1.42,0,0,0-.59-.1,1.48,1.48,0,0,0-.61.12,1.26,1.26,0,0,0-.47.35,1.8,1.8,0,0,0-.29.53,1.93,1.93,0,0,0-.11.65v3.77h-.9v-6.15h.9V346a1.64,1.64,0,0,1,.72-.6,2.29,2.29,0,0,1,1-.22,2.47,2.47,0,0,1,.79.12,1.79,1.79,0,0,1,.68.45Z"/><path class="cls-49" d="M1346.8,351.43h-.8l-2.25-6.15h1l1.68,4.94,1.69-4.94h1Z"/><path class="cls-49" d="M1350.76,348.59a2.38,2.38,0,0,0,.46,1.56,1.66,1.66,0,0,0,1.35.56,2.16,2.16,0,0,0,.9-.17,2.7,2.7,0,0,0,.72-.53l.61.53a5.71,5.71,0,0,1-.47.42,2.48,2.48,0,0,1-.49.3,2.55,2.55,0,0,1-.59.18,3,3,0,0,1-.7.07,3.23,3.23,0,0,1-1.11-.19,2.15,2.15,0,0,1-.84-.58,2.64,2.64,0,0,1-.55-1,4.79,4.79,0,0,1-.19-1.4,3.59,3.59,0,0,1,.68-2.33,2.53,2.53,0,0,1,3.71,0,3.31,3.31,0,0,1,.66,2.17v.41Zm3.25-.67c0-.13,0-.23,0-.33l0-.25a1.66,1.66,0,0,0-.06-.21,1.35,1.35,0,0,0-.08-.24,1.4,1.4,0,0,0-.56-.67,1.66,1.66,0,0,0-1.75,0,1.4,1.4,0,0,0-.56.67,2.8,2.8,0,0,0-.14.45,5.71,5.71,0,0,0,0,.58Z"/><path class="cls-49" d="M1360.26,346.46a1.5,1.5,0,0,0-.47-.35,1.42,1.42,0,0,0-.59-.1,1.48,1.48,0,0,0-.61.12,1.26,1.26,0,0,0-.47.35,1.8,1.8,0,0,0-.29.53,1.93,1.93,0,0,0-.11.65v3.77h-.9v-6.15h.9V346a1.64,1.64,0,0,1,.72-.6,2.29,2.29,0,0,1,1-.22,2.47,2.47,0,0,1,.79.12,1.79,1.79,0,0,1,.68.45Z"/><line class="cls-25" x1="724" y1="292" x2="1049.88" y2="292"/><polygon class="cls-26" points="1064 292 1044.1 300.13 1048.82 292 1044.1 283.87 1064 292"/><text class="cls-15" transform="translate(812.53 902.43)">4.1 Authorization or pu<tspan class="cls-28" x="125.65" y="0">r</tspan><tspan x="130.49" y="0">chase</tspan></text><line class="cls-25" x1="724" y1="911" x2="1049.88" y2="911"/><polygon class="cls-26" points="1064 911 1044.1 919.13 1048.82 911 1044.1 902.87 1064 911"/><text class="cls-15" transform="translate(806.7 375.43)">1.4 Check-en<tspan class="cls-28" x="72.95" y="0">r</tspan><tspan x="77.79" y="0">ollment </tspan><tspan class="cls-28" x="123.74" y="0">r</tspan><tspan x="128.57" y="0">esponse</tspan></text><line class="cls-25" x1="1064" y1="384" x2="738.12" y2="384"/><polygon class="cls-26" points="724 384 743.9 375.87 739.18 384 743.9 392.13 724 384"/><text class="cls-50" transform="translate(793.86 825.43)">3.3 Check-pa<tspan class="cls-33" x="72.69" y="0">y</tspan><tspan x="78.15" y="0">er-</tspan><tspan class="cls-28" x="95.36" y="0">r</tspan><tspan x="100.2" y="0">esponse </tspan><tspan class="cls-28" x="149.42" y="0">r</tspan><tspan x="154.26" y="0">esponse</tspan></text><line class="cls-41" x1="1064" y1="834" x2="738.12" y2="834"/><polygon class="cls-26" points="724 834 743.9 825.87 739.18 834 743.9 842.13 724 834"/><polyline class="cls-25" points="1111 319 1193 319 1193 359 1125.12 359"/><polygon class="cls-26" points="1111 359 1130.9 350.87 1126.18 359 1130.9 367.13 1111 359"/><text class="cls-15" transform="translate(1216.24 799.43)">3.2 De<tspan class="cls-34" x="34.57" y="0">c</tspan><tspan x="40.51" y="0">ode </tspan><tspan class="cls-47" x="63.69" y="0">P</tspan><tspan x="70.94" y="0">ARes</tspan></text><polyline class="cls-25" points="1111 777 1193 777 1193 817 1125.12 817"/><polygon class="cls-26" points="1111 817 1130.9 808.87 1126.18 817 1130.9 825.13 1111 817"/><text class="cls-15" transform="translate(1589.94 476.43)">2.2 De<tspan class="cls-34" x="34.57" y="0">c</tspan><tspan x="40.51" y="0">ode </tspan><tspan class="cls-47" x="63.69" y="0">P</tspan><tspan x="70.94" y="0">AReq</tspan></text><polyline class="cls-25" points="1486 452 1568 452 1568 492 1500.12 492"/><polygon class="cls-26" points="1486 492 1505.9 483.87 1501.18 492 1505.9 500.13 1486 492"/><text class="cls-15" transform="translate(1609.58 663.43)">2.6 Initia<tspan class="cls-32" x="47.14" y="0">t</tspan><tspan x="51.19" y="0">e </tspan><tspan x="-22.22" y="15">authenti</tspan><tspan class="cls-51" x="23.52" y="15">c</tspan><tspan class="cls-31" x="29.49" y="15">ation f</tspan><tspan class="cls-16" x="64.07" y="15">l</tspan><tspan class="cls-30" x="67.53" y="15">o</tspan><tspan class="cls-31" x="74.09" y="15">w</tspan></text><polyline class="cls-25" points="1486 647 1568 647 1568 687 1500.12 687"/><polygon class="cls-26" points="1486 687 1505.9 678.87 1501.18 687 1505.9 695.13 1486 687"/><path class="cls-49" d="M446.33,594.43v-.8l3.51-4.46a2.84,2.84,0,0,0,.37-.64,1.84,1.84,0,0,0-.28-1.84,1.48,1.48,0,0,0-1.14-.43,2.35,2.35,0,0,0-.6.08,1.36,1.36,0,0,0-.49.29,1.57,1.57,0,0,0-.34.51,2,2,0,0,0-.12.73h-.9a2.78,2.78,0,0,1,.17-1,2.1,2.1,0,0,1,.5-.76,2.34,2.34,0,0,1,.76-.5,2.76,2.76,0,0,1,1-.18,2.69,2.69,0,0,1,1,.17,2.1,2.1,0,0,1,.77.48,1.94,1.94,0,0,1,.5.75,2.66,2.66,0,0,1,.18,1,2.24,2.24,0,0,1-.18.93,4,4,0,0,1-.54.87l-3.11,4h3.83v.8Z"/><path class="cls-49" d="M453.1,594.43v-1.17h1.17v1.17Z"/><path class="cls-49" d="M461.15,591.49a6.55,6.55,0,0,1-.12,1.28,2.13,2.13,0,0,1-.59,1.09,2.24,2.24,0,0,1-.75.48,2.64,2.64,0,0,1-1,.18,2.8,2.8,0,0,1-1-.18,1.91,1.91,0,0,1-1.18-1.15,2.79,2.79,0,0,1-.19-.86h.9a1.75,1.75,0,0,0,.44,1,1.46,1.46,0,0,0,1.07.36,1.49,1.49,0,0,0,1.1-.41,1.48,1.48,0,0,0,.28-.39,2.15,2.15,0,0,0,.14-.45,3.86,3.86,0,0,0,.06-.49c0-.17,0-.33,0-.49a5.29,5.29,0,0,0-.06-.8A1.87,1.87,0,0,0,460,590a1.18,1.18,0,0,0-.45-.49,1.36,1.36,0,0,0-.78-.19,1.75,1.75,0,0,0-1,.24,1.25,1.25,0,0,0-.52.64h-.81v-4.68H461v.8h-3.69v2.82a1.88,1.88,0,0,1,.67-.45,2.46,2.46,0,0,1,.94-.17,2.42,2.42,0,0,1,.88.15,1.74,1.74,0,0,1,.65.42,2.2,2.2,0,0,1,.39.53,2.1,2.1,0,0,1,.22.59,3.43,3.43,0,0,1,.11.64C461.14,591.07,461.15,591.28,461.15,591.49Z"/><path class="cls-49" d="M466.3,594.43v-8.9h.95v8.9Z"/><path class="cls-49" d="M474.1,592.63a1.71,1.71,0,0,1-.18.8,1.75,1.75,0,0,1-.51.58,2.22,2.22,0,0,1-.79.37,4.06,4.06,0,0,1-1,.13,4.59,4.59,0,0,1-1.4-.2,3.19,3.19,0,0,1-1.13-.69l.6-.6a2.11,2.11,0,0,0,.85.55,3.34,3.34,0,0,0,1.07.16,2.27,2.27,0,0,0,1.2-.27.89.89,0,0,0,.43-.82A.81.81,0,0,0,473,592a1.35,1.35,0,0,0-.78-.28l-1-.08a2.35,2.35,0,0,1-1.37-.48,1.48,1.48,0,0,1-.47-1.17,1.67,1.67,0,0,1,.17-.76,1.59,1.59,0,0,1,.47-.56,2.21,2.21,0,0,1,.72-.36,3.21,3.21,0,0,1,.9-.12,4.41,4.41,0,0,1,1.23.16,2.6,2.6,0,0,1,1,.5l-.58.59a2.19,2.19,0,0,0-.75-.37,3.19,3.19,0,0,0-.89-.12,1.69,1.69,0,0,0-1,.27.9.9,0,0,0-.35.74.83.83,0,0,0,.25.63,1.37,1.37,0,0,0,.83.27l1,.09a3.26,3.26,0,0,1,.73.14,1.4,1.4,0,0,1,.58.3,1.34,1.34,0,0,1,.37.5A1.75,1.75,0,0,1,474.1,592.63Z"/><path class="cls-49" d="M480.1,592.63a1.71,1.71,0,0,1-.18.8,1.75,1.75,0,0,1-.51.58,2.22,2.22,0,0,1-.79.37,4.06,4.06,0,0,1-1,.13,4.59,4.59,0,0,1-1.4-.2,3.19,3.19,0,0,1-1.13-.69l.6-.6a2.11,2.11,0,0,0,.85.55,3.34,3.34,0,0,0,1.07.16,2.27,2.27,0,0,0,1.2-.27.89.89,0,0,0,.43-.82A.81.81,0,0,0,479,592a1.35,1.35,0,0,0-.78-.28l-1-.08a2.35,2.35,0,0,1-1.37-.48,1.48,1.48,0,0,1-.47-1.17,1.67,1.67,0,0,1,.17-.76,1.59,1.59,0,0,1,.47-.56,2.21,2.21,0,0,1,.72-.36,3.21,3.21,0,0,1,.9-.12,4.41,4.41,0,0,1,1.23.16,2.6,2.6,0,0,1,1,.5l-.58.59a2.19,2.19,0,0,0-.75-.37,3.19,3.19,0,0,0-.89-.12,1.69,1.69,0,0,0-1,.27.9.9,0,0,0-.35.74.83.83,0,0,0,.25.63,1.37,1.37,0,0,0,.83.27l1,.09a3.26,3.26,0,0,1,.73.14,1.4,1.4,0,0,1,.58.3,1.34,1.34,0,0,1,.37.5A1.75,1.75,0,0,1,480.1,592.63Z"/><path class="cls-49" d="M485.75,594.43v-.69a2.15,2.15,0,0,1-.77.57,2.4,2.4,0,0,1-1,.2,2.19,2.19,0,0,1-1.59-.58,2.11,2.11,0,0,1-.47-.75,3,3,0,0,1-.15-1v-3.93h.9v3.79a1.67,1.67,0,0,0,.4,1.23,1.48,1.48,0,0,0,1.1.41,1.51,1.51,0,0,0,1.12-.42,1.63,1.63,0,0,0,.42-1.22v-3.79h.91v6.15Z"/><path class="cls-49" d="M489.45,591.59a2.32,2.32,0,0,0,.46,1.56,1.66,1.66,0,0,0,1.35.56,2.16,2.16,0,0,0,.9-.17,2.67,2.67,0,0,0,.71-.53l.62.53a5.71,5.71,0,0,1-.47.42,2.55,2.55,0,0,1-.5.3,2.32,2.32,0,0,1-.58.18,3,3,0,0,1-.7.07,3.23,3.23,0,0,1-1.11-.19,2.15,2.15,0,0,1-.84-.58,2.51,2.51,0,0,1-.55-1,4.47,4.47,0,0,1-.19-1.4,3.59,3.59,0,0,1,.67-2.33,2.54,2.54,0,0,1,3.72,0,3.31,3.31,0,0,1,.66,2.17v.41Zm3.25-.67c0-.13,0-.23,0-.33a1,1,0,0,0,0-.25,1.6,1.6,0,0,0-.05-.21c0-.08,0-.15-.08-.24a1.4,1.4,0,0,0-.56-.67,1.66,1.66,0,0,0-1.75,0,1.4,1.4,0,0,0-.56.67,2.06,2.06,0,0,0-.14.45,3.78,3.78,0,0,0-.05.58Z"/><path class="cls-49" d="M499,589.46a1.52,1.52,0,0,0-.48-.35,1.37,1.37,0,0,0-.58-.1,1.56,1.56,0,0,0-.62.12,1.31,1.31,0,0,0-.46.35,1.8,1.8,0,0,0-.29.53,1.93,1.93,0,0,0-.11.65v3.77h-.9v-6.15h.9V589a1.64,1.64,0,0,1,.72-.6,2.29,2.29,0,0,1,1-.22,2.47,2.47,0,0,1,.79.12,1.79,1.79,0,0,1,.68.45Z"/><path class="cls-49" d="M509.24,594.43l-.72-2h-3.88l-.72,2h-1l3.28-8.9h.8l3.26,8.9Zm-2.64-7.54-1.68,4.7h3.33Z"/><path class="cls-49" d="M517,593a3,3,0,0,1-.67.83,3.09,3.09,0,0,1-.92.52,3.31,3.31,0,0,1-1.11.18,3.16,3.16,0,0,1-2.28-.93,2.37,2.37,0,0,1-.48-.65,2.76,2.76,0,0,1-.25-.75,5.38,5.38,0,0,1-.09-.95c0-.36,0-.77,0-1.25s0-.89,0-1.24a5.29,5.29,0,0,1,.09-1,3,3,0,0,1,.25-.76,2.53,2.53,0,0,1,.48-.65,3.22,3.22,0,0,1,1-.69,3.43,3.43,0,0,1,1.25-.23,3.31,3.31,0,0,1,1.11.18,2.88,2.88,0,0,1,.92.52,2.75,2.75,0,0,1,.67.83,3.53,3.53,0,0,1,.38,1.12h-1a2.39,2.39,0,0,0-.73-1.32,2,2,0,0,0-1.38-.48,2.22,2.22,0,0,0-.85.16,1.94,1.94,0,0,0-.69.46,1.82,1.82,0,0,0-.34.46,2.56,2.56,0,0,0-.19.59,7.85,7.85,0,0,0-.08.82c0,.32,0,.72,0,1.18s0,.86,0,1.18a8.08,8.08,0,0,0,.08.83,2.73,2.73,0,0,0,.19.59,1.78,1.78,0,0,0,.34.45,1.82,1.82,0,0,0,.69.46,2.22,2.22,0,0,0,.85.17,2.11,2.11,0,0,0,1.4-.49,2.3,2.3,0,0,0,.73-1.31h.95A3.61,3.61,0,0,1,517,593Z"/><path class="cls-49" d="M524.89,592a2.57,2.57,0,0,1-.22,1.06,2.21,2.21,0,0,1-.63.79,2.87,2.87,0,0,1-1,.5,4.17,4.17,0,0,1-1.26.18,4.57,4.57,0,0,1-1.71-.28,3.77,3.77,0,0,1-1.34-.9l.65-.65a3.2,3.2,0,0,0,1.11.76,3.58,3.58,0,0,0,1.32.22,2.48,2.48,0,0,0,1.53-.43,1.45,1.45,0,0,0,.57-1.22,1.83,1.83,0,0,0-.11-.64,1.23,1.23,0,0,0-.32-.48,1.34,1.34,0,0,0-.44-.26,4,4,0,0,0-.72-.16l-1-.16a3.35,3.35,0,0,1-1.64-.68A2.1,2.1,0,0,1,519,588a2.63,2.63,0,0,1,.2-1,2.17,2.17,0,0,1,.57-.8,2.65,2.65,0,0,1,.89-.5,3.67,3.67,0,0,1,1.19-.18,4,4,0,0,1,1.46.23,3.72,3.72,0,0,1,1.19.74l-.61.61a2.83,2.83,0,0,0-.89-.56,3.14,3.14,0,0,0-1.19-.2,2,2,0,0,0-1.39.45,1.57,1.57,0,0,0-.48,1.2,1.3,1.3,0,0,0,.4,1,2.38,2.38,0,0,0,.53.3,3.46,3.46,0,0,0,.67.18l1,.15.56.11a3.68,3.68,0,0,1,.43.13l.34.17a2.1,2.1,0,0,1,.3.22A2.18,2.18,0,0,1,524.89,592Z"/><path class="cls-49" d="M530.39,591.59a2.32,2.32,0,0,0,.46,1.56,1.66,1.66,0,0,0,1.35.56,2.11,2.11,0,0,0,.89-.17,2.55,2.55,0,0,0,.72-.53l.61.53a4.38,4.38,0,0,1-.46.42,2.55,2.55,0,0,1-.5.3,2.46,2.46,0,0,1-.58.18,3.11,3.11,0,0,1-.71.07,3.21,3.21,0,0,1-1.1-.19,2.26,2.26,0,0,1-.85-.58,2.63,2.63,0,0,1-.54-1,4.47,4.47,0,0,1-.19-1.4,3.59,3.59,0,0,1,.67-2.33,2.53,2.53,0,0,1,3.71,0,3.26,3.26,0,0,1,.67,2.17v.41Zm3.25-.67c0-.13,0-.23,0-.33l0-.25a1.6,1.6,0,0,0-.05-.21c0-.08,0-.15-.08-.24a1.52,1.52,0,0,0-.56-.67A1.56,1.56,0,0,0,532,589a1.53,1.53,0,0,0-.87.25,1.48,1.48,0,0,0-.57.67,2.66,2.66,0,0,0-.13.45,2.82,2.82,0,0,0-.05.58Z"/><path class="cls-49" d="M539.6,594.43,538.12,592l-1.5,2.39h-1.08l2.08-3.14-2-3h1.09l1.41,2.28,1.39-2.28h1.09l-2,3,2.09,3.14Z"/><path class="cls-49" d="M542.54,591.59a2.32,2.32,0,0,0,.46,1.56,1.66,1.66,0,0,0,1.35.56,2.08,2.08,0,0,0,.89-.17A2.55,2.55,0,0,0,546,593l.61.53a4.38,4.38,0,0,1-.46.42,2.55,2.55,0,0,1-.5.3,2.46,2.46,0,0,1-.58.18,3.11,3.11,0,0,1-.71.07,3.21,3.21,0,0,1-1.1-.19,2.26,2.26,0,0,1-.85-.58,2.63,2.63,0,0,1-.54-1,4.47,4.47,0,0,1-.19-1.4,3.59,3.59,0,0,1,.67-2.33,2.53,2.53,0,0,1,3.71,0,3.26,3.26,0,0,1,.67,2.17v.41Zm3.25-.67c0-.13,0-.23,0-.33l0-.25a1.6,1.6,0,0,0-.05-.21c0-.08,0-.15-.08-.24a1.52,1.52,0,0,0-.56-.67,1.56,1.56,0,0,0-.88-.25,1.53,1.53,0,0,0-.87.25,1.48,1.48,0,0,0-.57.67,2.66,2.66,0,0,0-.13.45,2.82,2.82,0,0,0-.05.58Z"/><path class="cls-49" d="M552.08,594.31a2.75,2.75,0,0,1-1.09.2,2.85,2.85,0,0,1-1.08-.2,2.42,2.42,0,0,1-.87-.58,3,3,0,0,1-.57-1,4.17,4.17,0,0,1-.21-1.38,4.09,4.09,0,0,1,.21-1.38,2.85,2.85,0,0,1,.57-1,2.44,2.44,0,0,1,.87-.59,2.67,2.67,0,0,1,1.08-.2,2.59,2.59,0,0,1,1.09.2,3,3,0,0,1,.93.71l-.61.57a2.43,2.43,0,0,0-.66-.53A1.73,1.73,0,0,0,551,589a1.85,1.85,0,0,0-.82.17,1.62,1.62,0,0,0-.61.53,1.91,1.91,0,0,0-.3.68,3.7,3.7,0,0,0-.1,1,3.8,3.8,0,0,0,.1,1,2,2,0,0,0,.3.68,1.59,1.59,0,0,0,.61.52,1.86,1.86,0,0,0,.82.18,1.73,1.73,0,0,0,.75-.16,2.3,2.3,0,0,0,.66-.54l.61.58A3,3,0,0,1,552.08,594.31Z"/><path class="cls-49" d="M558.61,594.43v-.69a2.15,2.15,0,0,1-.77.57,2.37,2.37,0,0,1-1,.2,2.15,2.15,0,0,1-1.58-.58,2,2,0,0,1-.48-.75,3,3,0,0,1-.15-1v-3.93h.9v3.79a1.67,1.67,0,0,0,.4,1.23,1.48,1.48,0,0,0,1.1.41,1.51,1.51,0,0,0,1.12-.42,1.63,1.63,0,0,0,.42-1.22v-3.79h.91v6.15Z"/><path class="cls-49" d="M563.47,594.43a1.67,1.67,0,0,1-.69-.13,1.39,1.39,0,0,1-.49-.36,1.55,1.55,0,0,1-.29-.52,1.91,1.91,0,0,1-.1-.64V589h-.78v-.69h.78v-1.93h.9v1.93h1.31V589H562.8v3.75a1,1,0,0,0,.2.66.77.77,0,0,0,.64.24h.47v.77Z"/><path class="cls-49" d="M566.36,591.59a2.38,2.38,0,0,0,.46,1.56,1.66,1.66,0,0,0,1.35.56,2.16,2.16,0,0,0,.9-.17,2.7,2.7,0,0,0,.72-.53l.61.53a5.71,5.71,0,0,1-.47.42,2.48,2.48,0,0,1-.49.3,2.55,2.55,0,0,1-.59.18,3,3,0,0,1-.7.07,3.23,3.23,0,0,1-1.11-.19,2.15,2.15,0,0,1-.84-.58,2.5,2.5,0,0,1-.54-1,4.45,4.45,0,0,1-.2-1.4,3.59,3.59,0,0,1,.68-2.33,2.53,2.53,0,0,1,3.71,0,3.31,3.31,0,0,1,.66,2.17v.41Zm3.25-.67c0-.13,0-.23,0-.33l0-.25a1.66,1.66,0,0,0-.06-.21,1.35,1.35,0,0,0-.08-.24,1.4,1.4,0,0,0-.56-.67,1.66,1.66,0,0,0-1.75,0,1.46,1.46,0,0,0-.56.67,2.8,2.8,0,0,0-.14.45,5.71,5.71,0,0,0,0,.58Z"/><path class="cls-49" d="M576.86,592.63a1.71,1.71,0,0,1-.18.8,1.75,1.75,0,0,1-.51.58,2.22,2.22,0,0,1-.79.37,4,4,0,0,1-1,.13,4.64,4.64,0,0,1-1.4-.2,3.07,3.07,0,0,1-1.12-.69l.6-.6a2,2,0,0,0,.85.55,3.27,3.27,0,0,0,1.06.16,2.27,2.27,0,0,0,1.2-.27.9.9,0,0,0,.44-.82.79.79,0,0,0-.25-.62,1.35,1.35,0,0,0-.78-.28l-1-.08a2.35,2.35,0,0,1-1.37-.48,1.48,1.48,0,0,1-.47-1.17,1.67,1.67,0,0,1,.17-.76,1.59,1.59,0,0,1,.47-.56,2.21,2.21,0,0,1,.72-.36,3.26,3.26,0,0,1,.9-.12,4.31,4.31,0,0,1,1.23.16,2.72,2.72,0,0,1,1,.5l-.59.59a2.19,2.19,0,0,0-.75-.37,3.14,3.14,0,0,0-.89-.12,1.63,1.63,0,0,0-1,.27.87.87,0,0,0-.35.74.82.82,0,0,0,.24.63,1.37,1.37,0,0,0,.83.27l1,.09a3.35,3.35,0,0,1,.74.14,1.42,1.42,0,0,1,.57.3,1.34,1.34,0,0,1,.37.5A1.75,1.75,0,0,1,576.86,592.63Z"/><path class="cls-49" d="M445,609.43a1.68,1.68,0,0,1-.7-.13,1.44,1.44,0,0,1-.48-.36,1.58,1.58,0,0,1-.3-.52,2.2,2.2,0,0,1-.1-.64V604h-.77v-.69h.77v-1.93h.9v1.93h1.32V604h-1.32v3.75a1,1,0,0,0,.2.66.8.8,0,0,0,.64.24h.48v.77Z"/><path class="cls-49" d="M451.4,609.43v-3.8a1.66,1.66,0,0,0-.4-1.22,1.47,1.47,0,0,0-1.1-.4,1.5,1.5,0,0,0-1.12.41,1.62,1.62,0,0,0-.42,1.21v3.8h-.9v-8.9h.9V604a2.2,2.2,0,0,1,1.73-.75,2.13,2.13,0,0,1,1.63.61,2.3,2.3,0,0,1,.58,1.66v3.95Z"/><path class="cls-49" d="M455.05,606.59a2.32,2.32,0,0,0,.46,1.56,1.66,1.66,0,0,0,1.35.56,2.16,2.16,0,0,0,.9-.17,2.87,2.87,0,0,0,.72-.53l.61.53a5.71,5.71,0,0,1-.47.42,2.8,2.8,0,0,1-.49.3,2.55,2.55,0,0,1-.59.18,3,3,0,0,1-.7.07,3.23,3.23,0,0,1-1.11-.19,2.15,2.15,0,0,1-.84-.58,2.51,2.51,0,0,1-.55-1,4.47,4.47,0,0,1-.19-1.4,3.59,3.59,0,0,1,.68-2.33,2.53,2.53,0,0,1,3.71,0,3.31,3.31,0,0,1,.66,2.17v.41Zm3.25-.67c0-.13,0-.23,0-.33a1.87,1.87,0,0,0,0-.25,1.6,1.6,0,0,0-.05-.21,1.35,1.35,0,0,0-.08-.24,1.4,1.4,0,0,0-.56-.67,1.66,1.66,0,0,0-1.75,0,1.4,1.4,0,0,0-.56.67,2.8,2.8,0,0,0-.14.45,5.71,5.71,0,0,0-.05.58Z"/><path class="cls-49" d="M464.18,601.53v-1h1v1Zm.05,7.9v-6.15h.9v6.15Z"/><path class="cls-49" d="M471.33,609.43v-3.79a1.67,1.67,0,0,0-.41-1.23,1.72,1.72,0,0,0-2.22,0,1.66,1.66,0,0,0-.41,1.22v3.79h-.9v-6.15h.9V604a2.12,2.12,0,0,1,.76-.57,2.49,2.49,0,0,1,1-.18,2.16,2.16,0,0,1,1.58.57,2.32,2.32,0,0,1,.64,1.71v3.94Z"/><path class="cls-49" d="M475.51,604v5.42h-.9V604h-.78v-.69h.78v-1.16a1.91,1.91,0,0,1,.1-.64A1.44,1.44,0,0,1,475,601a1.46,1.46,0,0,1,.49-.35,1.6,1.6,0,0,1,.69-.13h.65v.77h-.49a.77.77,0,0,0-.63.24,1,1,0,0,0-.2.66v1.14h1.32V604Z"/><path class="cls-49" d="M482.8,606.36a6.4,6.4,0,0,1-.14,1.34,2.35,2.35,0,0,1-.61,1.11,2.67,2.67,0,0,1-.76.51,2.62,2.62,0,0,1-1,.19,2.58,2.58,0,0,1-1-.19,2.72,2.72,0,0,1-.77-.51,2.39,2.39,0,0,1-.38-.52,3.23,3.23,0,0,1-.22-.59,3.29,3.29,0,0,1-.11-.64c0-.23,0-.46,0-.7s0-.47,0-.7a3.39,3.39,0,0,1,.11-.65,2.89,2.89,0,0,1,.22-.58,2.17,2.17,0,0,1,.38-.52,2.55,2.55,0,0,1,.77-.52,2.59,2.59,0,0,1,1-.18,2.62,2.62,0,0,1,1,.18,2.51,2.51,0,0,1,.76.52,2.27,2.27,0,0,1,.61,1.1A6.43,6.43,0,0,1,482.8,606.36Zm-.9,0c0-.18,0-.35,0-.53a4.43,4.43,0,0,0-.06-.51,3.23,3.23,0,0,0-.15-.47,1.58,1.58,0,0,0-2.5-.39,1.14,1.14,0,0,0-.27.39,1.84,1.84,0,0,0-.15.47,3,3,0,0,0-.07.51c0,.18,0,.35,0,.53s0,.35,0,.52a2.73,2.73,0,0,0,.07.51,1.92,1.92,0,0,0,.15.48,1.05,1.05,0,0,0,.27.39,1.61,1.61,0,0,0,2.23,0,1.36,1.36,0,0,0,.27-.39,3.37,3.37,0,0,0,.15-.48,4,4,0,0,0,.06-.51C481.9,606.71,481.9,606.53,481.9,606.36Z"/><path class="cls-49" d="M488.16,604.46a1.39,1.39,0,0,0-.47-.35,1.42,1.42,0,0,0-.59-.1,1.51,1.51,0,0,0-.61.12,1.26,1.26,0,0,0-.47.35,1.8,1.8,0,0,0-.29.53,1.93,1.93,0,0,0-.1.65v3.77h-.9v-6.15h.9V604a1.56,1.56,0,0,1,.71-.6,2.33,2.33,0,0,1,1-.22,2.43,2.43,0,0,1,.79.12,1.91,1.91,0,0,1,.69.45Z"/><path class="cls-49" d="M497.89,609.43v-3.79a1.67,1.67,0,0,0-.41-1.23,1.49,1.49,0,0,0-1.1-.4,1.54,1.54,0,0,0-1.11.4,1.44,1.44,0,0,0-.43,1.13v3.89h-.9v-3.79a1.67,1.67,0,0,0-.41-1.23,1.5,1.5,0,0,0-1.11-.4,1.48,1.48,0,0,0-1.11.41,1.63,1.63,0,0,0-.42,1.22v3.79H490v-6.15h.9V604a2.07,2.07,0,0,1,.77-.57,2.5,2.5,0,0,1,1-.18,2.33,2.33,0,0,1,1.11.25,1.9,1.9,0,0,1,.77.77,2.36,2.36,0,0,1,2-1,2.57,2.57,0,0,1,.9.15,2.2,2.2,0,0,1,.69.42,2.28,2.28,0,0,1,.66,1.71v3.94Z"/><path class="cls-49" d="M504.46,609.43v-.59a2,2,0,0,1-.77.52,2.81,2.81,0,0,1-1,.15,3.74,3.74,0,0,1-1.05-.13,1.67,1.67,0,0,1-.69-.44,1.46,1.46,0,0,1-.34-.55,2,2,0,0,1-.12-.7,1.64,1.64,0,0,1,.54-1.29,2.31,2.31,0,0,1,1.58-.48h1.85v-.59a1.31,1.31,0,0,0-.36-1,1.73,1.73,0,0,0-1.21-.34,2.18,2.18,0,0,0-.94.16,1.47,1.47,0,0,0-.61.54l-.62-.56a2.21,2.21,0,0,1,.92-.73,3.82,3.82,0,0,1,1.26-.18,2.81,2.81,0,0,1,1.86.52,1.9,1.9,0,0,1,.6,1.53v4.17Zm0-2.84h-1.72c-.92,0-1.38.37-1.38,1.09a.94.94,0,0,0,.34.8,1.78,1.78,0,0,0,1.07.25,4.38,4.38,0,0,0,.75-.06,1.18,1.18,0,0,0,.63-.35,1.43,1.43,0,0,0,.31-1.06Z"/><path class="cls-49" d="M509.27,609.43a1.67,1.67,0,0,1-.69-.13,1.48,1.48,0,0,1-.49-.36,1.55,1.55,0,0,1-.29-.52,1.91,1.91,0,0,1-.1-.64V604h-.78v-.69h.78v-1.93h.9v1.93h1.31V604H508.6v3.75a1,1,0,0,0,.2.66.79.79,0,0,0,.64.24h.47v.77Z"/><path class="cls-49" d="M511.65,601.53v-1h1v1Zm.05,7.9v-6.15h.9v6.15Z"/><path class="cls-49" d="M519.56,606.36a6.4,6.4,0,0,1-.14,1.34,2.35,2.35,0,0,1-.61,1.11,2.54,2.54,0,0,1-.76.51,2.62,2.62,0,0,1-1,.19,2.58,2.58,0,0,1-1-.19,2.54,2.54,0,0,1-.76-.51,1.88,1.88,0,0,1-.38-.52,2.67,2.67,0,0,1-.23-.59,4.27,4.27,0,0,1-.11-.64c0-.23,0-.46,0-.7s0-.47,0-.7a4.41,4.41,0,0,1,.11-.65,2.42,2.42,0,0,1,.23-.58,1.74,1.74,0,0,1,.38-.52,2.39,2.39,0,0,1,.76-.52,2.59,2.59,0,0,1,1-.18,2.62,2.62,0,0,1,1,.18,2.39,2.39,0,0,1,.76.52,2.27,2.27,0,0,1,.61,1.1A6.43,6.43,0,0,1,519.56,606.36Zm-.9,0c0-.18,0-.35,0-.53a4.43,4.43,0,0,0-.06-.51,3.23,3.23,0,0,0-.15-.47,1.58,1.58,0,0,0-2.5-.39,1.14,1.14,0,0,0-.27.39,3.23,3.23,0,0,0-.15.47,3,3,0,0,0-.07.51c0,.18,0,.35,0,.53s0,.35,0,.52a2.73,2.73,0,0,0,.07.51,3.37,3.37,0,0,0,.15.48,1.05,1.05,0,0,0,.27.39,1.61,1.61,0,0,0,2.23,0,1.36,1.36,0,0,0,.27-.39,3.37,3.37,0,0,0,.15-.48,4,4,0,0,0,.06-.51C518.66,606.71,518.66,606.53,518.66,606.36Z"/><path class="cls-49" d="M525.42,609.43v-3.79a1.67,1.67,0,0,0-.4-1.23,1.5,1.5,0,0,0-1.11-.4,1.46,1.46,0,0,0-1.11.41,1.62,1.62,0,0,0-.41,1.22v3.79h-.9v-6.15h.9V604a2.12,2.12,0,0,1,.76-.57,2.49,2.49,0,0,1,1-.18,2.16,2.16,0,0,1,1.58.57,2.31,2.31,0,0,1,.63,1.71v3.94Z"/><path class="cls-49" d="M536.16,609.62a3.32,3.32,0,0,1-.17,1.06,2.67,2.67,0,0,1-.5.83,2.47,2.47,0,0,1-.81.55,2.85,2.85,0,0,1-1.08.2,4,4,0,0,1-.63,0,2.73,2.73,0,0,1-.51-.14,2.77,2.77,0,0,1-.48-.26,5.09,5.09,0,0,1-.47-.39l.59-.58a3.82,3.82,0,0,0,.32.27,2.07,2.07,0,0,0,.32.19,2.29,2.29,0,0,0,.37.12,3,3,0,0,0,.46,0,1.79,1.79,0,0,0,.77-.15,1.47,1.47,0,0,0,.83-1,2.81,2.81,0,0,0,.09-.73v-1a2,2,0,0,1-.8.63,2.51,2.51,0,0,1-.92.16,2.31,2.31,0,0,1-.86-.15,1.84,1.84,0,0,1-.63-.4,2.26,2.26,0,0,1-.61-1.14,7.2,7.2,0,0,1-.14-1.42,7.3,7.3,0,0,1,.14-1.43,2.26,2.26,0,0,1,.61-1.14,1.92,1.92,0,0,1,.64-.39,2.32,2.32,0,0,1,.86-.14,2.75,2.75,0,0,1,.93.15,1.87,1.87,0,0,1,.79.65v-.73h.89Zm-.9-3.31a7.89,7.89,0,0,0,0-.84,2.07,2.07,0,0,0-.21-.74,1.29,1.29,0,0,0-.46-.52,1.72,1.72,0,0,0-1.61,0,1.31,1.31,0,0,0-.47.52,2.07,2.07,0,0,0-.21.74,7.25,7.25,0,0,0,0,1.7,2.07,2.07,0,0,0,.21.73,1.38,1.38,0,0,0,.47.52,1.72,1.72,0,0,0,1.61,0,1.36,1.36,0,0,0,.46-.52,2.07,2.07,0,0,0,.21-.73A8,8,0,0,0,535.26,606.31Z"/><path class="cls-49" d="M541.9,609.43v-.59a2.1,2.1,0,0,1-.77.52,2.87,2.87,0,0,1-1,.15,3.72,3.72,0,0,1-1-.13,1.67,1.67,0,0,1-.69-.44,1.48,1.48,0,0,1-.35-.55,2,2,0,0,1-.12-.7,1.65,1.65,0,0,1,.55-1.29,2.31,2.31,0,0,1,1.58-.48h1.85v-.59a1.31,1.31,0,0,0-.36-1,1.76,1.76,0,0,0-1.22-.34,2.13,2.13,0,0,0-.93.16,1.55,1.55,0,0,0-.62.54l-.61-.56a2.15,2.15,0,0,1,.92-.73,3.82,3.82,0,0,1,1.26-.18,2.76,2.76,0,0,1,1.85.52,1.87,1.87,0,0,1,.61,1.53v4.17Zm0-2.84h-1.73c-.91,0-1.37.37-1.37,1.09a.94.94,0,0,0,.34.8,1.78,1.78,0,0,0,1.07.25,4.38,4.38,0,0,0,.75-.06,1.21,1.21,0,0,0,.63-.35,1.47,1.47,0,0,0,.31-1.06Z"/><path class="cls-49" d="M546.71,609.43a1.6,1.6,0,0,1-.69-.13,1.42,1.42,0,0,1-.78-.88,1.91,1.91,0,0,1-.1-.64V604h-.78v-.69h.78v-1.93h.9v1.93h1.31V604H546v3.75a1,1,0,0,0,.2.66.77.77,0,0,0,.63.24h.48v.77Z"/><path class="cls-49" d="M553.07,609.43v-3.8a1.66,1.66,0,0,0-.4-1.22,1.46,1.46,0,0,0-1.1-.4,1.48,1.48,0,0,0-1.11.41,1.62,1.62,0,0,0-.42,1.21v3.8h-.9v-8.9h.9V604a2.18,2.18,0,0,1,1.72-.75,2.13,2.13,0,0,1,1.63.61,2.3,2.3,0,0,1,.58,1.66v3.95Z"/><path class="cls-49" d="M556.72,606.59a2.33,2.33,0,0,0,.47,1.56,1.64,1.64,0,0,0,1.35.56,2.14,2.14,0,0,0,.89-.17,2.55,2.55,0,0,0,.72-.53l.61.53a4.44,4.44,0,0,1-.47.42,2.48,2.48,0,0,1-.49.3,2.62,2.62,0,0,1-.58.18,3.17,3.17,0,0,1-.71.07,3.23,3.23,0,0,1-1.11-.19,2.23,2.23,0,0,1-.84-.58,2.63,2.63,0,0,1-.54-1,4.45,4.45,0,0,1-.2-1.4,3.59,3.59,0,0,1,.68-2.33,2.53,2.53,0,0,1,3.71,0,3.31,3.31,0,0,1,.66,2.17v.41Zm3.25-.67a3.08,3.08,0,0,0,0-.33l0-.25c0-.07,0-.14,0-.21s0-.15-.08-.24a1.48,1.48,0,0,0-.57-.67,1.53,1.53,0,0,0-.87-.25,1.56,1.56,0,0,0-.88.25,1.52,1.52,0,0,0-.56.67,2.8,2.8,0,0,0-.14.45,5.71,5.71,0,0,0,0,.58Z"/><path class="cls-49" d="M566.22,604.46a1.39,1.39,0,0,0-.47-.35,1.42,1.42,0,0,0-.59-.1,1.51,1.51,0,0,0-.61.12,1.23,1.23,0,0,0-.46.35,1.62,1.62,0,0,0-.3.53,1.93,1.93,0,0,0-.1.65v3.77h-.9v-6.15h.9V604a1.56,1.56,0,0,1,.71-.6,2.33,2.33,0,0,1,1-.22,2.53,2.53,0,0,1,.8.12,2,2,0,0,1,.68.45Z"/><path class="cls-49" d="M568,601.53v-1h1v1Zm0,7.9v-6.15h.9v6.15Z"/><path class="cls-49" d="M575.15,609.43v-3.79a1.67,1.67,0,0,0-.41-1.23,1.72,1.72,0,0,0-2.22,0,1.66,1.66,0,0,0-.41,1.22v3.79h-.9v-6.15h.9V604a2.21,2.21,0,0,1,.76-.57,2.58,2.58,0,0,1,1-.18,2.13,2.13,0,0,1,1.57.57,2.28,2.28,0,0,1,.64,1.71v3.94Z"/><path class="cls-49" d="M582.77,609.62a3.32,3.32,0,0,1-.17,1.06,2.67,2.67,0,0,1-.5.83,2.47,2.47,0,0,1-.81.55,2.85,2.85,0,0,1-1.08.2,3.8,3.8,0,0,1-.62,0,2.63,2.63,0,0,1-.52-.14,3.2,3.2,0,0,1-.48-.26,5.09,5.09,0,0,1-.47-.39l.59-.58.32.27a2.07,2.07,0,0,0,.32.19,2.29,2.29,0,0,0,.37.12,3.17,3.17,0,0,0,.47,0,1.75,1.75,0,0,0,.76-.15,1.47,1.47,0,0,0,.83-1,2.81,2.81,0,0,0,.09-.73v-1a1.93,1.93,0,0,1-.8.63,2.51,2.51,0,0,1-.92.16,2.35,2.35,0,0,1-.86-.15,1.84,1.84,0,0,1-.63-.4,2.26,2.26,0,0,1-.61-1.14,7.2,7.2,0,0,1-.14-1.42,7.3,7.3,0,0,1,.14-1.43,2.26,2.26,0,0,1,.61-1.14,1.92,1.92,0,0,1,.64-.39,2.35,2.35,0,0,1,.86-.14,2.75,2.75,0,0,1,.93.15,1.89,1.89,0,0,1,.8.65v-.73h.88Zm-.9-3.31a5.92,5.92,0,0,0,0-.84,2.07,2.07,0,0,0-.21-.74,1.29,1.29,0,0,0-.46-.52,1.38,1.38,0,0,0-.8-.2,1.43,1.43,0,0,0-.81.2,1.31,1.31,0,0,0-.47.52,2.07,2.07,0,0,0-.21.74,7.25,7.25,0,0,0,0,1.7,2.07,2.07,0,0,0,.21.73,1.38,1.38,0,0,0,.47.52,1.52,1.52,0,0,0,.81.2,1.46,1.46,0,0,0,.8-.2,1.36,1.36,0,0,0,.46-.52,2.07,2.07,0,0,0,.21-.73A6,6,0,0,0,581.87,606.31Z"/><polyline class="cls-25" points="344 577 426 577 426 617 358.12 617"/><polygon class="cls-26" points="344 617 363.9 608.87 359.18 617 363.9 625.13 344 617"/><text class="cls-15" transform="translate(387.06 379.43)">2.1 Initiating <tspan class="cls-51" x="71.37" y="0">c</tspan><tspan x="77.35" y="0">a</tspan><tspan class="cls-27" x="83.92" y="0">r</tspan><tspan class="cls-52" x="88.76" y="0">dholder POST HTTPS </tspan><tspan class="cls-28" x="208.8" y="0">r</tspan><tspan x="213.63" y="0">edi</tspan><tspan class="cls-28" x="230.23" y="0">r</tspan><tspan x="235.07" y="0">ect</tspan></text><line class="cls-41" x1="684" y1="388" x2="358.12" y2="388"/><polygon class="cls-26" points="344 388 363.9 379.87 359.18 388 363.9 396.13 344 388"/></svg>